<svg id="svg" version="1.1" xmlns="http://www.w3.org/2000/svg" xmlns:xlink="http://www.w3.org/1999/xlink" width="400" height="346.6666666666667" viewBox="0, 0, 400,346.6666666666667"><g id="svgg"><path id="path0" d="M116.994 1.299 C 116.787 2.015,116.440 4.397,116.222 6.592 C 116.005 8.786,115.609 11.908,115.344 13.530 C 115.078 15.152,114.772 17.493,114.665 18.734 C 114.557 19.974,114.246 22.550,113.974 24.458 C 113.470 27.998,112.359 36.120,111.698 41.110 C 111.496 42.637,111.034 46.383,110.673 49.436 C 110.311 52.489,109.846 56.236,109.638 57.762 C 109.430 59.289,108.950 62.958,108.571 65.915 C 108.193 68.873,107.734 72.307,107.553 73.547 C 107.372 74.788,107.056 77.285,106.850 79.098 C 106.644 80.911,106.333 83.252,106.158 84.302 C 105.982 85.351,105.749 87.069,105.640 88.118 C 105.530 89.167,105.141 92.212,104.774 94.883 C 104.407 97.554,103.849 101.769,103.532 104.250 C 102.401 113.122,102.021 116.068,101.808 117.606 C 100.844 124.573,100.607 127.199,100.607 130.897 C 100.607 139.534,98.624 147.478,95.003 153.339 C 94.473 154.198,93.787 155.346,93.479 155.891 C 90.612 160.963,84.720 167.062,78.934 170.946 C 75.704 173.115,69.841 176.236,68.996 176.236 C 68.790 176.236,68.130 176.456,67.529 176.726 C 58.466 180.790,42.554 180.504,31.480 176.079 C 29.585 175.322,28.379 175.043,27.404 175.136 L 26.019 175.268 26.019 250.320 C 26.019 324.225,26.029 325.380,26.693 325.844 C 27.240 326.227,27.380 326.786,27.439 328.818 C 27.479 330.194,27.585 331.247,27.674 331.158 C 28.045 330.787,28.794 332.032,28.794 333.019 C 28.794 333.854,28.945 334.085,29.488 334.085 C 30.001 334.085,30.182 334.316,30.182 334.973 C 30.182 335.480,30.332 335.768,30.532 335.645 C 30.892 335.422,31.017 335.667,31.373 337.292 C 31.488 337.816,31.697 338.206,31.837 338.159 C 32.140 338.058,34.345 340.307,34.345 340.717 C 34.345 340.874,34.565 340.917,34.834 340.814 C 35.128 340.701,35.414 340.913,35.551 341.345 C 35.677 341.741,36.003 342.064,36.277 342.064 C 36.726 342.064,36.926 342.485,36.815 343.192 C 36.792 343.335,36.891 343.433,37.034 343.411 C 37.842 343.283,39.543 343.490,39.508 343.712 C 39.373 344.564,39.660 344.840,40.680 344.840 C 41.435 344.840,41.955 345.070,42.244 345.533 C 42.583 346.077,43.053 346.227,44.409 346.227 C 45.361 346.227,46.141 346.383,46.141 346.574 C 46.141 346.805,97.890 346.921,200.694 346.921 C 303.498 346.921,355.247 346.805,355.247 346.574 C 355.247 346.383,355.918 346.227,356.739 346.227 C 357.559 346.227,358.441 346.032,358.698 345.794 C 359.076 345.443,359.112 345.453,358.887 345.847 C 358.695 346.184,358.740 346.254,359.033 346.072 C 359.267 345.928,359.374 345.592,359.271 345.325 C 359.107 344.896,360.369 344.607,361.578 344.798 C 361.722 344.821,361.839 344.527,361.839 344.146 C 361.839 343.683,362.070 343.452,362.533 343.452 C 362.995 343.452,363.226 343.221,363.226 342.758 C 363.226 342.376,363.343 342.083,363.487 342.105 C 364.184 342.215,364.957 342.022,365.384 341.631 C 365.645 341.392,366.163 341.024,366.537 340.812 C 366.910 340.601,367.223 340.210,367.232 339.945 C 367.240 339.679,367.436 339.501,367.665 339.549 C 367.895 339.597,368.063 339.519,368.038 339.376 C 367.936 338.790,368.961 336.860,369.374 336.860 C 369.618 336.860,369.818 336.566,369.818 336.207 C 369.818 335.845,370.128 335.473,370.512 335.372 C 371.043 335.233,371.206 334.899,371.206 333.944 C 371.206 333.258,371.323 332.716,371.466 332.738 C 372.364 332.880,372.593 332.587,372.593 331.294 C 372.593 330.181,372.711 329.913,373.165 329.993 C 373.816 330.109,373.925 329.583,373.988 326.019 C 374.020 324.195,374.144 323.677,374.546 323.677 C 374.830 323.677,374.966 323.833,374.848 324.024 C 374.730 324.215,374.816 324.371,375.038 324.371 C 375.265 324.371,375.350 324.129,375.232 323.822 C 375.116 323.521,375.022 289.805,375.022 248.898 C 375.022 182.651,374.964 174.545,374.497 174.724 C 374.208 174.835,373.763 174.752,373.507 174.540 C 373.051 174.162,371.230 174.545,370.338 175.206 C 368.904 176.270,361.498 178.580,358.023 179.047 C 348.888 180.275,347.503 180.243,338.942 178.605 C 325.421 176.019,311.671 165.413,305.166 152.553 C 301.361 145.031,300.541 141.582,300.238 131.832 C 300.116 127.893,299.800 123.741,299.531 122.528 C 299.264 121.324,299.046 119.751,299.046 119.034 C 299.046 118.316,298.800 116.101,298.500 114.111 C 297.854 109.834,297.223 104.800,296.435 97.658 C 296.120 94.796,295.720 92.183,295.546 91.852 C 295.372 91.521,295.218 90.740,295.202 90.117 C 295.187 89.495,295.096 89.180,295.000 89.419 C 294.836 89.825,295.861 98.570,296.615 103.209 C 296.801 104.354,297.119 106.930,297.321 108.933 C 297.523 110.937,297.836 113.356,298.016 114.310 C 298.197 115.265,298.505 117.528,298.702 119.341 C 298.899 121.154,299.214 123.505,299.403 124.566 C 299.857 127.115,299.882 137.826,299.439 139.809 C 298.832 142.526,298.481 143.730,297.514 146.401 C 296.484 149.247,293.380 155.616,292.599 156.489 C 292.328 156.790,292.108 157.153,292.108 157.297 C 292.108 157.799,287.770 162.908,285.009 165.657 C 281.577 169.076,278.019 171.719,273.894 173.913 C 269.469 176.267,261.527 179.011,259.140 179.012 C 258.478 179.012,256.765 179.261,255.334 179.566 C 252.464 180.177,246.768 180.078,243.018 179.353 C 236.931 178.175,233.059 177.007,229.119 175.162 C 228.343 174.799,227.590 174.501,227.446 174.501 C 226.931 174.501,220.074 169.829,217.571 167.772 C 213.651 164.551,206.418 155.717,206.418 154.150 C 206.418 154.020,206.211 153.668,205.959 153.366 C 204.797 151.980,202.549 146.078,201.127 140.676 C 200.399 137.912,200.396 137.637,200.198 68.864 L 200.000 -0.173 199.813 70.078 L 199.627 140.330 198.879 142.585 C 198.467 143.825,197.888 145.605,197.591 146.541 C 193.821 158.440,182.648 170.286,170.228 175.554 C 168.858 176.135,167.497 176.740,167.205 176.899 C 166.912 177.058,166.132 177.297,165.470 177.430 C 164.808 177.564,163.565 177.895,162.706 178.166 C 158.620 179.459,149.502 180.051,144.586 179.341 C 122.911 176.215,107.863 162.791,101.825 141.197 C 101.043 138.397,101.025 126.407,101.795 120.902 C 102.116 118.612,102.593 115.022,102.855 112.923 C 103.117 110.824,103.573 107.467,103.867 105.464 C 104.161 103.461,104.406 100.991,104.412 99.977 C 104.418 98.963,104.575 97.849,104.761 97.502 C 104.947 97.155,105.274 95.019,105.488 92.755 C 105.702 90.491,106.097 87.593,106.365 86.315 C 106.632 85.037,106.851 83.398,106.850 82.672 C 106.849 81.947,107.153 79.245,107.526 76.670 C 108.742 68.266,108.928 66.845,109.452 61.925 C 109.737 59.254,110.066 56.834,110.184 56.548 C 110.374 56.085,110.856 52.249,112.059 41.631 C 112.265 39.818,112.579 37.632,112.757 36.774 C 112.935 35.915,113.250 33.495,113.457 31.396 C 113.664 29.297,114.052 26.487,114.320 25.152 C 114.587 23.816,114.905 21.240,115.027 19.428 C 115.149 17.615,115.467 15.279,115.734 14.238 C 116.000 13.196,116.219 11.599,116.219 10.689 C 116.219 9.779,116.539 7.063,116.931 4.652 C 117.654 0.205,117.678 -1.067,116.994 1.299 M283.239 0.781 C 283.478 1.587,283.559 2.180,284.152 7.459 C 284.344 9.176,284.652 11.596,284.835 12.836 C 285.017 14.076,285.560 18.213,286.040 22.029 C 286.520 25.846,287.071 29.905,287.264 31.049 C 287.456 32.194,287.836 35.160,288.107 37.641 C 288.379 40.121,288.762 43.244,288.959 44.579 C 289.626 49.101,290.432 55.319,290.759 58.456 C 290.937 60.173,291.162 61.798,291.258 62.065 C 291.354 62.333,291.665 64.753,291.948 67.443 C 292.232 70.132,292.618 73.192,292.806 74.241 C 292.994 75.291,293.403 78.179,293.715 80.659 C 294.707 88.532,294.859 89.381,294.683 86.036 C 294.597 84.415,294.300 81.839,294.023 80.312 C 293.746 78.786,293.514 76.834,293.507 75.976 C 293.500 75.117,293.272 73.322,293.001 71.986 C 292.729 70.650,292.408 68.153,292.287 66.435 C 292.166 64.718,291.852 62.220,291.589 60.885 C 291.041 58.102,290.078 50.586,289.668 45.893 C 289.515 44.136,289.287 42.531,289.161 42.328 C 289.036 42.126,288.628 39.349,288.255 36.158 C 287.881 32.966,287.279 28.014,286.915 25.152 C 286.552 22.290,286.078 18.543,285.863 16.826 C 285.647 15.108,285.169 11.734,284.800 9.327 C 284.430 6.921,284.128 4.325,284.128 3.560 C 284.128 1.658,283.766 -0.000,283.351 -0.000 C 283.156 -0.000,283.108 0.340,283.239 0.781 M363.293 4.064 C 363.352 4.362,363.773 4.743,364.228 4.911 C 364.907 5.162,364.986 5.132,364.665 4.745 C 364.449 4.485,364.356 4.190,364.457 4.088 C 364.559 3.987,364.314 3.819,363.914 3.714 C 363.381 3.575,363.215 3.669,363.293 4.064 M377.891 38.868 C 377.866 39.212,378.068 39.579,378.341 39.684 C 378.633 39.796,378.838 39.664,378.838 39.365 C 378.838 39.084,378.877 38.753,378.925 38.628 C 378.972 38.503,378.770 38.365,378.475 38.322 C 378.173 38.278,377.918 38.517,377.891 38.868 M379.185 44.153 C 379.185 44.442,379.419 44.768,379.705 44.878 C 379.991 44.988,380.225 44.946,380.225 44.784 C 380.225 44.623,379.991 44.297,379.705 44.059 C 379.281 43.707,379.185 43.725,379.185 44.153 M380.600 49.870 C 380.619 50.293,380.684 50.334,380.815 50.004 C 380.956 49.649,381.067 49.635,381.260 49.946 C 381.446 50.247,381.575 50.210,381.727 49.812 C 381.876 49.426,381.736 49.263,381.255 49.263 C 380.826 49.263,380.583 49.488,380.600 49.870 M18.569 50.637 C 18.275 51.113,18.535 51.470,19.048 51.294 C 19.258 51.222,19.285 50.977,19.113 50.700 C 18.896 50.351,18.755 50.335,18.569 50.637 M381.960 54.945 C 381.960 55.607,382.849 55.699,383.209 55.074 C 383.347 54.835,383.331 54.756,383.175 54.897 C 383.019 55.039,382.682 54.981,382.426 54.768 C 382.069 54.472,381.960 54.513,381.960 54.945 M16.870 56.620 C 17.108 57.005,18.040 56.965,18.040 56.570 C 18.040 56.391,17.738 56.267,17.370 56.295 C 17.002 56.323,16.777 56.469,16.870 56.620 M390.373 85.225 C 390.134 85.322,389.939 85.622,389.939 85.892 C 389.939 86.453,390.831 86.559,391.154 86.036 C 391.271 85.846,391.193 85.690,390.980 85.690 C 390.767 85.690,390.689 85.533,390.807 85.343 C 391.038 84.968,391.023 84.963,390.373 85.225 M6.441 97.448 C 6.335 97.619,6.482 97.849,6.767 97.958 C 7.082 98.079,7.285 97.957,7.285 97.647 C 7.285 97.086,6.743 96.959,6.441 97.448 M396.588 112.072 C 396.658 112.546,396.981 112.898,397.398 112.956 C 398.041 113.045,398.048 113.020,397.490 112.606 C 397.159 112.361,396.975 112.074,397.080 111.969 C 397.185 111.864,397.091 111.667,396.872 111.531 C 396.606 111.367,396.511 111.547,396.588 112.072 M397.918 117.639 C 397.918 118.002,397.984 118.300,398.064 118.300 C 398.143 118.300,398.495 118.393,398.844 118.506 C 399.375 118.678,399.394 118.650,398.959 118.333 C 398.533 118.022,398.522 117.899,398.902 117.654 C 399.255 117.426,399.194 117.311,398.642 117.166 C 398.095 117.024,397.918 117.139,397.918 117.639 M399.306 139.809 C 399.306 140.191,399.462 140.503,399.653 140.503 C 399.844 140.503,400.000 140.191,400.000 139.809 C 400.000 139.428,399.844 139.115,399.653 139.115 C 399.462 139.115,399.306 139.428,399.306 139.809 M397.138 148.374 C 396.342 148.582,396.352 149.374,397.150 149.374 C 397.514 149.374,397.770 149.118,397.770 148.755 C 397.770 148.414,397.764 148.153,397.757 148.176 C 397.751 148.198,397.472 148.287,397.138 148.374 M302.648 218.565 C 304.533 218.748,306.250 219.042,306.464 219.217 C 306.677 219.393,307.632 219.646,308.586 219.780 C 309.540 219.914,310.649 220.229,311.051 220.481 C 311.452 220.732,312.344 221.044,313.033 221.173 C 313.722 221.302,314.467 221.626,314.688 221.892 C 314.909 222.159,315.343 222.379,315.654 222.382 C 315.964 222.384,316.609 222.609,317.086 222.881 C 317.563 223.153,318.422 223.620,318.994 223.919 C 319.566 224.218,320.659 224.845,321.422 225.311 C 322.186 225.778,323.044 226.270,323.330 226.406 C 323.617 226.541,324.085 226.858,324.371 227.110 C 326.273 228.782,326.955 229.330,328.032 230.057 C 330.461 231.696,330.430 231.749,322.426 239.759 C 314.557 247.635,314.519 247.659,312.537 245.879 C 311.103 244.591,310.336 244.052,309.107 243.469 C 308.630 243.243,308.005 242.869,307.719 242.639 C 307.433 242.408,306.652 242.058,305.984 241.860 C 305.317 241.662,304.068 241.228,303.209 240.895 C 300.929 240.013,290.217 240.014,287.944 240.898 C 287.086 241.232,285.915 241.633,285.343 241.789 C 284.770 241.946,283.599 242.480,282.741 242.975 C 281.882 243.471,280.791 244.074,280.317 244.315 C 279.196 244.884,278.866 245.166,275.976 248.024 C 272.608 251.353,272.273 251.780,271.123 254.206 C 270.830 254.827,270.448 255.334,270.274 255.334 C 270.101 255.334,269.849 255.839,269.713 256.456 C 269.578 257.074,269.267 257.893,269.024 258.278 C 268.780 258.662,268.400 259.872,268.178 260.965 C 267.957 262.059,267.631 263.044,267.453 263.154 C 266.912 263.489,267.052 273.798,267.617 275.153 C 267.885 275.796,268.215 277.064,268.350 277.971 C 268.485 278.877,268.722 279.618,268.876 279.618 C 269.031 279.618,269.345 280.204,269.575 280.919 C 269.804 281.635,270.177 282.454,270.402 282.741 C 270.627 283.027,270.984 283.651,271.195 284.128 C 272.262 286.539,276.338 290.827,279.798 293.179 C 281.395 294.265,282.458 294.827,285.863 296.386 C 290.062 298.308,302.738 298.344,305.803 296.442 C 306.189 296.202,306.908 295.913,307.401 295.799 C 308.171 295.622,309.205 295.084,312.169 293.322 C 314.775 291.772,318.952 286.709,319.838 284.027 C 320.069 283.325,320.403 282.661,320.580 282.552 C 320.757 282.442,320.902 281.894,320.902 281.333 L 320.902 280.312 308.353 280.312 C 297.164 280.312,295.736 280.250,295.170 279.738 C 294.083 278.754,294.208 260.113,295.307 259.343 C 295.986 258.867,298.839 258.803,319.250 258.803 L 342.421 258.803 343.093 259.908 C 344.403 262.061,344.807 274.744,343.706 279.098 C 343.416 280.243,343.066 282.038,342.928 283.088 C 342.790 284.137,342.461 285.417,342.197 285.932 C 341.933 286.448,341.712 287.150,341.705 287.494 C 341.699 287.837,341.392 288.742,341.023 289.506 C 340.655 290.269,340.348 291.097,340.341 291.345 C 340.331 291.735,339.505 293.507,338.529 295.230 C 338.367 295.516,338.001 296.258,337.716 296.878 C 337.431 297.498,337.044 298.005,336.856 298.005 C 336.667 298.005,336.513 298.210,336.513 298.460 C 336.513 298.710,336.240 299.218,335.906 299.588 C 335.572 299.958,334.861 300.905,334.326 301.694 C 332.219 304.799,323.707 312.576,322.416 312.576 C 322.311 312.576,321.829 312.888,321.344 313.270 C 320.858 313.651,320.234 313.964,319.956 313.964 C 319.678 313.964,319.053 314.276,318.568 314.657 C 318.083 315.039,317.414 315.351,317.082 315.351 C 316.749 315.351,316.296 315.569,316.075 315.835 C 315.854 316.102,315.110 316.425,314.421 316.554 C 313.732 316.684,312.840 316.995,312.438 317.247 C 312.037 317.499,310.928 317.814,309.974 317.948 C 309.020 318.082,308.061 318.338,307.844 318.517 C 306.077 319.970,285.455 319.972,283.651 318.519 C 283.436 318.346,282.559 318.094,281.700 317.959 C 280.841 317.824,279.824 317.514,279.440 317.271 C 279.055 317.029,278.197 316.714,277.532 316.572 C 276.867 316.431,276.088 316.115,275.802 315.872 C 275.516 315.628,274.775 315.321,274.154 315.189 C 273.534 315.057,273.027 314.829,273.027 314.682 C 273.027 314.536,272.441 314.154,271.726 313.835 C 270.066 313.094,268.393 312.185,268.170 311.902 C 268.075 311.782,267.232 311.184,266.298 310.574 C 261.103 307.183,251.518 296.601,251.518 294.257 C 251.518 294.029,251.395 293.842,251.246 293.842 C 251.096 293.842,250.527 292.866,249.982 291.674 C 249.436 290.481,248.700 288.915,248.346 288.194 C 247.992 287.473,247.696 286.614,247.690 286.286 C 247.683 285.958,247.376 285.065,247.008 284.302 C 246.639 283.539,246.332 282.477,246.326 281.943 C 246.319 281.409,246.049 280.472,245.725 279.861 C 245.002 278.497,244.626 264.069,245.231 260.885 C 246.059 256.530,247.493 251.512,248.384 249.847 C 248.556 249.526,249.237 248.092,249.896 246.661 C 250.555 245.230,251.814 242.993,252.694 241.690 C 253.573 240.387,254.293 239.212,254.293 239.079 C 254.293 238.945,254.566 238.588,254.900 238.286 C 255.234 237.983,255.898 237.228,256.375 236.608 C 257.427 235.239,261.833 230.796,263.091 229.835 C 263.591 229.454,264.431 228.786,264.958 228.351 C 266.500 227.078,266.625 226.988,267.682 226.392 C 268.237 226.080,269.159 225.519,269.731 225.145 C 270.304 224.771,271.162 224.291,271.639 224.078 C 272.116 223.864,272.741 223.549,273.027 223.378 C 273.313 223.206,273.938 222.895,274.415 222.687 C 274.892 222.479,275.750 222.096,276.323 221.834 C 276.895 221.573,277.832 221.251,278.404 221.119 C 278.977 220.987,279.757 220.684,280.139 220.446 C 280.520 220.209,281.691 219.904,282.741 219.769 C 283.790 219.634,284.835 219.373,285.064 219.188 C 286.121 218.335,296.496 217.966,302.648 218.565 " stroke="none" fill="#4b80e8" fill-rule="evenodd"></path><path id="path1" d="M288.812 219.634 C 288.049 219.798,286.331 220.153,284.996 220.425 C 281.702 221.094,278.475 222.017,278.075 222.404 C 277.893 222.580,277.537 222.723,277.283 222.723 C 276.150 222.723,267.738 227.375,265.529 229.222 C 256.789 236.532,251.966 243.063,248.807 251.865 C 240.178 275.913,250.725 302.524,273.200 313.410 C 279.769 316.591,282.764 317.472,290.546 318.511 C 297.046 319.379,308.894 317.824,314.484 315.370 C 329.368 308.834,337.958 298.748,341.683 283.435 C 343.312 276.739,343.666 262.849,342.265 260.582 C 341.907 260.002,296.573 260.027,295.993 260.607 C 295.401 261.199,295.401 277.916,295.993 278.508 C 296.301 278.816,299.619 278.926,308.742 278.930 C 315.526 278.933,321.243 279.050,321.448 279.190 C 322.996 280.250,321.192 285.038,317.359 290.043 C 316.336 291.379,312.580 294.492,311.188 295.157 C 310.711 295.385,310.087 295.722,309.801 295.905 C 308.361 296.826,305.421 297.841,301.545 298.757 C 299.186 299.314,290.214 298.959,287.944 298.218 C 275.502 294.158,267.639 284.770,266.104 272.141 C 265.642 268.341,266.294 261.794,267.335 259.781 C 267.603 259.262,267.825 258.635,267.827 258.387 C 267.831 257.995,268.460 256.683,270.467 252.874 C 271.207 251.470,275.209 246.914,276.831 245.630 C 281.528 241.909,284.512 240.542,291.240 239.025 C 295.243 238.122,301.911 238.984,306.505 240.996 C 308.651 241.937,313.060 244.653,313.442 245.271 C 314.117 246.363,315.382 245.420,321.472 239.289 C 324.930 235.807,327.859 232.630,327.980 232.230 C 328.239 231.374,323.146 227.205,319.861 225.585 C 319.384 225.349,318.760 225.005,318.474 224.821 C 318.187 224.636,317.016 224.073,315.872 223.570 C 314.727 223.067,313.298 222.437,312.697 222.169 C 312.096 221.901,311.438 221.683,311.235 221.683 C 311.032 221.683,310.156 221.442,309.289 221.147 C 304.735 219.601,293.014 218.735,288.812 219.634 " stroke="none" fill="#f9fafb" fill-rule="evenodd"></path><path id="path2" d="M117.606 0.260 C 117.606 0.403,117.297 2.394,116.920 4.683 C 116.542 6.973,116.230 9.633,116.226 10.595 C 116.222 11.557,116.000 13.196,115.734 14.238 C 115.467 15.279,115.149 17.615,115.027 19.428 C 114.905 21.240,114.587 23.816,114.320 25.152 C 114.052 26.487,113.664 29.297,113.457 31.396 C 113.250 33.495,112.935 35.915,112.757 36.774 C 112.579 37.632,112.265 39.818,112.059 41.631 C 110.856 52.249,110.374 56.085,110.184 56.548 C 110.066 56.834,109.737 59.254,109.452 61.925 C 108.928 66.845,108.742 68.266,107.526 76.670 C 107.153 79.245,106.849 81.947,106.850 82.672 C 106.851 83.398,106.632 85.037,106.365 86.315 C 106.097 87.593,105.702 90.491,105.488 92.755 C 105.274 95.019,104.947 97.155,104.761 97.502 C 104.575 97.849,104.418 98.963,104.412 99.977 C 104.406 100.991,104.161 103.461,103.867 105.464 C 103.573 107.467,103.117 110.824,102.855 112.923 C 102.593 115.022,102.116 118.612,101.795 120.902 C 101.025 126.407,101.043 138.397,101.825 141.197 C 107.863 162.791,122.911 176.215,144.586 179.341 C 149.502 180.051,158.620 179.459,162.706 178.166 C 163.565 177.895,164.808 177.564,165.470 177.430 C 166.132 177.297,166.912 177.058,167.205 176.899 C 167.497 176.740,168.858 176.135,170.228 175.554 C 178.993 171.836,186.245 165.834,192.032 157.508 C 193.653 155.175,196.860 148.849,197.591 146.541 C 197.888 145.605,198.467 143.825,198.879 142.585 L 199.627 140.330 199.732 70.165 L 199.836 -0.000 158.721 -0.000 C 136.108 -0.000,117.606 0.117,117.606 0.260 M283.990 2.342 C 284.091 3.630,284.471 6.791,284.836 9.367 C 285.847 16.513,287.165 26.843,288.255 36.158 C 288.628 39.349,289.036 42.126,289.161 42.328 C 289.287 42.531,289.515 44.136,289.668 45.893 C 290.078 50.586,291.041 58.102,291.589 60.885 C 291.852 62.220,292.166 64.718,292.287 66.435 C 292.408 68.153,292.729 70.650,293.001 71.986 C 293.272 73.322,293.495 75.058,293.495 75.844 C 293.495 76.629,293.723 78.581,294.002 80.180 C 294.280 81.779,294.672 84.883,294.872 87.077 C 295.072 89.271,295.374 91.379,295.543 91.761 C 295.712 92.142,296.111 94.796,296.430 97.658 C 297.241 104.944,297.864 109.901,298.500 114.111 C 298.800 116.101,299.046 118.316,299.046 119.034 C 299.046 119.751,299.264 121.324,299.531 122.528 C 299.800 123.741,300.116 127.893,300.238 131.832 C 300.541 141.582,301.361 145.031,305.166 152.553 C 311.671 165.413,325.421 176.019,338.942 178.605 C 347.503 180.243,348.888 180.275,358.023 179.047 C 361.498 178.580,368.904 176.270,370.338 175.206 C 371.230 174.545,373.051 174.162,373.507 174.540 C 373.763 174.752,374.198 174.839,374.475 174.733 C 374.770 174.620,375.042 174.783,375.133 175.128 C 375.244 175.547,375.300 175.491,375.328 174.935 C 375.356 174.391,375.585 174.154,376.083 174.154 C 376.476 174.154,376.720 174.030,376.626 173.878 C 376.283 173.322,377.024 172.723,378.091 172.692 C 378.912 172.669,379.185 172.501,379.185 172.020 C 379.185 171.610,379.435 171.379,379.879 171.379 C 380.341 171.379,380.572 171.148,380.572 170.685 C 380.572 170.304,380.796 169.991,381.069 169.991 C 381.343 169.991,381.666 169.679,381.787 169.297 C 381.936 168.826,382.312 168.604,382.957 168.604 C 383.885 168.604,386.123 167.082,386.123 166.451 C 386.123 166.277,385.943 166.246,385.723 166.382 C 385.470 166.538,385.416 166.477,385.578 166.215 C 385.719 165.987,386.122 165.891,386.473 166.003 C 386.951 166.154,387.140 166.005,387.225 165.410 C 387.296 164.903,387.542 164.647,387.900 164.706 C 388.241 164.761,388.461 164.557,388.459 164.185 C 388.451 162.349,388.573 162.012,389.245 162.012 C 389.708 162.012,389.939 161.781,389.939 161.318 C 389.939 160.856,390.171 160.624,390.633 160.624 C 391.015 160.624,391.327 160.401,391.327 160.127 C 391.327 159.854,391.636 159.532,392.014 159.412 C 392.392 159.293,392.685 159.087,392.667 158.955 C 392.492 157.726,392.784 156.808,393.351 156.808 C 393.700 156.808,394.013 156.574,394.045 156.288 C 394.076 156.002,394.128 155.536,394.160 155.253 C 394.201 154.892,394.343 154.842,394.636 155.085 C 395.068 155.443,395.678 153.577,395.319 152.996 C 395.227 152.846,395.453 152.645,395.822 152.549 C 396.191 152.452,396.500 152.083,396.508 151.729 C 396.517 151.374,396.529 150.482,396.536 149.745 C 396.547 148.594,396.643 148.431,397.222 148.582 C 397.592 148.679,397.882 148.657,397.866 148.533 C 397.676 147.076,397.984 146.054,398.612 146.054 C 399.244 146.054,399.306 145.822,399.306 143.481 C 399.306 141.747,399.448 140.851,399.740 140.733 C 400.087 140.593,400.087 140.552,399.740 140.530 C 399.229 140.498,399.144 139.115,399.653 139.115 C 399.874 139.115,400.000 136.340,400.000 131.483 C 400.000 126.626,399.874 123.851,399.653 123.851 C 399.462 123.851,399.306 123.539,399.306 123.157 C 399.306 122.775,399.501 122.461,399.740 122.458 C 400.069 122.454,400.074 122.389,399.760 122.190 C 399.532 122.045,399.308 121.190,399.262 120.290 C 399.198 119.060,399.020 118.603,398.548 118.453 C 398.020 118.286,397.911 117.838,397.875 115.675 C 397.851 114.257,397.812 112.758,397.788 112.345 C 397.739 111.495,396.993 111.052,396.993 111.872 C 396.993 112.164,397.133 112.402,397.303 112.402 C 397.473 112.402,397.508 112.572,397.379 112.780 C 396.869 113.605,396.565 112.424,396.504 109.382 C 396.469 107.625,396.343 106.200,396.225 106.214 C 395.467 106.306,395.317 105.919,395.317 103.875 C 395.317 102.052,395.187 101.497,394.673 101.122 C 394.174 100.756,394.010 100.122,393.943 98.287 C 393.829 95.208,393.840 95.248,393.235 95.750 C 392.782 96.126,392.715 95.909,392.715 94.079 C 392.715 92.863,392.546 91.871,392.314 91.727 C 392.042 91.559,392.008 91.636,392.207 91.967 C 392.457 92.382,392.414 92.384,391.914 91.978 C 391.459 91.609,391.327 90.928,391.327 88.943 C 391.327 86.664,391.255 86.383,390.671 86.383 C 390.102 86.383,390.009 86.095,389.971 84.215 C 389.918 81.596,389.820 80.936,389.431 80.582 C 389.268 80.434,389.247 80.507,389.384 80.746 C 389.538 81.014,389.427 81.180,389.092 81.180 C 388.608 81.180,388.267 78.175,388.517 76.100 C 388.543 75.882,388.289 75.726,387.951 75.753 C 387.417 75.796,387.324 75.431,387.237 72.940 C 387.158 70.709,387.024 70.078,386.630 70.078 C 386.131 70.078,385.903 68.531,386.058 66.198 C 386.102 65.539,385.917 65.202,385.428 65.047 C 384.849 64.864,384.729 64.503,384.699 62.856 C 384.638 59.638,384.606 59.493,383.955 59.545 C 383.440 59.586,383.348 59.283,383.348 57.550 C 383.348 55.739,383.269 55.507,382.654 55.507 C 382.245 55.507,381.960 55.276,381.960 54.945 C 381.960 54.499,382.062 54.467,382.450 54.788 C 382.738 55.028,383.021 55.061,383.140 54.870 C 383.250 54.691,383.030 54.464,382.650 54.365 C 382.056 54.210,381.960 53.889,381.960 52.050 C 381.960 50.716,381.830 49.996,381.613 50.130 C 381.422 50.248,381.264 50.140,381.261 49.890 C 381.257 49.527,381.200 49.524,380.976 49.877 C 380.817 50.128,380.670 49.230,380.635 47.796 C 380.561 44.722,380.284 43.288,379.820 43.575 C 379.590 43.717,379.600 43.919,379.848 44.168 C 380.392 44.712,380.312 45.111,379.705 44.878 C 379.305 44.725,379.178 44.027,379.157 41.854 C 379.142 40.300,379.054 39.215,378.961 39.443 C 378.491 40.599,377.932 39.391,378.001 37.369 C 378.092 34.713,377.917 33.974,377.259 34.227 C 376.695 34.443,376.690 34.415,376.683 31.092 C 376.680 29.572,376.567 28.879,376.371 29.184 C 376.005 29.750,375.343 29.003,375.410 28.101 C 375.587 25.709,375.334 24.356,374.675 24.184 C 374.056 24.022,373.606 20.417,373.940 18.300 C 373.962 18.157,373.864 18.058,373.721 18.081 C 372.835 18.221,372.593 17.929,372.593 16.722 C 372.593 15.997,372.398 15.193,372.160 14.936 C 371.808 14.557,371.824 14.516,372.246 14.720 C 372.533 14.858,372.415 14.660,371.986 14.281 C 371.482 13.836,371.206 13.198,371.206 12.480 C 371.206 11.545,371.097 11.396,370.524 11.546 C 370.148 11.644,369.855 11.623,369.871 11.500 C 369.957 10.836,369.785 10.066,369.558 10.102 C 368.910 10.204,368.430 10.030,368.430 9.693 C 368.430 9.491,368.564 9.408,368.727 9.509 C 368.890 9.610,368.950 9.307,368.860 8.836 C 368.770 8.365,368.549 7.979,368.369 7.979 C 368.189 7.979,368.145 7.813,368.271 7.609 C 368.408 7.387,368.243 7.283,367.858 7.349 C 367.422 7.424,367.215 7.249,367.214 6.804 C 367.213 6.438,366.859 6.019,366.411 5.853 C 365.971 5.690,365.701 5.410,365.812 5.230 C 365.923 5.050,365.566 4.916,365.017 4.931 C 363.821 4.965,363.226 4.646,363.226 3.969 C 363.226 3.694,362.914 3.469,362.533 3.469 C 362.070 3.469,361.839 3.238,361.839 2.775 C 361.839 2.112,360.993 1.856,359.474 2.061 C 359.133 2.107,359.105 1.959,359.364 1.475 C 359.674 0.895,359.558 0.818,358.259 0.743 C 357.461 0.697,356.756 0.511,356.693 0.329 C 356.621 0.124,342.854 0.000,320.192 0.000 L 283.808 -0.000 283.990 2.342 M18.180 50.357 C 18.019 50.618,18.086 50.663,18.372 50.486 C 18.628 50.328,18.938 50.414,19.114 50.693 C 19.354 51.071,19.418 51.044,19.422 50.564 C 19.428 49.883,18.562 49.739,18.180 50.357 M17.032 55.834 C 16.782 55.988,16.719 56.202,16.892 56.308 C 17.065 56.415,17.410 56.376,17.660 56.222 C 17.910 56.067,17.973 55.854,17.800 55.747 C 17.628 55.640,17.282 55.679,17.032 55.834 M375.192 248.916 C 375.192 289.176,375.232 305.698,375.282 285.630 C 375.331 265.563,375.331 232.623,375.282 212.430 C 375.232 192.237,375.192 208.656,375.192 248.916 " stroke="none" fill="#4b59b7" fill-rule="evenodd"></path><path id="path3" d="M43.370 0.260 C 43.367 0.508,42.927 0.694,42.345 0.694 C 41.784 0.694,41.213 0.874,41.077 1.094 C 40.911 1.362,40.991 1.404,41.317 1.219 C 41.623 1.046,41.590 1.171,41.228 1.556 C 40.911 1.893,40.247 2.168,39.753 2.168 C 39.158 2.168,38.853 2.358,38.850 2.732 C 38.845 3.223,38.801 3.228,38.508 2.775 C 38.221 2.331,38.171 2.343,38.167 2.862 C 38.163 3.236,37.895 3.469,37.467 3.469 C 37.005 3.469,36.774 3.700,36.774 4.163 C 36.774 4.626,36.542 4.857,36.080 4.857 C 35.694 4.857,35.386 5.088,35.386 5.377 C 35.386 5.663,35.226 5.898,35.030 5.898 C 34.835 5.898,34.521 6.304,34.332 6.800 C 34.096 7.420,33.817 7.637,33.441 7.493 C 33.078 7.353,32.832 7.517,32.711 7.978 C 32.611 8.360,32.314 8.673,32.050 8.673 C 31.616 8.673,31.418 9.100,31.529 9.801 C 31.567 10.045,31.028 10.194,30.442 10.102 C 30.299 10.079,30.182 10.622,30.182 11.307 C 30.182 12.266,30.020 12.596,29.483 12.737 C 29.098 12.838,28.804 13.096,28.830 13.312 C 29.008 14.809,28.754 15.611,28.101 15.611 C 27.476 15.611,27.406 15.844,27.401 17.953 C 27.398 19.593,27.295 20.139,27.060 19.775 C 26.728 19.260,26.530 19.658,26.672 20.555 C 26.694 20.698,26.564 20.815,26.383 20.815 C 26.201 20.815,26.006 21.791,25.949 22.984 C 25.870 24.634,25.721 25.152,25.325 25.152 C 24.921 25.152,24.787 25.686,24.723 27.556 C 24.673 29.043,24.474 30.065,24.203 30.232 C 23.721 30.529,23.559 31.288,23.474 33.651 C 23.434 34.752,23.245 35.284,22.833 35.453 C 22.495 35.592,22.234 36.105,22.214 36.667 C 22.049 41.348,22.032 41.457,21.465 41.416 C 20.999 41.382,20.893 41.794,20.851 43.802 C 20.796 46.512,20.620 47.045,19.964 46.501 C 19.612 46.209,19.521 46.693,19.518 48.875 C 19.514 51.756,19.344 52.385,18.567 52.385 C 18.210 52.385,18.106 52.958,18.142 54.727 C 18.185 56.862,18.119 57.099,17.390 57.415 C 16.705 57.713,16.615 57.950,16.764 59.079 C 16.899 60.103,16.780 60.541,16.230 61.054 C 15.823 61.433,15.610 61.942,15.729 62.253 C 15.843 62.550,15.813 62.793,15.662 62.793 C 15.511 62.793,15.376 63.505,15.363 64.376 C 15.345 65.496,15.150 66.096,14.694 66.429 C 14.341 66.687,14.168 67.016,14.311 67.159 C 14.454 67.301,14.571 67.236,14.571 67.014 C 14.571 66.791,14.754 66.609,14.978 66.609 C 15.202 66.609,15.055 66.960,14.652 67.389 C 14.249 67.819,13.909 68.287,13.898 68.430 C 13.886 68.573,13.877 69.393,13.877 70.252 C 13.877 71.315,13.739 71.785,13.443 71.726 C 13.131 71.663,12.981 72.437,12.909 74.497 C 12.823 76.935,12.707 77.408,12.117 77.724 C 11.737 77.927,11.450 78.280,11.478 78.509 C 11.682 80.128,11.398 82.557,11.015 82.480 C 10.776 82.433,10.620 82.589,10.668 82.827 C 10.716 83.066,10.634 83.261,10.487 83.261 C 10.340 83.261,10.179 84.237,10.128 85.429 C 10.065 86.918,9.856 87.760,9.461 88.118 C 8.936 88.591,8.926 88.583,9.348 88.023 C 9.750 87.490,9.736 87.437,9.242 87.627 C 8.781 87.804,8.673 88.364,8.673 90.573 C 8.673 92.980,8.605 93.274,8.092 93.077 C 7.653 92.908,7.566 92.995,7.735 93.435 C 7.861 93.763,7.790 94.016,7.572 94.016 C 7.308 94.016,7.255 94.669,7.403 96.086 C 7.654 98.489,7.470 99.203,6.656 98.990 C 6.178 98.865,6.054 99.133,5.979 100.457 C 5.878 102.253,5.664 102.800,5.180 102.500 C 4.992 102.384,4.857 103.378,4.857 104.883 C 4.857 107.131,4.771 107.487,4.195 107.638 C 3.623 107.787,3.530 108.154,3.509 110.330 C 3.485 112.894,3.377 113.270,2.660 113.270 C 2.408 113.270,2.215 114.057,2.149 115.351 C 2.091 116.496,1.887 117.589,1.695 117.780 C 1.462 118.012,1.432 117.897,1.606 117.433 C 1.836 116.816,1.799 116.792,1.279 117.215 C 0.850 117.564,0.694 118.237,0.694 119.730 C 0.694 121.127,0.557 121.771,0.260 121.775 C -0.029 121.778,0.000 121.892,0.347 122.116 C 0.694 122.340,0.723 122.454,0.434 122.458 C -0.414 122.468,-0.160 132.773,0.694 133.044 C 1.590 133.329,1.590 134.270,0.694 134.505 C -0.153 134.726,-0.404 141.539,0.434 141.549 C 0.723 141.553,0.694 141.667,0.347 141.891 C -0.094 142.176,-0.078 142.228,0.454 142.232 C 0.799 142.235,0.985 142.394,0.867 142.585 C 0.749 142.775,0.887 142.931,1.173 142.931 C 1.459 142.931,1.805 143.112,1.942 143.333 C 2.109 143.604,1.963 143.675,1.491 143.552 C 0.540 143.303,0.541 146.614,1.492 147.146 C 1.830 147.335,2.082 147.894,2.082 148.457 C 2.082 149.555,2.870 150.414,3.513 150.016 C 3.803 149.837,3.865 149.936,3.713 150.333 C 3.581 150.676,3.663 150.913,3.914 150.916 C 4.178 150.919,4.206 151.017,3.990 151.176 C 3.361 151.638,3.507 152.645,4.202 152.645 C 4.705 152.645,4.857 152.898,4.857 153.733 C 4.857 155.039,6.439 156.825,6.706 155.820 C 6.844 155.299,6.862 155.300,6.898 155.834 C 6.920 156.156,6.782 156.517,6.592 156.635 C 6.133 156.918,6.147 157.502,6.612 157.502 C 6.814 157.502,6.867 157.307,6.730 157.069 C 6.593 156.830,6.614 156.756,6.777 156.905 C 7.059 157.161,7.280 157.871,7.363 158.780 C 7.384 159.006,7.764 159.282,8.208 159.393 C 8.653 159.505,8.978 159.785,8.931 160.015 C 8.885 160.246,9.184 160.486,9.597 160.550 C 10.221 160.645,10.338 160.878,10.291 161.924 C 10.243 162.993,10.365 163.221,11.101 163.431 C 11.578 163.566,11.845 163.693,11.693 163.712 C 11.541 163.731,11.847 164.176,12.374 164.701 C 12.900 165.225,13.492 165.603,13.690 165.539 C 13.888 165.476,13.935 165.539,13.795 165.679 C 13.654 165.820,14.005 166.381,14.575 166.925 C 15.145 167.470,15.611 168.077,15.611 168.275 C 15.611 168.472,15.807 168.609,16.045 168.578 C 16.818 168.477,17.347 168.598,17.305 168.864 C 17.131 169.963,17.868 170.229,19.048 169.494 C 19.333 169.316,19.458 169.320,19.348 169.504 C 19.050 170.006,19.705 171.379,20.243 171.379 C 20.513 171.379,20.818 171.698,20.920 172.089 C 21.112 172.823,22.190 172.910,23.207 172.273 C 23.588 172.034,23.654 172.165,23.516 172.889 C 23.357 173.720,23.569 173.967,24.350 173.856 C 24.482 173.837,24.687 174.131,24.807 174.508 C 25.071 175.339,25.862 175.410,26.162 174.631 C 26.471 173.824,31.814 174.111,32.440 174.967 C 32.671 175.283,33.171 175.542,33.551 175.542 C 34.479 175.542,36.427 176.238,36.427 176.569 C 36.427 176.715,37.449 176.917,38.698 177.017 C 40.079 177.128,41.213 177.419,41.588 177.758 C 42.506 178.590,57.096 178.590,58.703 177.759 C 59.297 177.452,60.730 177.115,61.888 177.010 C 63.046 176.905,64.199 176.614,64.449 176.364 C 64.699 176.114,65.668 175.808,66.603 175.684 C 67.537 175.560,68.378 175.259,68.472 175.014 C 68.565 174.770,69.265 174.465,70.027 174.337 C 70.788 174.208,71.489 173.900,71.584 173.652 C 71.679 173.404,72.301 173.099,72.966 172.975 C 73.630 172.850,74.262 172.518,74.370 172.237 C 74.478 171.956,74.885 171.726,75.274 171.726 C 75.664 171.726,76.250 171.414,76.577 171.032 C 76.903 170.650,77.448 170.338,77.787 170.338 C 78.127 170.338,78.404 170.111,78.404 169.834 C 78.404 169.531,78.892 169.237,79.618 169.101 C 80.358 168.962,80.833 168.672,80.833 168.359 C 80.833 168.076,81.145 167.763,81.526 167.663 C 81.908 167.564,82.220 167.277,82.220 167.025 C 82.220 166.774,82.533 166.470,82.914 166.349 C 83.296 166.228,83.608 165.905,83.608 165.631 C 83.608 165.358,83.776 165.134,83.981 165.134 C 84.427 165.134,88.654 160.842,88.939 160.101 C 89.048 159.816,89.296 159.584,89.490 159.584 C 89.684 159.584,90.072 159.037,90.351 158.369 C 90.630 157.702,91.022 157.155,91.223 157.155 C 91.423 157.155,91.587 156.921,91.587 156.635 C 91.587 156.349,91.899 155.802,92.281 155.421 C 92.663 155.039,92.975 154.431,92.975 154.070 C 92.975 153.709,93.193 153.330,93.460 153.227 C 93.727 153.125,94.130 152.483,94.355 151.802 C 94.579 151.121,94.894 150.564,95.053 150.564 C 95.212 150.564,95.448 149.939,95.577 149.176 C 95.708 148.401,96.007 147.788,96.256 147.788 C 96.528 147.788,96.772 147.158,96.884 146.162 C 96.985 145.267,97.293 144.369,97.568 144.167 C 97.860 143.952,98.150 142.932,98.264 141.717 C 98.371 140.572,98.707 139.167,99.010 138.595 C 99.443 137.778,99.563 136.433,99.567 132.350 C 99.569 129.238,99.792 125.822,100.122 123.851 C 100.424 122.038,100.792 119.228,100.940 117.606 C 101.087 115.984,101.458 113.096,101.763 111.188 C 102.425 107.052,102.849 103.776,103.536 97.485 C 103.817 94.909,104.202 92.255,104.391 91.587 C 104.580 90.919,104.908 88.469,105.119 86.141 C 105.330 83.814,105.649 81.397,105.829 80.771 C 106.008 80.145,106.247 78.146,106.360 76.330 C 106.473 74.513,106.773 72.324,107.027 71.466 C 107.281 70.607,107.591 68.343,107.717 66.435 C 107.843 64.527,108.103 62.264,108.295 61.405 C 108.486 60.546,108.783 58.288,108.955 56.386 C 109.126 54.485,109.504 51.662,109.794 50.115 C 110.084 48.567,110.321 46.503,110.321 45.529 C 110.321 44.555,110.542 42.693,110.813 41.393 C 111.083 40.093,111.478 37.233,111.691 35.039 C 111.903 32.845,112.217 30.581,112.390 30.009 C 112.562 29.436,112.878 27.016,113.092 24.631 C 113.307 22.246,113.624 19.827,113.797 19.254 C 113.970 18.682,114.285 16.281,114.497 13.920 C 114.708 11.558,115.006 9.295,115.158 8.889 C 115.310 8.484,115.540 6.748,115.668 5.030 C 115.797 3.313,115.986 1.479,116.088 0.954 L 116.274 0.000 80.166 0.000 C 51.515 0.000,44.058 0.090,44.054 0.434 C 44.050 0.723,43.936 0.694,43.712 0.347 C 43.488 0.000,43.374 -0.029,43.370 0.260 M201.306 63.920 C 201.410 130.628,201.525 138.798,202.372 139.764 C 202.644 140.075,202.975 141.371,203.106 142.644 C 203.248 144.021,203.526 145.027,203.792 145.129 C 204.038 145.224,204.343 146.079,204.469 147.031 C 204.595 147.982,204.909 148.842,205.167 148.941 C 205.425 149.040,205.741 149.680,205.870 150.363 C 206.010 151.111,206.303 151.605,206.607 151.605 C 206.936 151.605,207.112 151.965,207.112 152.642 C 207.112 153.304,207.363 153.837,207.806 154.113 C 208.187 154.352,208.500 154.826,208.500 155.168 C 208.500 155.510,208.724 155.876,208.999 155.981 C 209.273 156.086,209.598 156.628,209.720 157.184 C 209.842 157.741,210.091 158.196,210.273 158.196 C 210.454 158.196,210.706 158.469,210.832 158.803 C 210.958 159.137,211.617 159.983,212.296 160.684 C 212.974 161.385,213.920 162.510,214.397 163.185 C 214.874 163.861,215.863 164.848,216.594 165.381 C 217.326 165.913,218.324 166.700,218.813 167.129 C 219.302 167.559,219.836 167.910,219.999 167.910 C 220.162 167.910,220.295 168.144,220.295 168.430 C 220.295 168.716,220.505 168.951,220.761 168.951 C 221.018 168.951,221.511 169.263,221.856 169.644 C 222.201 170.026,222.766 170.338,223.112 170.338 C 223.457 170.338,223.907 170.650,224.111 171.032 C 224.315 171.414,224.722 171.726,225.015 171.726 C 225.308 171.726,225.782 171.960,226.068 172.246 C 226.354 172.532,227.006 172.868,227.518 172.993 C 228.029 173.117,228.820 173.508,229.275 173.860 C 229.730 174.213,230.452 174.501,230.880 174.501 C 231.308 174.501,231.843 174.723,232.068 174.995 C 232.293 175.266,233.084 175.590,233.825 175.716 C 234.566 175.841,235.357 176.165,235.582 176.436 C 235.847 176.756,236.680 176.930,237.944 176.931 C 239.282 176.932,240.253 177.150,241.032 177.625 C 242.564 178.559,258.963 178.705,259.632 177.791 C 259.850 177.493,260.845 177.166,261.922 177.039 C 262.969 176.915,264.019 176.621,264.254 176.385 C 264.490 176.149,265.460 175.850,266.409 175.719 C 267.358 175.589,268.308 175.273,268.519 175.019 C 268.731 174.764,269.519 174.452,270.271 174.324 C 271.044 174.194,271.639 173.897,271.639 173.642 C 271.639 173.394,272.171 173.091,272.820 172.969 C 273.469 172.848,274.089 172.518,274.197 172.237 C 274.305 171.956,274.680 171.726,275.032 171.726 C 275.384 171.726,276.007 171.414,276.416 171.032 C 276.826 170.650,277.402 170.338,277.696 170.338 C 277.990 170.338,278.231 170.115,278.231 169.841 C 278.231 169.568,278.558 169.240,278.959 169.113 C 279.359 168.986,279.984 168.585,280.346 168.222 C 280.709 167.860,281.240 167.563,281.526 167.563 C 281.813 167.563,282.047 167.314,282.047 167.010 C 282.047 166.706,282.359 166.376,282.741 166.276 C 283.122 166.176,283.435 165.873,283.435 165.603 C 283.435 165.334,283.686 165.016,283.993 164.898 C 284.760 164.604,286.210 163.225,286.210 162.790 C 286.210 162.594,286.425 162.351,286.688 162.250 C 286.951 162.149,287.674 161.282,288.295 160.324 C 288.916 159.366,289.637 158.500,289.898 158.400 C 290.159 158.300,290.373 157.901,290.373 157.513 C 290.373 157.125,290.595 156.808,290.866 156.808 C 291.137 156.808,291.459 156.353,291.581 155.797 C 291.703 155.240,292.028 154.699,292.302 154.593 C 292.577 154.488,292.801 154.085,292.801 153.697 C 292.801 153.309,293.114 152.680,293.495 152.298 C 293.877 151.917,294.189 151.292,294.189 150.911 C 294.189 150.529,294.501 149.905,294.883 149.523 C 295.309 149.097,295.577 148.367,295.577 147.632 C 295.577 146.878,295.790 146.316,296.152 146.113 C 296.547 145.892,296.779 145.167,296.893 143.794 C 297.002 142.479,297.279 141.576,297.705 141.150 C 298.228 140.627,298.352 139.974,298.352 137.752 C 298.352 135.791,298.499 134.855,298.864 134.490 C 299.314 134.040,299.308 133.953,298.813 133.763 C 298.324 133.575,298.276 133.000,298.437 129.263 C 298.551 126.623,298.448 123.664,298.169 121.553 C 297.920 119.668,297.538 116.644,297.321 114.831 C 297.103 113.018,296.693 110.186,296.410 108.536 C 296.127 106.887,295.812 104.155,295.710 102.465 C 295.608 100.775,295.308 98.456,295.044 97.311 C 294.780 96.167,294.457 93.591,294.325 91.587 C 294.194 89.584,293.876 87.339,293.618 86.600 C 293.360 85.860,293.148 84.458,293.148 83.484 C 293.148 82.510,292.842 79.759,292.469 77.370 C 292.095 74.981,291.633 71.700,291.443 70.078 C 290.980 66.138,290.444 61.837,289.996 58.456 C 289.793 56.930,289.478 54.510,289.295 53.079 C 289.112 51.648,288.803 49.384,288.608 48.049 C 288.413 46.713,288.100 44.293,287.913 42.671 C 287.726 41.049,287.345 38.312,287.067 36.589 C 286.788 34.866,286.460 31.978,286.337 30.171 C 286.215 28.364,285.983 26.629,285.822 26.314 C 285.661 25.999,285.362 23.813,285.158 21.457 C 284.954 19.101,284.561 16.304,284.285 15.242 C 284.008 14.180,283.779 12.384,283.775 11.252 C 283.772 10.120,283.554 8.179,283.292 6.938 C 283.029 5.698,282.701 3.630,282.563 2.342 L 282.313 0.000 241.760 0.000 L 201.207 0.000 201.306 63.920 M288.465 218.879 C 283.899 219.772,281.136 220.411,280.833 220.643 C 280.642 220.789,279.939 221.023,279.271 221.162 C 278.604 221.302,277.667 221.621,277.190 221.873 C 276.713 222.124,275.386 222.736,274.241 223.233 C 273.096 223.731,271.925 224.289,271.639 224.474 C 271.353 224.659,270.729 225.001,270.252 225.235 C 265.084 227.769,252.905 239.606,252.905 242.095 C 252.905 242.317,252.783 242.498,252.634 242.498 C 252.164 242.498,247.702 251.729,247.702 252.700 C 247.702 253.023,247.486 253.708,247.222 254.224 C 246.959 254.739,246.630 255.863,246.491 256.722 C 246.352 257.580,245.989 259.219,245.683 260.364 C 243.222 269.582,246.590 286.599,252.687 295.750 C 253.196 296.513,253.804 297.437,254.039 297.802 C 257.988 303.935,265.960 310.825,272.944 314.142 C 274.421 314.843,276.019 315.618,276.496 315.864 C 276.973 316.110,277.910 316.426,278.578 316.565 C 279.245 316.705,279.960 316.954,280.165 317.118 C 280.370 317.282,281.697 317.671,283.113 317.982 C 284.530 318.294,286.392 318.707,287.251 318.902 C 289.248 319.354,302.194 319.345,304.250 318.890 C 305.108 318.700,307.060 318.278,308.586 317.951 C 310.113 317.624,311.518 317.236,311.709 317.088 C 311.899 316.940,312.596 316.703,313.256 316.562 C 313.916 316.421,315.087 315.995,315.858 315.615 C 316.629 315.236,317.957 314.592,318.810 314.185 C 319.664 313.777,321.106 312.936,322.016 312.316 C 322.926 311.696,323.762 311.188,323.875 311.188 C 325.266 311.188,336.167 299.920,336.167 298.481 C 336.167 298.345,336.391 297.985,336.665 297.682 C 337.914 296.303,340.680 290.047,341.535 286.672 C 341.784 285.685,342.103 284.693,342.243 284.467 C 342.564 283.948,343.339 279.114,343.827 274.588 C 344.397 269.306,343.670 261.064,342.527 259.844 C 341.851 259.121,297.313 258.882,295.924 259.594 L 295.056 260.037 294.964 269.434 C 294.882 277.854,294.932 278.880,295.451 279.311 C 295.911 279.694,298.586 279.827,308.552 279.965 L 321.075 280.139 321.187 280.921 C 321.248 281.351,320.896 282.552,320.406 283.588 C 319.916 284.625,319.514 285.554,319.514 285.653 C 319.514 285.874,318.283 287.690,316.969 289.405 C 314.378 292.789,308.512 296.335,303.495 297.551 C 300.059 298.383,292.526 298.534,289.726 297.826 C 286.521 297.015,283.364 295.900,282.713 295.348 C 282.412 295.092,282.013 294.883,281.827 294.883 C 281.640 294.883,280.950 294.493,280.293 294.017 C 279.636 293.541,278.708 292.884,278.231 292.558 C 267.384 285.143,263.525 267.734,269.990 255.385 C 273.385 248.902,278.798 243.955,285.250 241.440 C 292.890 238.462,301.891 239.004,308.720 242.854 C 311.347 244.335,311.512 244.447,312.764 245.586 C 314.500 247.166,314.602 247.100,322.176 239.511 C 330.142 231.529,329.972 231.970,326.193 229.081 C 321.492 225.487,320.213 224.741,313.790 221.847 C 312.594 221.308,308.986 220.244,305.464 219.391 C 302.785 218.742,290.982 218.387,288.465 218.879 M303.640 219.940 C 305.880 220.310,308.422 220.853,309.289 221.147 C 310.156 221.442,311.032 221.683,311.235 221.683 C 311.438 221.683,312.096 221.901,312.697 222.169 C 313.298 222.437,314.727 223.067,315.872 223.570 C 317.016 224.073,318.187 224.636,318.474 224.821 C 318.760 225.005,319.384 225.349,319.861 225.585 C 323.146 227.205,328.239 231.374,327.980 232.230 C 327.859 232.630,324.930 235.807,321.472 239.289 C 315.382 245.420,314.117 246.363,313.442 245.271 C 311.639 242.355,301.663 238.730,295.403 238.717 C 292.664 238.712,291.809 238.840,287.824 239.854 C 281.363 241.497,273.260 247.576,270.467 252.874 C 268.460 256.683,267.831 257.995,267.827 258.387 C 267.825 258.635,267.603 259.262,267.335 259.781 C 266.294 261.794,265.642 268.341,266.104 272.141 C 267.639 284.770,275.502 294.158,287.944 298.218 C 290.214 298.959,299.186 299.314,301.545 298.757 C 305.421 297.841,308.361 296.826,309.801 295.905 C 310.087 295.722,310.711 295.385,311.188 295.157 C 316.971 292.393,324.230 281.095,321.448 279.190 C 321.243 279.050,315.526 278.933,308.742 278.930 C 299.619 278.926,296.301 278.816,295.993 278.508 C 295.401 277.916,295.401 261.199,295.993 260.607 C 296.573 260.027,341.907 260.002,342.265 260.582 C 342.398 260.797,342.714 263.022,342.967 265.526 C 344.199 277.733,340.761 291.236,334.128 300.232 C 329.048 307.123,323.460 311.428,314.484 315.370 C 304.589 319.714,287.666 319.720,277.363 315.382 C 263.719 309.637,253.890 299.691,249.050 286.730 C 243.996 273.199,244.633 260.161,251.000 246.790 C 254.059 240.367,258.220 235.335,265.529 229.222 C 267.738 227.375,276.150 222.723,277.283 222.723 C 277.537 222.723,277.893 222.580,278.075 222.404 C 278.475 222.017,281.702 221.094,284.996 220.425 C 286.331 220.153,288.049 219.798,288.812 219.634 C 291.455 219.069,299.343 219.232,303.640 219.940 " stroke="none" fill="#81a9ef" fill-rule="evenodd"></path><path id="path4" d="M116.088 0.954 C 115.986 1.479,115.797 3.313,115.668 5.030 C 115.540 6.748,115.310 8.484,115.158 8.889 C 115.006 9.295,114.708 11.558,114.497 13.920 C 114.285 16.281,113.970 18.682,113.797 19.254 C 113.624 19.827,113.307 22.246,113.092 24.631 C 112.878 27.016,112.562 29.436,112.390 30.009 C 112.217 30.581,111.903 32.845,111.691 35.039 C 111.478 37.233,111.083 40.093,110.813 41.393 C 110.542 42.693,110.321 44.555,110.321 45.529 C 110.321 46.503,110.084 48.567,109.794 50.115 C 109.504 51.662,109.126 54.485,108.955 56.386 C 108.783 58.288,108.486 60.546,108.295 61.405 C 108.103 62.264,107.843 64.527,107.717 66.435 C 107.591 68.343,107.281 70.607,107.027 71.466 C 106.773 72.324,106.473 74.513,106.360 76.330 C 106.247 78.146,106.008 80.145,105.829 80.771 C 105.649 81.397,105.330 83.814,105.119 86.141 C 104.908 88.469,104.580 90.919,104.391 91.587 C 104.202 92.255,103.817 94.909,103.536 97.485 C 102.849 103.776,102.425 107.052,101.763 111.188 C 101.458 113.096,101.087 115.984,100.940 117.606 C 100.792 119.228,100.424 122.038,100.122 123.851 C 99.792 125.822,99.569 129.238,99.567 132.350 C 99.563 136.433,99.443 137.778,99.010 138.595 C 98.707 139.167,98.371 140.572,98.264 141.717 C 98.150 142.932,97.860 143.952,97.568 144.167 C 97.293 144.369,96.985 145.267,96.884 146.162 C 96.772 147.158,96.528 147.788,96.256 147.788 C 96.007 147.788,95.708 148.401,95.577 149.176 C 95.448 149.939,95.212 150.564,95.053 150.564 C 94.894 150.564,94.579 151.121,94.355 151.802 C 94.130 152.483,93.727 153.125,93.460 153.227 C 93.193 153.330,92.975 153.709,92.975 154.070 C 92.975 154.431,92.663 155.039,92.281 155.421 C 91.899 155.802,91.587 156.349,91.587 156.635 C 91.587 156.921,91.423 157.155,91.223 157.155 C 91.022 157.155,90.630 157.702,90.351 158.369 C 90.072 159.037,89.684 159.584,89.490 159.584 C 89.296 159.584,89.048 159.816,88.939 160.101 C 88.654 160.842,84.427 165.134,83.981 165.134 C 83.776 165.134,83.608 165.358,83.608 165.631 C 83.608 165.905,83.296 166.228,82.914 166.349 C 82.533 166.470,82.220 166.774,82.220 167.025 C 82.220 167.277,81.908 167.564,81.526 167.663 C 81.145 167.763,80.833 168.076,80.833 168.359 C 80.833 168.672,80.358 168.962,79.618 169.101 C 78.892 169.237,78.404 169.531,78.404 169.834 C 78.404 170.111,78.127 170.338,77.787 170.338 C 77.448 170.338,76.903 170.650,76.577 171.032 C 76.250 171.414,75.664 171.726,75.274 171.726 C 74.885 171.726,74.478 171.956,74.370 172.237 C 74.262 172.518,73.630 172.850,72.966 172.975 C 72.301 173.099,71.679 173.404,71.584 173.652 C 71.489 173.900,70.788 174.208,70.027 174.337 C 69.265 174.465,68.565 174.770,68.472 175.014 C 68.378 175.259,67.537 175.560,66.603 175.684 C 65.668 175.808,64.699 176.114,64.449 176.364 C 64.199 176.614,63.046 176.905,61.888 177.010 C 60.730 177.115,59.297 177.452,58.703 177.759 C 57.096 178.590,42.506 178.590,41.588 177.758 C 41.213 177.419,40.079 177.128,38.698 177.017 C 37.449 176.917,36.427 176.715,36.427 176.569 C 36.427 176.238,34.479 175.542,33.551 175.542 C 33.171 175.542,32.671 175.283,32.440 174.967 C 31.748 174.020,26.558 173.841,26.073 174.748 C 25.731 175.386,25.799 175.413,27.209 175.199 C 28.425 175.014,29.223 175.177,31.440 176.063 C 42.555 180.505,58.451 180.797,67.529 176.726 C 68.130 176.456,68.790 176.236,68.996 176.236 C 69.841 176.236,75.704 173.115,78.934 170.946 C 84.720 167.062,90.612 160.963,93.479 155.891 C 93.787 155.346,94.473 154.198,95.003 153.339 C 98.624 147.478,100.607 139.534,100.607 130.897 C 100.607 127.199,100.844 124.573,101.808 117.606 C 102.021 116.068,102.401 113.122,103.532 104.250 C 103.849 101.769,104.407 97.554,104.774 94.883 C 105.141 92.212,105.530 89.167,105.640 88.118 C 105.749 87.069,105.982 85.351,106.158 84.302 C 106.333 83.252,106.644 80.911,106.850 79.098 C 107.056 77.285,107.372 74.788,107.553 73.547 C 107.734 72.307,108.193 68.873,108.571 65.915 C 108.950 62.958,109.430 59.289,109.638 57.762 C 109.846 56.236,110.311 52.489,110.673 49.436 C 111.034 46.383,111.496 42.637,111.698 41.110 C 112.359 36.120,113.470 27.998,113.974 24.458 C 114.246 22.550,114.558 19.974,114.667 18.734 C 114.777 17.493,115.087 15.074,115.358 13.356 C 115.628 11.639,116.078 8.283,116.358 5.898 C 116.638 3.513,116.973 1.210,117.103 0.781 C 117.277 0.207,117.199 0.000,116.807 0.000 C 116.501 0.000,116.194 0.408,116.088 0.954 M200.277 68.951 C 200.396 137.762,200.398 137.907,201.127 140.676 C 202.549 146.078,204.797 151.980,205.959 153.366 C 206.211 153.668,206.418 154.020,206.418 154.150 C 206.418 155.717,213.651 164.551,217.571 167.772 C 220.074 169.829,226.931 174.501,227.446 174.501 C 227.590 174.501,228.343 174.799,229.119 175.162 C 233.059 177.007,236.931 178.175,243.018 179.353 C 246.768 180.078,252.464 180.177,255.334 179.566 C 256.765 179.261,258.478 179.012,259.140 179.012 C 261.527 179.011,269.469 176.267,273.894 173.913 C 278.019 171.719,281.577 169.076,285.009 165.657 C 287.770 162.908,292.108 157.799,292.108 157.297 C 292.108 157.153,292.328 156.790,292.599 156.489 C 293.380 155.616,296.484 149.247,297.514 146.401 C 298.481 143.730,298.832 142.526,299.439 139.809 C 299.882 137.826,299.857 127.115,299.403 124.566 C 299.214 123.505,298.899 121.154,298.702 119.341 C 298.505 117.528,298.197 115.265,298.016 114.310 C 297.836 113.356,297.523 110.937,297.321 108.933 C 297.119 106.930,296.801 104.354,296.613 103.209 C 296.426 102.064,295.881 97.927,295.403 94.016 C 294.925 90.104,294.382 85.967,294.196 84.822 C 294.010 83.677,293.690 81.180,293.485 79.271 C 293.279 77.363,292.963 75.022,292.783 74.068 C 292.602 73.114,292.225 70.132,291.944 67.443 C 291.663 64.753,291.354 62.333,291.258 62.065 C 291.162 61.798,290.937 60.173,290.759 58.456 C 290.432 55.319,289.626 49.101,288.959 44.579 C 288.762 43.244,288.379 40.121,288.107 37.641 C 287.836 35.160,287.456 32.194,287.264 31.049 C 287.071 29.905,286.519 25.846,286.037 22.029 C 285.556 18.213,285.008 13.998,284.821 12.663 C 284.634 11.327,284.324 9.111,284.131 7.739 C 283.939 6.367,283.781 4.668,283.781 3.963 C 283.781 2.389,283.097 0.000,282.645 0.000 C 282.252 0.000,282.590 3.628,283.292 6.938 C 283.554 8.179,283.772 10.120,283.775 11.252 C 283.779 12.384,284.008 14.180,284.285 15.242 C 284.561 16.304,284.954 19.101,285.158 21.457 C 285.362 23.813,285.661 25.999,285.822 26.314 C 285.983 26.629,286.215 28.364,286.337 30.171 C 286.460 31.978,286.788 34.866,287.067 36.589 C 287.345 38.312,287.726 41.049,287.913 42.671 C 288.100 44.293,288.412 46.713,288.605 48.049 C 289.265 52.591,290.671 63.509,291.443 70.078 C 291.633 71.700,292.095 74.981,292.469 77.370 C 292.842 79.759,293.148 82.510,293.148 83.484 C 293.148 84.458,293.360 85.860,293.618 86.600 C 293.876 87.339,294.194 89.584,294.325 91.587 C 294.457 93.591,294.780 96.167,295.044 97.311 C 295.308 98.456,295.608 100.775,295.710 102.465 C 295.812 104.155,296.127 106.887,296.410 108.536 C 296.693 110.186,297.103 113.018,297.321 114.831 C 297.538 116.644,297.920 119.668,298.169 121.553 C 298.448 123.664,298.551 126.623,298.437 129.263 C 298.276 133.000,298.324 133.575,298.813 133.763 C 299.308 133.953,299.314 134.040,298.864 134.490 C 298.499 134.855,298.352 135.791,298.352 137.752 C 298.352 139.974,298.228 140.627,297.705 141.150 C 297.279 141.576,297.002 142.479,296.893 143.794 C 296.779 145.167,296.547 145.892,296.152 146.113 C 295.790 146.316,295.577 146.878,295.577 147.632 C 295.577 148.367,295.309 149.097,294.883 149.523 C 294.501 149.905,294.189 150.529,294.189 150.911 C 294.189 151.292,293.877 151.917,293.495 152.298 C 293.114 152.680,292.801 153.309,292.801 153.697 C 292.801 154.085,292.577 154.488,292.302 154.593 C 292.028 154.699,291.703 155.240,291.581 155.797 C 291.459 156.353,291.137 156.808,290.866 156.808 C 290.595 156.808,290.373 157.125,290.373 157.513 C 290.373 157.901,290.159 158.300,289.898 158.400 C 289.637 158.500,288.916 159.366,288.295 160.324 C 287.674 161.282,286.951 162.149,286.688 162.250 C 286.425 162.351,286.210 162.594,286.210 162.790 C 286.210 163.225,284.760 164.604,283.993 164.898 C 283.686 165.016,283.435 165.334,283.435 165.603 C 283.435 165.873,283.122 166.176,282.741 166.276 C 282.359 166.376,282.047 166.706,282.047 167.010 C 282.047 167.314,281.813 167.563,281.526 167.563 C 281.240 167.563,280.709 167.860,280.346 168.222 C 279.984 168.585,279.359 168.986,278.959 169.113 C 278.558 169.240,278.231 169.568,278.231 169.841 C 278.231 170.115,277.990 170.338,277.696 170.338 C 277.402 170.338,276.826 170.650,276.416 171.032 C 276.007 171.414,275.384 171.726,275.032 171.726 C 274.680 171.726,274.305 171.956,274.197 172.237 C 274.089 172.518,273.469 172.848,272.820 172.969 C 272.171 173.091,271.639 173.394,271.639 173.642 C 271.639 173.897,271.044 174.194,270.271 174.324 C 269.519 174.452,268.731 174.764,268.519 175.019 C 268.308 175.273,267.358 175.589,266.409 175.719 C 265.460 175.850,264.490 176.149,264.254 176.385 C 264.019 176.621,262.969 176.915,261.922 177.039 C 260.845 177.166,259.850 177.493,259.632 177.791 C 258.963 178.705,242.564 178.559,241.032 177.625 C 240.253 177.150,239.282 176.932,237.944 176.931 C 236.680 176.930,235.847 176.756,235.582 176.436 C 235.357 176.165,234.566 175.841,233.825 175.716 C 233.084 175.590,232.293 175.266,232.068 174.995 C 231.843 174.723,231.308 174.501,230.880 174.501 C 230.452 174.501,229.730 174.213,229.275 173.860 C 228.820 173.508,228.029 173.117,227.518 172.993 C 227.006 172.868,226.354 172.532,226.068 172.246 C 225.782 171.960,225.308 171.726,225.015 171.726 C 224.722 171.726,224.315 171.414,224.111 171.032 C 223.907 170.650,223.457 170.338,223.112 170.338 C 222.766 170.338,222.201 170.026,221.856 169.644 C 221.511 169.263,221.018 168.951,220.761 168.951 C 220.505 168.951,220.295 168.716,220.295 168.430 C 220.295 168.144,220.162 167.910,219.999 167.910 C 219.836 167.910,219.302 167.559,218.813 167.129 C 218.324 166.700,217.326 165.913,216.594 165.381 C 215.863 164.848,214.874 163.861,214.397 163.185 C 213.920 162.510,212.974 161.385,212.296 160.684 C 211.617 159.983,210.958 159.137,210.832 158.803 C 210.706 158.469,210.454 158.196,210.273 158.196 C 210.091 158.196,209.842 157.741,209.720 157.184 C 209.598 156.628,209.273 156.086,208.999 155.981 C 208.724 155.876,208.500 155.510,208.500 155.168 C 208.500 154.826,208.187 154.352,207.806 154.113 C 207.363 153.837,207.112 153.304,207.112 152.642 C 207.112 151.965,206.936 151.605,206.607 151.605 C 206.303 151.605,206.010 151.111,205.870 150.363 C 205.741 149.680,205.425 149.040,205.167 148.941 C 204.909 148.842,204.595 147.982,204.469 147.031 C 204.343 146.079,204.038 145.224,203.792 145.129 C 203.526 145.027,203.248 144.021,203.106 142.644 C 202.975 141.371,202.644 140.075,202.372 139.764 C 201.525 138.798,201.410 130.628,201.306 63.920 C 201.218 7.127,201.148 0.000,200.682 0.000 C 200.215 0.000,200.170 7.570,200.277 68.951 M40.718 1.207 C 40.425 1.970,40.747 2.208,41.251 1.600 C 41.535 1.258,41.550 1.032,41.298 0.876 C 41.097 0.752,40.836 0.901,40.718 1.207 M33.734 6.129 C 32.853 6.484,32.568 7.540,33.365 7.498 C 33.780 7.475,34.216 7.124,34.381 6.678 C 34.670 5.897,34.554 5.799,33.734 6.129 M29.373 12.027 C 28.951 12.448,29.133 12.818,29.662 12.615 C 29.948 12.505,30.182 12.276,30.182 12.105 C 30.182 11.741,29.704 11.695,29.373 12.027 M26.250 19.659 C 25.930 19.980,25.960 20.815,26.292 20.815 C 26.442 20.815,26.589 20.503,26.618 20.121 C 26.674 19.376,26.612 19.298,26.250 19.659 M373.981 23.012 C 373.981 23.267,374.200 23.475,374.468 23.475 C 374.736 23.475,374.876 23.267,374.778 23.012 C 374.680 22.758,374.461 22.550,374.291 22.550 C 374.120 22.550,373.981 22.758,373.981 23.012 M25.080 24.598 C 24.736 25.149,24.760 25.245,25.228 25.176 C 25.536 25.131,25.826 24.834,25.873 24.516 C 25.986 23.742,25.589 23.783,25.080 24.598 M23.829 29.848 C 23.507 30.307,23.246 31.078,23.249 31.560 C 23.253 32.228,23.330 32.317,23.573 31.933 C 23.748 31.656,23.800 31.281,23.688 31.100 C 23.576 30.919,23.759 30.570,24.094 30.325 C 24.430 30.080,24.639 29.684,24.559 29.445 C 24.468 29.170,24.201 29.317,23.829 29.848 M21.380 39.842 C 20.733 40.562,20.810 41.631,21.509 41.631 C 21.995 41.631,22.286 40.827,22.144 39.881 L 22.029 39.121 21.380 39.842 M19.961 45.310 C 19.533 45.738,19.496 45.978,19.802 46.347 C 20.348 47.005,20.819 46.630,20.734 45.603 C 20.651 44.596,20.668 44.602,19.961 45.310 M18.271 50.535 C 18.144 50.662,18.040 51.130,18.040 51.576 C 18.040 52.561,18.911 52.657,19.409 51.725 C 19.715 51.155,19.662 51.092,19.016 51.261 C 18.425 51.415,18.316 51.336,18.491 50.880 C 18.725 50.270,18.652 50.154,18.271 50.535 M18.040 56.531 C 18.040 56.805,17.774 56.906,17.346 56.795 C 16.895 56.677,16.652 56.784,16.652 57.101 C 16.652 57.369,16.867 57.589,17.130 57.589 C 17.713 57.589,18.572 56.618,18.263 56.308 C 18.140 56.186,18.040 56.286,18.040 56.531 M14.409 66.628 C 14.531 66.825,14.425 67.253,14.173 67.578 C 13.824 68.029,13.900 68.012,14.490 67.509 C 15.412 66.723,15.408 66.738,14.726 66.476 C 14.405 66.353,14.277 66.414,14.409 66.628 M387.229 74.957 C 387.312 75.207,387.586 75.480,387.836 75.564 C 388.096 75.650,388.226 75.520,388.140 75.260 C 388.056 75.010,387.783 74.737,387.533 74.653 C 387.272 74.566,387.142 74.696,387.229 74.957 M11.865 76.392 C 11.121 77.136,11.333 78.144,12.142 77.710 C 12.524 77.506,12.836 77.032,12.836 76.657 C 12.836 75.882,12.474 75.783,11.865 76.392 M388.552 80.128 C 388.552 80.563,388.776 80.773,389.207 80.740 C 389.932 80.686,389.822 79.954,389.045 79.656 C 388.725 79.533,388.552 79.699,388.552 80.128 M10.420 81.504 C 9.964 82.356,9.957 83.261,10.408 83.261 C 10.598 83.261,10.736 83.144,10.713 83.001 C 10.578 82.141,10.806 81.171,11.101 81.353 C 11.292 81.471,11.448 81.402,11.448 81.200 C 11.448 80.595,10.805 80.785,10.420 81.504 M9.226 87.039 C 8.827 87.481,8.732 87.771,8.987 87.771 C 9.222 87.771,9.301 87.963,9.165 88.205 C 9.031 88.443,9.193 88.384,9.525 88.072 C 9.856 87.761,10.073 87.236,10.007 86.906 C 9.900 86.368,9.819 86.382,9.226 87.039 M391.327 90.893 C 391.327 91.348,391.495 91.501,391.847 91.366 C 392.134 91.256,392.368 91.043,392.368 90.893 C 392.368 90.743,392.134 90.531,391.847 90.421 C 391.495 90.286,391.327 90.438,391.327 90.893 M7.642 92.429 C 7.197 93.600,7.191 94.016,7.621 94.016 C 7.806 94.016,7.857 93.754,7.735 93.435 C 7.573 93.015,7.655 92.909,8.032 93.054 C 8.388 93.191,8.537 93.048,8.504 92.601 C 8.424 91.516,8.020 91.435,7.642 92.429 M6.420 97.134 C 6.299 97.331,6.438 97.389,6.747 97.270 C 7.090 97.139,7.285 97.258,7.285 97.598 C 7.285 97.892,6.934 98.244,6.505 98.380 C 5.752 98.620,5.749 98.637,6.418 98.876 C 7.211 99.160,7.619 98.719,7.627 97.572 C 7.632 96.780,6.821 96.486,6.420 97.134 M2.284 112.279 C 1.963 113.116,2.044 113.387,2.592 113.307 C 3.295 113.204,3.699 112.751,3.093 112.744 C 2.692 112.740,2.687 112.685,3.065 112.445 C 3.441 112.207,3.430 112.115,3.007 111.952 C 2.714 111.840,2.397 111.983,2.284 112.279 M1.124 116.561 C 0.526 117.519,0.587 117.778,1.279 117.215 C 1.793 116.797,1.836 116.815,1.630 117.364 C 1.489 117.740,1.533 117.905,1.739 117.777 C 2.138 117.530,2.208 115.872,1.818 115.872 C 1.673 115.872,1.361 116.182,1.124 116.561 M399.306 122.984 C 399.306 123.270,399.462 123.504,399.653 123.504 C 399.844 123.504,400.000 123.270,400.000 122.984 C 400.000 122.697,399.844 122.463,399.653 122.463 C 399.462 122.463,399.306 122.697,399.306 122.984 M0.000 133.738 C 0.000 134.286,0.196 134.605,0.531 134.605 C 1.256 134.605,1.603 133.567,1.005 133.188 C 0.224 132.694,0.000 132.816,0.000 133.738 M0.803 143.712 C 0.782 144.141,0.840 144.297,0.932 144.059 C 1.023 143.820,1.329 143.625,1.611 143.625 C 1.892 143.625,2.026 143.469,1.908 143.278 C 1.520 142.650,0.842 142.916,0.803 143.712 M3.816 153.008 C 3.816 153.629,4.713 153.983,4.758 153.379 C 4.784 153.039,4.583 152.761,4.311 152.761 C 4.039 152.761,3.816 152.872,3.816 153.008 M6.586 156.028 C 6.582 156.547,6.532 156.559,6.245 156.114 C 5.973 155.694,5.907 155.743,5.903 156.375 C 5.900 156.804,6.015 157.137,6.158 157.114 C 6.811 157.011,7.070 157.193,6.649 157.459 C 6.272 157.698,6.282 157.789,6.702 157.950 C 7.157 158.125,7.249 157.654,6.925 156.808 C 6.888 156.713,6.886 156.362,6.920 156.028 C 6.954 155.694,6.894 155.421,6.787 155.421 C 6.679 155.421,6.589 155.694,6.586 156.028 M8.940 160.939 C 9.136 161.474,9.691 161.996,10.074 162.007 C 10.728 162.025,10.243 160.674,9.548 160.541 C 8.918 160.421,8.782 160.510,8.940 160.939 M16.560 168.982 C 16.804 169.914,17.316 170.159,17.252 169.314 C 17.223 168.933,17.016 168.551,16.792 168.465 C 16.534 168.366,16.448 168.556,16.560 168.982 M382.394 168.833 C 381.886 169.038,381.804 169.991,382.295 169.991 C 382.479 169.991,382.797 169.679,383.001 169.297 C 383.370 168.608,383.225 168.498,382.394 168.833 M23.067 172.425 C 22.947 172.619,22.717 172.697,22.556 172.597 C 22.395 172.498,22.301 172.669,22.346 172.977 C 22.437 173.593,23.520 174.340,23.848 174.013 C 23.961 173.900,23.893 173.807,23.697 173.807 C 23.500 173.807,23.415 173.417,23.506 172.940 C 23.675 172.052,23.456 171.795,23.067 172.425 M292.541 218.471 C 294.020 218.536,296.440 218.536,297.918 218.471 C 299.397 218.406,298.187 218.353,295.230 218.353 C 292.272 218.353,291.062 218.406,292.541 218.471 M286.036 218.808 C 285.655 218.899,285.186 219.132,284.996 219.324 C 284.763 219.559,285.047 219.585,285.863 219.403 C 286.531 219.254,287.702 219.023,288.465 218.890 L 289.853 218.647 288.291 218.644 C 287.433 218.642,286.418 218.716,286.036 218.808 M301.995 218.765 C 302.567 218.852,304.083 219.169,305.363 219.470 C 306.643 219.770,307.891 219.935,308.138 219.836 C 308.385 219.737,308.188 219.643,307.702 219.628 C 307.215 219.613,306.654 219.438,306.454 219.238 C 306.255 219.039,304.936 218.815,303.523 218.741 C 302.110 218.667,301.422 218.678,301.995 218.765 M280.118 220.457 C 279.584 220.862,279.556 220.969,279.983 220.978 C 280.278 220.984,280.669 220.848,280.850 220.675 C 281.031 220.503,281.492 220.287,281.873 220.195 C 282.433 220.061,282.396 220.021,281.679 219.988 C 281.191 219.966,280.489 220.177,280.118 220.457 M309.754 220.482 C 311.243 221.129,311.906 221.116,311.035 220.457 C 310.665 220.177,309.962 219.954,309.474 219.962 C 308.643 219.974,308.661 220.008,309.754 220.482 M276.343 221.867 C 275.973 222.147,275.405 222.376,275.081 222.376 C 274.415 222.376,272.625 223.735,273.267 223.753 C 273.494 223.759,273.769 223.619,273.879 223.442 C 273.988 223.266,274.661 222.931,275.373 222.699 C 276.921 222.196,278.300 221.330,277.527 221.347 C 277.246 221.353,276.713 221.587,276.343 221.867 M313.811 221.845 C 314.692 222.511,315.207 222.518,314.657 221.856 C 314.420 221.570,313.981 221.336,313.681 221.336 C 313.246 221.336,313.271 221.437,313.811 221.845 M316.542 223.030 C 317.923 223.762,318.513 223.823,317.699 223.148 C 317.455 222.945,316.788 222.673,316.217 222.542 C 315.286 222.330,315.320 222.381,316.542 223.030 M270.851 224.458 C 270.366 224.840,269.883 225.152,269.779 225.152 C 269.674 225.152,268.996 225.545,268.272 226.025 C 267.548 226.506,266.657 227.091,266.291 227.326 C 265.926 227.561,265.352 228.015,265.017 228.335 C 264.681 228.654,264.082 229.089,263.686 229.301 C 263.290 229.513,262.966 229.856,262.966 230.063 C 262.966 230.270,263.630 229.907,264.441 229.256 C 266.341 227.730,269.145 225.782,270.252 225.219 C 272.251 224.201,272.852 223.774,272.293 223.769 C 271.985 223.766,271.336 224.076,270.851 224.458 M318.502 223.869 C 318.582 223.927,319.115 224.248,319.688 224.584 L 320.729 225.193 319.910 224.479 C 319.459 224.086,318.926 223.764,318.724 223.764 C 318.523 223.764,318.423 223.811,318.502 223.869 M321.883 225.932 C 322.512 226.362,323.720 227.227,324.567 227.856 C 325.413 228.485,326.106 228.842,326.106 228.649 C 326.106 228.456,325.755 228.114,325.325 227.889 C 324.896 227.663,324.420 227.268,324.267 227.009 C 324.115 226.751,323.827 226.539,323.628 226.539 C 323.429 226.539,322.869 226.227,322.384 225.846 C 321.899 225.464,321.330 225.152,321.120 225.152 C 320.910 225.152,321.253 225.503,321.883 225.932 M327.580 230.067 C 329.683 231.936,329.612 232.061,322.176 239.511 C 314.602 247.100,314.500 247.166,312.764 245.586 C 311.512 244.447,311.349 244.337,308.720 242.854 C 306.845 241.796,303.322 240.411,302.560 240.432 C 301.978 240.447,303.836 241.222,305.984 241.859 C 306.652 242.058,307.433 242.408,307.719 242.639 C 308.005 242.869,308.630 243.243,309.107 243.469 C 310.336 244.052,311.103 244.591,312.537 245.879 C 314.519 247.659,314.557 247.635,322.426 239.759 C 330.537 231.642,330.497 231.715,327.757 229.894 L 326.279 228.911 327.580 230.067 M259.750 232.917 C 258.371 234.326,256.852 235.982,256.375 236.596 C 255.898 237.211,255.274 237.958,254.989 238.257 C 254.489 238.782,254.330 239.023,253.297 240.808 C 252.624 241.971,253.220 241.294,255.171 238.682 C 256.097 237.441,258.180 235.061,259.800 233.391 C 261.419 231.722,262.635 230.356,262.502 230.356 C 262.368 230.356,261.130 231.508,259.750 232.917 M292.387 239.559 C 292.286 239.660,291.544 239.855,290.737 239.993 C 289.873 240.140,291.825 240.243,295.496 240.243 C 301.157 240.243,301.544 240.206,299.776 239.831 C 297.797 239.413,292.720 239.225,292.387 239.559 M286.210 241.140 C 284.437 241.917,285.658 241.792,287.771 240.980 C 288.544 240.683,288.851 240.449,288.465 240.451 C 288.083 240.453,287.069 240.763,286.210 241.140 M251.773 243.072 C 250.651 244.863,249.039 248.114,249.196 248.271 C 249.265 248.340,249.989 247.109,250.804 245.534 C 251.619 243.960,252.460 242.563,252.672 242.430 C 252.885 242.297,252.958 242.087,252.834 241.964 C 252.710 241.840,252.232 242.339,251.773 243.072 M282.556 242.611 C 280.715 243.603,279.369 244.579,279.841 244.579 C 280.049 244.579,280.616 244.267,281.101 243.886 C 281.586 243.504,282.114 243.191,282.275 243.189 C 282.436 243.188,283.036 242.877,283.608 242.498 C 284.983 241.587,284.323 241.658,282.556 242.611 M278.371 245.324 C 277.714 246.064,277.715 246.066,278.491 245.658 C 278.920 245.433,279.271 245.098,279.271 244.914 C 279.271 244.421,279.105 244.497,278.371 245.324 M275.422 247.971 C 272.584 250.936,272.061 251.600,272.786 251.322 C 273.109 251.198,273.374 250.957,273.374 250.787 C 273.374 250.616,274.324 249.527,275.484 248.367 C 276.645 247.206,277.534 246.195,277.459 246.121 C 277.385 246.046,276.468 246.879,275.422 247.971 M248.309 250.004 C 247.454 251.687,247.549 252.313,248.414 250.700 C 248.805 249.969,249.078 249.245,249.021 249.090 C 248.963 248.936,248.643 249.347,248.309 250.004 M271.493 252.702 C 271.192 253.195,270.708 253.990,270.417 254.467 C 270.113 254.966,270.043 255.334,270.252 255.334 C 270.452 255.334,270.779 254.905,270.978 254.381 C 271.177 253.856,271.589 253.153,271.893 252.817 C 272.196 252.482,272.354 252.117,272.243 252.006 C 272.132 251.895,271.795 252.208,271.493 252.702 M246.892 253.876 C 246.543 254.850,246.329 255.928,246.418 256.271 C 246.543 256.752,246.590 256.712,246.621 256.097 C 246.643 255.658,246.904 254.828,247.202 254.253 C 247.500 253.677,247.695 252.958,247.636 252.655 C 247.577 252.353,247.242 252.902,246.892 253.876 M268.944 257.470 C 268.519 258.293,267.142 262.557,267.134 263.073 C 267.118 264.080,267.846 262.611,268.178 260.965 C 268.400 259.872,268.810 258.616,269.091 258.175 C 269.372 257.734,269.548 257.212,269.482 257.015 C 269.416 256.818,269.174 257.023,268.944 257.470 M245.701 258.445 C 245.460 259.228,245.194 261.072,245.111 262.544 L 244.959 265.221 245.260 262.887 C 245.426 261.603,245.742 260.004,245.964 259.334 C 246.185 258.663,246.315 257.869,246.253 257.569 C 246.191 257.268,245.943 257.663,245.701 258.445 M295.307 259.343 C 294.208 260.113,294.083 278.754,295.170 279.738 C 295.736 280.250,297.162 280.312,308.330 280.312 L 320.856 280.312 321.016 281.266 C 321.168 282.173,321.173 282.168,321.126 281.180 L 321.075 280.139 308.552 279.965 C 298.586 279.827,295.911 279.694,295.451 279.311 C 294.932 278.880,294.882 277.854,294.964 269.434 L 295.056 260.037 295.924 259.594 C 297.171 258.955,341.705 259.114,342.483 259.759 C 343.102 260.273,343.720 263.734,344.141 269.037 C 344.438 272.776,344.440 272.754,344.264 267.934 C 344.067 262.566,343.815 260.971,342.958 259.663 L 342.395 258.803 319.237 258.803 C 298.838 258.803,295.986 258.867,295.307 259.343 M266.921 269.037 C 266.922 271.899,266.975 273.024,267.040 271.537 C 267.106 270.049,267.105 267.707,267.040 266.333 C 266.974 264.958,266.921 266.175,266.921 269.037 M245.135 275.768 C 245.231 277.597,245.521 279.425,245.796 279.931 C 246.393 281.030,246.439 280.603,245.923 278.751 C 245.711 277.988,245.408 276.271,245.251 274.935 C 244.990 272.724,244.980 272.799,245.135 275.768 M343.864 274.695 C 343.828 275.707,343.628 277.213,343.420 278.042 C 343.211 278.870,343.105 279.837,343.184 280.190 C 343.450 281.384,344.183 276.921,344.056 274.879 L 343.930 272.853 343.864 274.695 M267.157 274.808 C 267.142 275.120,267.357 275.901,267.636 276.543 C 267.983 277.343,268.142 277.492,268.141 277.016 C 268.138 276.142,267.196 274.027,267.157 274.808 M269.280 281.266 C 270.949 285.061,275.306 290.559,278.231 292.558 C 278.708 292.884,279.636 293.541,280.293 294.017 C 280.950 294.493,281.640 294.883,281.827 294.883 C 282.013 294.883,282.412 295.089,282.713 295.341 C 283.383 295.900,286.273 297.017,286.490 296.800 C 286.576 296.714,286.197 296.466,285.648 296.250 C 279.705 293.907,273.054 288.329,271.195 284.128 C 270.984 283.651,270.627 283.027,270.402 282.741 C 270.177 282.454,269.804 281.635,269.575 280.919 C 269.345 280.204,269.022 279.618,268.856 279.618 C 268.691 279.618,268.882 280.360,269.280 281.266 M246.338 282.047 C 246.338 282.524,246.639 283.539,247.008 284.302 C 247.879 286.105,247.885 285.479,247.020 283.074 C 246.567 281.813,246.339 281.469,246.338 282.047 M320.208 283.088 C 319.986 283.502,319.883 283.919,319.978 284.014 C 320.074 284.110,320.333 283.849,320.555 283.435 C 320.777 283.020,320.880 282.603,320.785 282.508 C 320.689 282.412,320.430 282.673,320.208 283.088 M342.151 284.526 C 341.555 286.191,341.630 286.942,342.273 285.756 C 342.563 285.221,342.752 284.452,342.693 284.048 C 342.605 283.454,342.502 283.545,342.151 284.526 M318.002 287.314 C 316.410 289.695,313.872 292.309,312.169 293.322 C 309.154 295.115,308.154 295.620,307.002 295.930 C 306.267 296.128,305.573 296.441,305.458 296.627 C 305.343 296.813,304.829 296.986,304.316 297.012 C 303.538 297.051,303.508 297.083,304.137 297.206 C 304.855 297.346,306.327 296.803,309.801 295.119 C 311.835 294.133,315.721 291.036,316.969 289.405 C 318.623 287.246,319.556 285.789,319.392 285.625 C 319.306 285.539,318.681 286.299,318.002 287.314 M247.711 286.286 C 247.706 286.614,247.992 287.473,248.346 288.194 C 248.700 288.915,249.436 290.481,249.982 291.674 C 250.527 292.866,251.094 293.842,251.240 293.842 C 251.387 293.842,251.202 293.257,250.830 292.541 C 250.457 291.826,249.605 289.991,248.936 288.465 C 248.267 286.938,247.716 285.958,247.711 286.286 M341.094 288.183 C 340.295 290.535,340.272 290.926,341.024 289.395 C 341.428 288.571,341.711 287.664,341.651 287.379 C 341.592 287.093,341.342 287.455,341.094 288.183 M339.540 292.265 C 338.731 293.960,338.795 294.263,339.672 292.893 C 340.068 292.276,340.334 291.600,340.264 291.391 C 340.195 291.182,339.869 291.575,339.540 292.265 M251.518 294.384 C 251.518 294.542,251.946 295.305,252.470 296.078 C 256.910 302.635,261.463 307.409,266.298 310.579 C 267.232 311.191,268.203 311.891,268.455 312.134 C 268.707 312.377,269.095 312.576,269.317 312.576 C 269.540 312.576,269.207 312.225,268.577 311.795 C 263.332 308.216,259.394 304.679,256.352 300.813 C 255.211 299.364,254.147 298.013,253.986 297.810 C 253.825 297.607,253.493 297.061,253.248 296.596 C 252.658 295.478,251.518 294.019,251.518 294.384 M337.716 295.921 C 336.035 298.868,335.985 298.949,335.503 299.529 C 335.249 299.836,335.190 300.087,335.372 300.087 C 335.554 300.087,335.924 299.657,336.194 299.133 C 336.465 298.608,336.881 298.054,337.120 297.901 C 337.359 297.749,337.554 297.418,337.554 297.167 C 337.554 296.916,337.879 296.298,338.276 295.794 C 338.673 295.289,338.941 294.705,338.871 294.497 C 338.801 294.288,338.281 294.929,337.716 295.921 M290.026 297.827 C 292.166 298.532,299.691 298.530,301.821 297.824 L 303.382 297.306 301.301 297.569 C 298.636 297.905,292.835 297.907,290.373 297.572 L 288.465 297.312 290.026 297.827 M334.104 301.523 C 332.115 304.213,324.733 311.188,323.875 311.188 C 323.762 311.188,322.930 311.709,322.024 312.345 C 321.119 312.982,320.145 313.594,319.859 313.705 C 319.423 313.877,319.430 313.913,319.901 313.936 C 320.209 313.951,320.858 313.651,321.344 313.270 C 321.829 312.888,322.311 312.576,322.416 312.576 C 323.885 312.576,333.229 303.826,334.919 300.867 C 335.386 300.050,334.910 300.433,334.104 301.523 M270.550 313.250 C 271.001 313.643,271.547 313.961,271.764 313.958 C 272.178 313.953,271.602 313.494,270.425 312.892 C 269.880 312.613,269.906 312.689,270.550 313.250 M272.787 314.467 C 273.064 314.744,273.738 315.072,274.286 315.196 C 275.125 315.386,275.066 315.307,273.908 314.693 C 272.281 313.830,272.117 313.797,272.787 314.467 M317.785 314.677 C 317.120 315.048,316.830 315.351,317.140 315.351 C 317.449 315.351,318.071 315.044,318.522 314.669 C 319.550 313.813,319.332 313.815,317.785 314.677 M275.802 315.872 C 276.040 316.158,276.479 316.392,276.778 316.392 C 277.214 316.392,277.188 316.290,276.649 315.883 C 275.768 315.216,275.253 315.210,275.802 315.872 M315.198 315.883 C 314.659 316.290,314.633 316.392,315.069 316.392 C 315.368 316.392,315.808 316.158,316.045 315.872 C 316.595 315.210,316.079 315.216,315.198 315.883 M279.425 317.270 C 279.795 317.550,280.419 317.779,280.812 317.778 C 281.410 317.776,281.364 317.691,280.533 317.257 C 279.264 316.595,278.544 316.604,279.425 317.270 M311.691 317.052 C 311.510 317.224,311.049 317.441,310.668 317.532 C 310.108 317.667,310.146 317.707,310.862 317.739 C 311.350 317.762,312.052 317.550,312.423 317.270 C 312.958 316.866,312.985 316.759,312.559 316.750 C 312.263 316.744,311.873 316.880,311.691 317.052 M283.613 318.415 C 283.806 318.624,284.899 318.874,286.041 318.970 C 287.640 319.105,287.839 319.077,286.904 318.848 C 283.923 318.119,283.258 318.032,283.613 318.415 M306.610 318.310 C 306.510 318.411,305.742 318.641,304.905 318.821 C 303.426 319.140,303.441 319.145,305.427 319.005 C 307.363 318.868,309.113 318.127,307.499 318.127 C 307.111 318.127,306.711 318.209,306.610 318.310 M291.825 319.630 C 293.673 319.788,296.952 319.786,299.110 319.624 C 302.784 319.348,302.569 319.329,295.750 319.335 C 289.385 319.340,288.889 319.377,291.825 319.630 M373.981 324.718 C 373.981 325.841,374.014 325.875,374.576 325.313 C 375.137 324.751,375.137 324.685,374.576 324.123 C 374.014 323.562,373.981 323.595,373.981 324.718 M26.541 326.455 C 26.888 326.838,27.246 327.076,27.338 326.984 C 27.572 326.751,26.706 325.759,26.270 325.759 C 26.073 325.759,26.195 326.072,26.541 326.455 " stroke="none" fill="#7293e3" fill-rule="evenodd"></path></g></svg>