<svg id="svg" version="1.1" xmlns="http://www.w3.org/2000/svg" xmlns:xlink="http://www.w3.org/1999/xlink" width="400" height="462.77450455275846" viewBox="0, 0, 400,462.77450455275846"><g id="svgg"><path id="path0" d="M335.246 8.573 C 310.204 11.443,289.981 31.439,287.318 55.964 C 287.005 58.843,287.001 399.511,287.314 402.999 C 290.040 433.414,311.611 454.328,340.225 454.300 C 368.295 454.273,388.716 435.580,392.765 406.207 L 393.251 402.678 393.251 230.745 C 393.251 90.693,393.199 58.394,392.972 56.561 C 389.809 31.097,372.417 12.687,347.938 8.891 C 345.307 8.483,337.697 8.293,335.246 8.573 " stroke="none" fill="#fcac04" fill-rule="evenodd"></path><path id="path1" d="M196.251 178.385 C 171.473 181.389,152.967 198.590,148.219 223.032 L 147.740 225.495 147.696 313.230 C 147.671 365.095,147.733 401.752,147.849 402.892 C 150.991 433.796,172.043 454.297,200.643 454.304 C 226.896 454.310,247.264 437.398,252.486 411.258 C 253.882 404.269,253.776 412.131,253.776 315.265 L 253.776 227.638 253.288 224.580 C 249.379 200.065,232.818 182.887,209.224 178.871 C 206.732 178.447,198.335 178.133,196.251 178.385 M55.276 348.391 C 15.869 352.889,-4.963 397.981,17.164 430.887 C 39.985 464.827,91.065 461.294,109.067 424.531 C 127.429 387.034,96.782 343.654,55.276 348.391 " stroke="none" fill="#e47404" fill-rule="evenodd"></path><path id="path2" d="M339.320 8.299 C 339.824 8.344,340.595 8.343,341.034 8.297 C 341.473 8.251,341.061 8.214,340.118 8.215 C 339.175 8.216,338.816 8.253,339.320 8.299 M335.675 8.507 C 335.941 8.558,336.327 8.556,336.532 8.503 C 336.737 8.449,336.518 8.407,336.047 8.410 C 335.576 8.412,335.408 8.456,335.675 8.507 M344.245 8.507 C 344.511 8.558,344.897 8.556,345.102 8.503 C 345.306 8.449,345.088 8.407,344.617 8.410 C 344.146 8.412,343.978 8.456,344.245 8.507 M377.397 23.567 C 378.571 24.746,379.580 25.710,379.638 25.710 C 379.697 25.710,378.785 24.746,377.611 23.567 C 376.437 22.389,375.428 21.425,375.370 21.425 C 375.311 21.425,376.223 22.389,377.397 23.567 M302.621 24.264 L 300.482 26.460 302.678 24.321 C 304.718 22.335,304.972 22.067,304.817 22.067 C 304.785 22.067,303.797 23.056,302.621 24.264 M296.304 31.709 C 296.053 32.062,295.895 32.351,295.954 32.351 C 296.013 32.351,296.267 32.062,296.518 31.709 C 296.770 31.355,296.928 31.066,296.869 31.066 C 296.810 31.066,296.556 31.355,296.304 31.709 M292.330 38.370 C 292.142 38.735,292.026 39.071,292.072 39.117 C 292.119 39.164,292.317 38.866,292.513 38.455 C 292.954 37.531,292.801 37.460,292.330 38.370 M391.999 50.670 C 392.071 51.141,392.165 51.567,392.208 51.616 C 392.371 51.800,392.249 50.652,392.063 50.241 C 391.928 49.942,391.908 50.072,391.999 50.670 M287.146 56.454 C 287.148 56.926,287.192 57.093,287.243 56.827 C 287.294 56.560,287.292 56.174,287.239 55.970 C 287.185 55.765,287.143 55.983,287.146 56.454 M392.980 56.776 C 392.980 57.188,393.024 57.357,393.078 57.151 C 393.131 56.944,393.131 56.607,393.078 56.401 C 393.024 56.194,392.980 56.363,392.980 56.776 M286.984 229.245 C 286.984 323.337,287.008 361.829,287.038 314.783 C 287.068 267.737,287.068 190.753,287.038 143.706 C 287.008 96.660,286.984 135.153,286.984 229.245 M393.202 59.132 C 393.202 59.663,393.244 59.879,393.295 59.614 C 393.346 59.349,393.346 58.915,393.295 58.650 C 393.244 58.385,393.202 58.602,393.202 59.132 M393.465 230.209 C 393.465 322.710,393.489 360.520,393.519 314.230 C 393.549 267.940,393.549 192.257,393.519 146.046 C 393.489 99.834,393.465 137.708,393.465 230.209 M199.633 178.198 C 200.375 178.240,201.531 178.240,202.204 178.198 C 202.877 178.155,202.271 178.121,200.857 178.121 C 199.443 178.122,198.892 178.157,199.633 178.198 M195.771 178.405 C 196.038 178.457,196.423 178.455,196.628 178.401 C 196.833 178.347,196.615 178.306,196.144 178.308 C 195.672 178.310,195.505 178.354,195.771 178.405 M205.198 178.405 C 205.465 178.457,205.850 178.455,206.055 178.401 C 206.260 178.347,206.042 178.306,205.570 178.308 C 205.099 178.310,204.931 178.354,205.198 178.405 M177.343 183.731 C 176.784 184.023,176.326 184.309,176.326 184.368 C 176.326 184.463,178.447 183.461,178.665 183.263 C 178.930 183.021,178.233 183.268,177.343 183.731 M224.960 183.920 C 224.960 183.979,225.249 184.177,225.603 184.360 C 225.956 184.543,226.245 184.644,226.245 184.585 C 226.245 184.526,225.956 184.328,225.603 184.146 C 225.249 183.963,224.960 183.862,224.960 183.920 M235.458 190.962 C 235.458 190.998,235.771 191.312,236.154 191.658 L 236.851 192.287 236.221 191.591 C 235.635 190.942,235.458 190.796,235.458 190.962 M163.145 194.162 L 161.007 196.358 163.203 194.219 C 164.411 193.043,165.399 192.055,165.399 192.023 C 165.399 191.868,165.132 192.122,163.145 194.162 M239.850 195.394 C 240.310 195.865,240.735 196.251,240.794 196.251 C 240.853 196.251,240.525 195.865,240.064 195.394 C 239.604 194.922,239.179 194.537,239.120 194.537 C 239.061 194.537,239.390 194.922,239.850 195.394 M247.713 206.851 C 247.970 207.379,248.216 207.774,248.261 207.729 C 248.358 207.632,247.492 205.892,247.347 205.892 C 247.292 205.892,247.457 206.324,247.713 206.851 M147.666 226.674 C 147.666 227.086,147.710 227.255,147.764 227.049 C 147.818 226.843,147.818 226.505,147.764 226.299 C 147.710 226.093,147.666 226.261,147.666 226.674 M253.776 315.372 C 253.776 363.626,253.839 402.576,253.916 401.928 C 254.101 400.358,254.107 229.839,253.921 228.602 C 253.841 228.072,253.776 267.118,253.776 315.372 M147.508 313.980 C 147.508 360.996,147.533 380.198,147.563 356.651 C 147.593 333.104,147.593 294.636,147.563 271.166 C 147.533 247.697,147.508 266.963,147.508 313.980 M59.838 348.097 C 60.757 348.138,62.203 348.137,63.052 348.097 C 63.901 348.056,63.149 348.023,61.382 348.024 C 59.614 348.024,58.920 348.057,59.838 348.097 M55.758 348.300 C 55.964 348.354,56.302 348.354,56.508 348.300 C 56.714 348.246,56.545 348.202,56.133 348.202 C 55.720 348.202,55.552 348.246,55.758 348.300 M66.151 348.304 C 66.418 348.355,66.804 348.353,67.008 348.299 C 67.213 348.246,66.995 348.204,66.524 348.206 C 66.052 348.209,65.885 348.252,66.151 348.304 M37.440 353.523 C 36.998 353.756,36.636 353.995,36.636 354.053 C 36.636 354.149,38.329 353.358,38.547 353.161 C 38.793 352.937,38.150 353.148,37.440 353.523 M85.913 354.033 C 85.913 354.092,86.202 354.290,86.556 354.472 C 86.909 354.655,87.199 354.757,87.199 354.698 C 87.199 354.639,86.909 354.441,86.556 354.258 C 86.202 354.075,85.913 353.974,85.913 354.033 M25.484 361.810 L 24.746 362.614 25.549 361.875 C 25.991 361.469,26.352 361.108,26.352 361.072 C 26.352 360.908,26.171 361.063,25.484 361.810 M98.768 363.471 C 99.408 364.119,99.980 364.649,100.039 364.649 C 100.098 364.649,99.622 364.119,98.982 363.471 C 98.342 362.823,97.770 362.292,97.711 362.292 C 97.653 362.292,98.128 362.823,98.768 363.471 M21.733 365.560 L 21.103 366.256 21.800 365.627 C 22.183 365.281,22.496 364.967,22.496 364.930 C 22.496 364.765,22.319 364.911,21.733 365.560 M100.696 365.573 C 100.696 365.610,101.010 365.923,101.393 366.270 L 102.089 366.899 101.460 366.202 C 100.873 365.553,100.696 365.408,100.696 365.573 M112.396 386.395 C 112.573 387.183,112.695 387.354,112.691 386.806 C 112.689 386.580,112.590 386.251,112.470 386.074 C 112.311 385.839,112.291 385.926,112.396 386.395 M114.248 396.036 C 114.250 396.508,114.294 396.675,114.345 396.409 C 114.397 396.142,114.395 395.757,114.341 395.552 C 114.287 395.347,114.246 395.565,114.248 396.036 M8.195 396.893 C 8.198 397.365,8.242 397.532,8.293 397.266 C 8.344 396.999,8.342 396.614,8.289 396.409 C 8.235 396.204,8.193 396.422,8.195 396.893 M114.495 401.178 C 114.495 403.064,114.528 403.806,114.568 402.829 C 114.607 401.851,114.607 400.308,114.567 399.401 C 114.527 398.493,114.495 399.293,114.495 401.178 M8.002 401.285 C 8.002 402.287,8.039 402.697,8.084 402.196 C 8.129 401.695,8.129 400.876,8.084 400.375 C 8.039 399.874,8.002 400.284,8.002 401.285 M393.208 401.500 C 393.208 402.148,393.248 402.413,393.298 402.089 C 393.347 401.765,393.347 401.235,393.298 400.911 C 393.248 400.587,393.208 400.852,393.208 401.500 M147.671 402.035 C 147.673 402.507,147.717 402.674,147.768 402.408 C 147.819 402.141,147.817 401.756,147.764 401.551 C 147.710 401.346,147.668 401.564,147.671 402.035 M287.150 402.357 C 287.150 402.887,287.192 403.104,287.243 402.839 C 287.294 402.574,287.294 402.140,287.243 401.875 C 287.192 401.610,287.150 401.826,287.150 402.357 M147.880 404.285 C 147.880 404.697,147.925 404.866,147.978 404.660 C 148.032 404.454,148.032 404.116,147.978 403.910 C 147.925 403.704,147.880 403.873,147.880 404.285 M392.980 404.285 C 392.980 404.697,393.024 404.866,393.078 404.660 C 393.131 404.454,393.131 404.116,393.078 403.910 C 393.024 403.704,392.980 403.873,392.980 404.285 M253.504 404.713 C 253.504 405.126,253.549 405.295,253.602 405.088 C 253.656 404.882,253.656 404.545,253.602 404.339 C 253.549 404.132,253.504 404.301,253.504 404.713 M287.356 404.713 C 287.356 405.126,287.400 405.295,287.454 405.088 C 287.507 404.882,287.507 404.545,287.454 404.339 C 287.400 404.132,287.356 404.301,287.356 404.713 M8.200 405.570 C 8.200 406.101,8.242 406.318,8.293 406.052 C 8.344 405.787,8.344 405.354,8.293 405.088 C 8.242 404.823,8.200 405.040,8.200 405.570 M114.244 406.427 C 114.244 406.840,114.288 407.009,114.342 406.802 C 114.395 406.596,114.395 406.259,114.342 406.052 C 114.288 405.846,114.244 406.015,114.244 406.427 M392.099 410.391 C 392.081 410.627,392.017 411.061,391.957 411.355 L 391.847 411.891 392.076 411.365 C 392.202 411.076,392.266 410.642,392.218 410.401 C 392.133 409.974,392.130 409.974,392.099 410.391 M112.388 415.977 C 112.309 416.291,112.286 416.589,112.337 416.639 C 112.387 416.690,112.493 416.474,112.572 416.160 C 112.651 415.846,112.674 415.548,112.623 415.498 C 112.573 415.447,112.467 415.663,112.388 415.977 M388.814 421.752 C 388.748 421.984,388.628 422.367,388.548 422.603 C 388.469 422.839,388.560 422.761,388.752 422.430 C 388.944 422.098,389.063 421.715,389.017 421.578 C 388.972 421.441,388.880 421.519,388.814 421.752 M108.881 424.965 C 108.625 425.492,108.460 425.924,108.515 425.924 C 108.660 425.924,109.526 424.184,109.429 424.087 C 109.384 424.042,109.137 424.437,108.881 424.965 M153.187 424.072 C 153.187 424.305,154.680 427.209,154.799 427.209 C 154.858 427.209,154.556 426.510,154.129 425.656 C 153.326 424.053,153.187 423.819,153.187 424.072 M100.579 437.118 L 99.732 438.029 100.643 437.182 C 101.490 436.394,101.652 436.208,101.490 436.208 C 101.455 436.208,101.045 436.618,100.579 437.118 M23.567 438.886 C 24.682 440.005,25.642 440.921,25.701 440.921 C 25.760 440.921,24.896 440.005,23.781 438.886 C 22.667 437.766,21.706 436.851,21.647 436.851 C 21.589 436.851,22.452 437.766,23.567 438.886 M303.267 439.422 C 304.441 440.600,305.450 441.564,305.509 441.564 C 305.568 441.564,304.655 440.600,303.482 439.422 C 302.308 438.243,301.299 437.279,301.240 437.279 C 301.181 437.279,302.093 438.243,303.267 439.422 M163.685 439.314 C 164.681 440.316,165.545 441.136,165.604 441.136 C 165.663 441.136,164.896 440.316,163.899 439.314 C 162.903 438.313,162.039 437.493,161.981 437.493 C 161.922 437.493,162.689 438.313,163.685 439.314 M237.917 439.475 L 236.208 441.243 237.975 439.534 C 239.617 437.946,239.841 437.708,239.684 437.708 C 239.652 437.708,238.857 438.503,237.917 439.475 M377.284 439.582 L 375.897 441.028 377.343 439.642 C 378.687 438.354,378.887 438.136,378.730 438.136 C 378.697 438.136,378.046 438.787,377.284 439.582 M97.151 440.546 L 96.304 441.457 97.215 440.610 C 97.716 440.144,98.125 439.734,98.125 439.699 C 98.125 439.537,97.939 439.700,97.151 440.546 M175.040 447.873 C 175.040 447.932,175.329 448.130,175.683 448.313 C 176.036 448.496,176.326 448.597,176.326 448.538 C 176.326 448.479,176.036 448.281,175.683 448.099 C 175.329 447.916,175.040 447.814,175.040 447.873 M56.510 454.356 C 56.777 454.407,57.162 454.405,57.367 454.352 C 57.572 454.298,57.354 454.256,56.883 454.259 C 56.411 454.261,56.244 454.305,56.510 454.356 M65.078 454.356 C 65.343 454.407,65.777 454.407,66.042 454.356 C 66.307 454.305,66.090 454.263,65.560 454.263 C 65.029 454.263,64.813 454.305,65.078 454.356 M195.985 454.356 C 196.252 454.407,196.638 454.405,196.842 454.352 C 197.047 454.298,196.829 454.256,196.358 454.259 C 195.886 454.261,195.719 454.305,195.985 454.356 M204.553 454.356 C 204.818 454.407,205.252 454.407,205.517 454.356 C 205.782 454.305,205.565 454.263,205.035 454.263 C 204.505 454.263,204.288 454.305,204.553 454.356 M335.244 454.356 C 335.509 454.407,335.943 454.407,336.208 454.356 C 336.473 454.305,336.256 454.263,335.726 454.263 C 335.196 454.263,334.979 454.305,335.244 454.356 M344.028 454.356 C 344.293 454.407,344.727 454.407,344.992 454.356 C 345.257 454.305,345.040 454.263,344.510 454.263 C 343.980 454.263,343.763 454.305,344.028 454.356 M60.584 454.576 C 61.088 454.621,61.859 454.621,62.298 454.575 C 62.737 454.529,62.325 454.492,61.382 454.492 C 60.439 454.493,60.080 454.531,60.584 454.576 M200.059 454.576 C 200.563 454.621,201.334 454.621,201.773 454.575 C 202.212 454.529,201.800 454.492,200.857 454.492 C 199.914 454.493,199.555 454.531,200.059 454.576 M339.314 454.576 C 339.815 454.621,340.635 454.621,341.136 454.576 C 341.636 454.531,341.227 454.494,340.225 454.494 C 339.223 454.494,338.814 454.531,339.314 454.576 " stroke="none" fill="#f4cb7c" fill-rule="evenodd"></path><path id="path3" d="" stroke="none" fill="#f07c24" fill-rule="evenodd"></path><path id="path4" d="" stroke="none" fill="#f0c020" fill-rule="evenodd"></path></g></svg>