<svg id="svg" version="1.1" xmlns="http://www.w3.org/2000/svg" xmlns:xlink="http://www.w3.org/1999/xlink" width="400" height="400" viewBox="0, 0, 400,400"><g id="svgg"><path id="path0" d="M186.159 55.490 C 169.603 56.961,146.353 69.293,126.753 86.999 C 126.150 87.543,124.872 88.691,123.913 89.551 C 121.328 91.865,114.624 98.485,111.253 102.051 C 104.140 109.575,98.051 116.954,90.624 127.051 C 66.457 159.905,57.498 193.211,68.423 209.594 C 70.881 213.282,77.838 219.103,79.834 219.144 C 80.473 219.157,80.469 219.519,79.815 220.722 C 76.945 226.005,76.388 236.909,78.542 245.605 C 83.355 265.028,97.843 277.310,119.195 280.067 C 120.675 280.258,121.905 280.449,121.929 280.490 C 121.953 280.532,122.720 282.052,123.633 283.869 C 143.309 323.009,180.839 345.206,227.344 345.209 C 256.538 345.212,281.604 337.139,300.098 321.778 C 331.346 295.823,347.824 249.526,329.160 240.123 C 328.430 239.755,327.552 239.401,327.211 239.337 C 326.869 239.272,326.532 239.074,326.461 238.897 C 326.391 238.719,325.589 236.465,324.679 233.887 C 323.768 231.309,322.816 228.628,322.562 227.930 C 321.791 225.806,321.781 225.962,322.819 223.891 C 331.537 206.498,320.847 192.271,294.629 186.374 L 293.066 186.023 293.132 181.928 C 293.473 160.838,288.902 143.569,280.375 133.730 L 278.885 132.011 280.883 129.921 C 299.950 109.987,305.552 85.425,293.883 72.933 C 282.620 60.875,259.114 61.335,226.600 74.248 C 224.418 75.115,222.609 75.792,222.580 75.754 C 222.551 75.715,222.190 75.068,221.778 74.316 C 214.290 60.653,201.878 54.092,186.159 55.490 M194.231 65.530 C 201.317 66.598,206.815 70.131,210.902 76.244 C 212.174 78.146,213.418 80.415,213.259 80.541 C 213.217 80.573,211.997 81.217,210.547 81.971 C 202.112 86.359,190.049 94.177,180.664 101.337 C 149.036 125.469,125.909 154.484,113.154 186.035 C 112.459 187.754,111.359 190.654,110.709 192.480 C 109.307 196.421,109.524 196.139,107.763 196.312 C 102.465 196.833,94.966 201.372,87.837 208.373 L 85.146 211.016 84.072 210.440 C 65.797 200.631,72.504 168.837,100.860 130.859 C 131.498 89.825,171.185 62.056,194.231 65.530 M229.816 107.782 L 226.726 110.876 228.842 110.999 C 238.317 111.551,247.949 114.358,253.856 118.287 C 255.900 119.648,255.895 119.651,252.741 118.939 C 223.827 112.420,189.524 119.815,165.070 137.840 C 163.124 139.274,163.147 139.060,165.195 136.689 C 173.353 127.243,183.214 118.568,194.769 110.673 C 197.992 108.471,202.934 105.408,203.061 105.535 C 203.102 105.575,202.135 108.104,200.914 111.154 C 199.692 114.204,198.713 116.725,198.737 116.757 C 198.761 116.789,199.780 116.166,201.002 115.372 C 210.987 108.885,222.431 104.852,231.248 104.713 L 232.906 104.688 229.816 107.782 M271.639 143.750 C 283.332 146.554,287.577 157.340,285.590 179.199 C 284.291 193.486,283.548 192.238,295.587 195.987 C 318.590 203.151,323.505 212.284,311.050 224.720 C 295.307 240.439,262.387 248.833,231.543 244.992 C 223.831 244.031,220.810 244.785,216.992 248.623 C 207.658 258.004,212.124 273.076,226.100 279.365 C 250.413 290.304,300.250 277.918,313.511 257.641 C 314.735 255.769,314.701 255.656,313.232 256.728 C 308.696 260.043,300.572 264.555,294.922 266.897 C 292.054 268.085,291.194 268.425,288.770 269.328 C 261.210 279.587,232.616 279.632,223.074 269.431 C 220.945 267.156,218.547 262.039,219.873 262.604 C 226.996 265.638,236.444 267.017,247.070 266.573 C 257.029 266.158,265.332 264.309,265.332 262.506 C 265.332 261.634,265.028 261.628,256.274 262.326 C 246.570 263.101,234.176 261.610,223.660 258.404 C 219.022 256.990,219.132 257.091,220.039 255.070 C 221.551 251.701,224.965 251.061,235.840 252.111 C 265.626 254.985,288.064 249.325,313.668 232.480 C 314.686 231.810,315.579 231.325,315.653 231.402 C 315.726 231.480,316.772 235.015,317.977 239.258 C 320.608 248.525,320.080 247.461,322.083 247.527 C 332.341 247.862,329.955 267.199,317.514 284.551 C 311.282 293.243,301.871 301.666,292.676 306.782 C 269.527 319.662,239.300 320.772,218.652 309.501 C 193.266 295.644,183.723 264.508,196.921 238.598 C 198.951 234.615,201.550 230.908,205.125 226.899 C 208.136 223.523,207.791 222.336,201.767 215.339 C 190.538 202.296,186.830 192.574,188.738 181.181 C 191.898 162.311,207.331 151.706,226.465 155.253 C 236.770 157.164,243.587 155.694,254.017 149.311 C 255.728 148.263,257.651 147.097,258.289 146.719 C 260.331 145.509,263.335 144.195,264.844 143.850 C 265.649 143.666,266.396 143.487,266.504 143.453 C 267.183 143.235,270.224 143.411,271.639 143.750 M267.767 169.788 C 264.298 170.756,263.619 174.916,265.731 182.254 C 266.467 184.814,267.973 188.763,268.997 190.820 L 269.629 192.090 272.677 192.143 L 275.726 192.197 275.855 191.167 C 275.926 190.600,276.038 188.511,276.104 186.523 C 276.497 174.572,273.340 168.233,267.767 169.788 M218.928 189.263 C 213.608 190.201,210.013 192.732,208.875 196.342 C 208.269 198.265,209.256 198.398,214.258 197.071 C 225.238 194.157,227.215 194.429,234.110 199.801 C 238.584 203.286,239.730 202.949,239.740 198.145 C 239.754 191.874,229.337 187.429,218.928 189.263 M273.145 198.703 C 269.816 200.240,270.081 207.495,273.499 208.415 C 273.957 208.538,274.299 208.762,274.355 208.975 C 274.568 209.788,276.288 208.695,276.923 207.344 C 278.973 202.983,276.437 197.183,273.145 198.703 M231.934 202.340 C 228.464 202.833,223.465 204.486,220.850 206.007 C 218.722 207.243,219.742 207.886,222.489 207.039 C 227.529 205.487,228.040 205.407,233.691 205.287 L 238.965 205.176 238.913 204.688 C 238.716 202.835,235.667 201.809,231.934 202.340 M257.129 205.260 C 253.903 206.038,253.490 210.005,256.418 212.090 C 260.097 214.710,264.258 213.657,264.258 210.107 C 264.258 207.327,260.146 204.532,257.129 205.260 M118.569 206.170 C 132.313 208.489,142.292 224.429,142.277 244.043 C 142.263 261.935,133.488 272.214,119.922 270.228 C 105.108 268.060,94.481 259.505,90.155 246.266 C 84.084 227.684,93.166 209.867,110.449 206.455 C 113.885 205.777,115.832 205.708,118.569 206.170 M113.086 217.565 C 109.690 218.511,106.925 220.618,104.527 224.088 C 101.389 228.630,99.786 235.031,101.432 236.447 C 102.441 237.315,103.025 236.765,103.612 234.395 C 105.748 225.774,108.918 223.422,115.384 225.659 C 121.992 227.947,123.854 232.513,122.441 242.969 C 121.442 250.360,121.915 252.473,124.873 253.839 C 128.401 255.470,134.101 253.650,133.961 250.937 C 133.943 250.578,133.913 250.606,133.814 251.074 C 133.585 252.153,132.298 251.996,129.004 250.488 C 125.078 248.692,124.659 246.426,127.094 240.161 C 130.106 232.409,130.526 228.824,128.836 225.298 C 126.224 219.849,118.500 216.056,113.086 217.565 " stroke="none" fill="#1c1c1b" fill-rule="evenodd"></path><path id="path1" d="M51.758 0.408 C 50.630 0.610,49.136 0.864,48.438 0.972 C 47.739 1.080,46.685 1.309,46.094 1.481 C 45.503 1.652,44.668 1.856,44.238 1.934 C 43.367 2.091,41.330 2.749,39.551 3.447 C 38.906 3.700,38.304 3.907,38.213 3.907 C 38.122 3.907,37.726 4.051,37.334 4.227 C 35.352 5.118,33.660 5.893,33.398 6.029 C 33.237 6.113,32.798 6.341,32.422 6.537 C 32.046 6.732,31.519 7.016,31.250 7.168 C 30.981 7.319,30.454 7.580,30.078 7.747 C 29.702 7.915,29.351 8.112,29.297 8.186 C 29.243 8.259,28.772 8.579,28.249 8.896 C 26.858 9.740,26.765 9.799,25.537 10.627 C 24.919 11.043,24.414 11.459,24.414 11.551 C 24.414 11.643,24.298 11.719,24.155 11.719 C 24.013 11.719,23.690 11.938,23.438 12.207 C 23.185 12.476,22.870 12.695,22.736 12.695 C 22.603 12.695,22.464 12.768,22.428 12.857 C 22.393 12.946,21.748 13.533,20.996 14.162 C 19.239 15.630,15.630 19.239,14.162 20.996 C 13.533 21.748,12.946 22.393,12.857 22.428 C 12.768 22.464,12.695 22.603,12.695 22.736 C 12.695 22.870,12.476 23.185,12.207 23.438 C 11.938 23.690,11.719 24.013,11.719 24.155 C 11.719 24.298,11.643 24.414,11.551 24.414 C 11.459 24.414,11.043 24.919,10.627 25.537 C 9.809 26.751,9.760 26.828,8.893 28.249 C 8.575 28.772,8.201 29.315,8.063 29.457 C 7.925 29.599,7.813 29.821,7.813 29.949 C 7.812 30.078,7.593 30.506,7.324 30.901 C 7.056 31.297,6.836 31.714,6.836 31.829 C 6.836 31.945,6.616 32.387,6.348 32.812 C 6.079 33.238,5.859 33.677,5.859 33.789 C 5.859 33.901,5.640 34.340,5.371 34.766 C 5.103 35.191,4.883 35.626,4.883 35.733 C 4.883 35.839,4.663 36.406,4.395 36.993 C 4.126 37.581,3.907 38.132,3.907 38.220 C 3.907 38.307,3.700 38.906,3.447 39.551 C 2.749 41.330,2.091 43.367,1.934 44.238 C 1.856 44.668,1.652 45.503,1.481 46.094 C 1.309 46.685,1.088 47.695,0.989 48.340 C 0.890 48.984,0.627 50.566,0.406 51.855 L 0.002 54.199 0.002 200.000 L 0.002 345.801 0.406 348.145 C 0.627 349.434,0.890 351.016,0.989 351.660 C 1.088 352.305,1.309 353.315,1.481 353.906 C 1.652 354.497,1.856 355.332,1.934 355.762 C 2.091 356.633,2.749 358.670,3.447 360.449 C 3.700 361.094,3.907 361.696,3.907 361.787 C 3.907 361.878,4.051 362.274,4.227 362.666 C 5.322 365.101,5.918 366.380,6.197 366.895 C 6.371 367.217,6.587 367.634,6.675 367.822 C 7.194 368.925,8.085 370.606,8.202 370.703 C 8.267 370.757,8.579 371.228,8.896 371.751 C 9.740 373.142,9.799 373.235,10.627 374.463 C 11.043 375.081,11.459 375.586,11.551 375.586 C 11.643 375.586,11.719 375.702,11.719 375.845 C 11.719 375.987,11.938 376.310,12.207 376.562 C 12.476 376.815,12.695 377.130,12.695 377.264 C 12.695 377.397,12.768 377.536,12.857 377.572 C 12.946 377.607,13.533 378.252,14.162 379.004 C 15.630 380.761,19.239 384.370,20.996 385.838 C 21.748 386.467,22.393 387.054,22.428 387.143 C 22.464 387.232,22.603 387.305,22.736 387.305 C 22.870 387.305,23.185 387.524,23.438 387.793 C 23.690 388.062,24.013 388.281,24.155 388.281 C 24.298 388.281,24.414 388.357,24.414 388.449 C 24.414 388.541,24.919 388.957,25.537 389.373 C 26.765 390.201,26.858 390.260,28.249 391.104 C 28.772 391.421,29.243 391.741,29.297 391.814 C 29.351 391.888,29.702 392.085,30.078 392.253 C 30.454 392.420,30.981 392.681,31.250 392.832 C 31.519 392.984,32.046 393.268,32.422 393.463 C 32.798 393.659,33.237 393.887,33.398 393.971 C 33.660 394.107,35.352 394.882,37.334 395.773 C 37.726 395.949,38.122 396.093,38.213 396.093 C 38.304 396.093,38.906 396.300,39.551 396.553 C 41.324 397.249,43.365 397.908,44.238 398.068 C 44.668 398.146,45.679 398.381,46.484 398.589 C 47.893 398.952,48.801 399.119,52.637 399.718 C 55.279 400.131,344.721 400.131,347.363 399.718 C 351.199 399.119,352.107 398.952,353.516 398.589 C 354.321 398.381,355.332 398.146,355.762 398.068 C 356.635 397.908,358.676 397.249,360.449 396.553 C 361.094 396.300,361.696 396.093,361.787 396.093 C 361.878 396.093,362.274 395.949,362.666 395.773 C 365.101 394.678,366.380 394.082,366.895 393.803 C 367.217 393.629,367.656 393.400,367.871 393.294 C 368.754 392.862,369.010 392.734,369.790 392.334 C 370.238 392.104,370.649 391.863,370.703 391.798 C 370.757 391.733,371.230 391.421,371.755 391.104 C 372.280 390.787,372.901 390.396,373.136 390.234 C 373.371 390.073,374.018 389.648,374.574 389.290 C 375.131 388.932,375.586 388.558,375.586 388.460 C 375.586 388.362,375.702 388.281,375.845 388.281 C 375.987 388.281,376.310 388.062,376.563 387.793 C 376.815 387.524,377.130 387.305,377.264 387.305 C 377.397 387.305,377.536 387.232,377.572 387.143 C 377.607 387.054,378.252 386.467,379.004 385.838 C 380.761 384.370,384.370 380.761,385.838 379.004 C 386.467 378.252,387.054 377.607,387.143 377.572 C 387.232 377.536,387.305 377.397,387.305 377.264 C 387.305 377.130,387.524 376.815,387.793 376.562 C 388.062 376.310,388.281 375.987,388.281 375.845 C 388.281 375.702,388.362 375.586,388.460 375.586 C 388.558 375.586,388.932 375.131,389.290 374.574 C 389.648 374.018,390.073 373.371,390.234 373.136 C 390.396 372.901,390.787 372.280,391.104 371.755 C 391.421 371.230,391.733 370.757,391.798 370.703 C 391.900 370.618,392.280 369.918,392.930 368.618 C 393.028 368.422,393.268 367.954,393.464 367.578 C 393.659 367.202,393.887 366.763,393.971 366.602 C 394.107 366.340,394.882 364.648,395.773 362.666 C 395.949 362.274,396.093 361.878,396.093 361.787 C 396.093 361.696,396.300 361.094,396.553 360.449 C 397.249 358.676,397.908 356.635,398.068 355.762 C 398.146 355.332,398.381 354.321,398.589 353.516 C 398.952 352.107,399.119 351.199,399.718 347.363 C 400.131 344.721,400.131 55.279,399.718 52.637 C 399.119 48.801,398.952 47.893,398.589 46.484 C 398.381 45.679,398.146 44.668,398.068 44.238 C 397.908 43.365,397.249 41.324,396.553 39.551 C 396.300 38.906,396.093 38.304,396.093 38.213 C 396.093 38.122,395.949 37.726,395.773 37.334 C 394.678 34.899,394.082 33.620,393.803 33.105 C 393.629 32.783,393.427 32.388,393.354 32.227 C 393.282 32.065,393.073 31.670,392.890 31.348 C 392.707 31.025,392.420 30.454,392.253 30.078 C 392.085 29.702,391.888 29.351,391.814 29.297 C 391.741 29.243,391.421 28.772,391.104 28.249 C 390.260 26.858,390.201 26.765,389.373 25.537 C 388.957 24.919,388.541 24.414,388.449 24.414 C 388.357 24.414,388.281 24.298,388.281 24.155 C 388.281 24.013,388.062 23.690,387.793 23.438 C 387.524 23.185,387.305 22.870,387.305 22.736 C 387.305 22.603,387.232 22.464,387.143 22.428 C 387.054 22.393,386.467 21.748,385.838 20.996 C 384.370 19.239,380.761 15.630,379.004 14.162 C 378.252 13.533,377.607 12.946,377.572 12.857 C 377.536 12.768,377.397 12.695,377.264 12.695 C 377.130 12.695,376.815 12.476,376.562 12.207 C 376.310 11.938,375.987 11.719,375.845 11.719 C 375.702 11.719,375.586 11.643,375.586 11.551 C 375.586 11.459,375.081 11.043,374.463 10.627 C 373.235 9.799,373.142 9.740,371.751 8.896 C 371.228 8.579,370.757 8.267,370.703 8.202 C 370.618 8.100,369.918 7.720,368.618 7.070 C 368.422 6.972,367.954 6.732,367.578 6.536 C 367.202 6.341,366.763 6.113,366.602 6.029 C 366.340 5.893,364.648 5.118,362.666 4.227 C 362.274 4.051,361.878 3.907,361.787 3.907 C 361.696 3.907,361.094 3.700,360.449 3.447 C 358.670 2.749,356.633 2.091,355.762 1.934 C 355.332 1.856,354.497 1.652,353.906 1.481 C 353.315 1.309,352.305 1.088,351.660 0.989 C 351.016 0.890,349.434 0.627,348.145 0.406 L 345.801 0.002 199.805 0.021 C 57.814 0.040,53.752 0.051,51.758 0.408 M197.078 55.653 C 204.559 56.973,211.335 60.690,216.031 66.049 C 216.720 66.836,217.329 67.524,217.383 67.578 C 218.203 68.396,220.409 71.617,221.764 73.975 C 222.274 74.861,222.715 75.586,222.745 75.586 C 222.775 75.586,224.459 74.917,226.488 74.100 C 228.516 73.283,230.527 72.498,230.957 72.356 C 231.387 72.213,232.485 71.821,233.398 71.484 C 268.874 58.400,294.614 62.940,299.409 83.128 C 302.589 96.518,295.434 114.952,281.356 129.639 L 279.062 132.031 280.028 133.087 C 283.310 136.679,286.118 141.497,288.293 147.272 C 291.694 156.301,293.659 169.976,293.273 181.934 L 293.147 185.840 295.157 186.311 C 315.659 191.119,325.662 199.708,325.658 212.500 L 325.656 216.504 324.941 218.901 C 324.547 220.219,323.732 222.340,323.130 223.614 L 322.034 225.930 322.852 228.248 C 323.302 229.523,323.882 231.160,324.140 231.885 C 324.398 232.610,324.819 233.796,325.075 234.521 C 325.331 235.247,325.792 236.532,326.100 237.379 L 326.660 238.918 328.031 239.443 C 340.699 244.303,340.096 266.401,326.657 289.844 C 326.256 290.542,325.762 291.405,325.558 291.761 C 324.741 293.188,323.953 294.439,322.025 297.363 C 316.252 306.123,310.164 313.107,301.846 320.511 C 295.596 326.075,284.859 332.931,278.613 335.345 C 278.076 335.552,276.978 335.999,276.172 336.338 C 268.314 339.641,254.901 343.192,246.689 344.142 C 245.878 344.236,244.160 344.453,242.871 344.624 C 227.412 346.676,205.748 344.951,191.406 340.524 C 190.923 340.375,189.648 339.979,188.574 339.645 C 160.164 330.812,137.688 311.670,123.716 284.406 L 121.748 280.566 120.395 280.433 C 102.179 278.636,87.359 268.520,80.970 253.523 C 76.397 242.788,75.742 228.547,79.475 221.038 L 80.232 219.517 78.834 218.854 C 61.408 210.584,58.776 189.529,71.436 159.668 C 82.244 134.177,107.686 101.907,133.158 81.382 C 153.056 65.349,169.700 57.270,187.109 55.194 C 188.823 54.990,194.910 55.270,197.078 55.653 M186.133 65.563 C 180.377 66.503,176.519 67.576,171.875 69.528 C 171.069 69.866,170.146 70.241,169.824 70.361 C 165.911 71.815,155.889 77.718,149.547 82.305 C 148.493 83.067,147.434 83.823,147.195 83.984 C 139.203 89.368,124.778 102.878,113.297 115.732 C 89.848 141.984,74.199 171.953,74.138 190.723 C 74.108 199.836,76.661 205.434,82.617 209.313 C 85.230 211.015,84.810 211.059,87.030 208.854 C 94.507 201.429,101.963 196.869,107.878 196.104 C 109.498 195.894,109.234 196.193,110.148 193.535 C 110.976 191.129,112.624 186.770,113.241 185.352 C 113.451 184.868,114.081 183.374,114.640 182.031 C 129.432 146.527,164.233 108.646,202.637 86.245 C 203.711 85.618,204.918 84.897,205.318 84.643 C 205.719 84.388,206.091 84.180,206.145 84.180 C 206.200 84.180,206.663 83.925,207.175 83.613 C 207.687 83.302,209.072 82.533,210.254 81.904 C 211.436 81.276,212.565 80.666,212.763 80.548 C 213.968 79.834,207.864 71.962,204.193 69.496 C 199.379 66.262,191.866 64.626,186.133 65.563 M230.371 104.889 C 220.480 105.613,207.424 110.585,199.255 116.739 C 198.249 117.497,198.288 117.331,200.309 112.274 C 201.353 109.659,202.369 107.105,202.566 106.598 L 202.924 105.676 201.120 106.766 C 188.652 114.301,174.682 125.958,165.816 136.227 L 163.965 138.371 165.918 137.012 C 168.360 135.312,171.009 133.556,171.777 133.127 C 172.100 132.947,172.803 132.525,173.340 132.189 C 185.078 124.858,202.519 118.864,216.410 117.388 C 217.429 117.280,219.009 117.102,219.922 116.992 C 229.267 115.874,246.658 116.926,254.004 119.056 L 254.980 119.339 254.395 118.861 C 249.970 115.254,239.277 111.942,229.980 111.298 C 228.154 111.172,226.620 111.036,226.572 110.996 C 226.523 110.956,227.884 109.520,229.597 107.806 C 231.309 106.091,232.623 104.701,232.517 104.716 C 232.411 104.732,231.445 104.810,230.371 104.889 M266.113 143.679 C 264.539 143.921,259.331 146.050,258.301 146.872 C 257.369 147.617,249.953 151.970,248.177 152.816 C 241.795 155.855,234.720 156.933,228.613 155.797 C 207.852 151.936,193.059 160.936,189.185 179.785 C 186.702 191.868,189.945 200.912,201.932 215.332 C 208.350 223.053,208.434 223.400,204.883 227.441 C 181.324 254.252,189.004 294.511,220.703 310.367 C 232.501 316.269,247.383 318.345,263.184 316.294 C 285.488 313.398,305.342 301.592,317.903 283.756 C 330.005 266.570,331.945 247.656,321.606 247.656 L 320.180 247.656 319.761 246.143 C 319.530 245.310,319.176 244.058,318.973 243.359 C 318.771 242.661,318.319 241.079,317.969 239.844 C 317.619 238.608,317.167 237.026,316.964 236.328 C 316.762 235.630,316.381 234.278,316.118 233.324 C 315.855 232.371,315.610 231.560,315.573 231.523 C 315.536 231.486,315.031 231.776,314.450 232.167 C 290.629 248.209,265.351 255.171,239.941 252.687 C 225.900 251.314,222.413 251.601,220.645 254.272 C 220.198 254.947,219.730 256.214,219.728 256.756 C 219.727 256.939,221.768 257.664,225.195 258.698 C 235.453 261.795,249.437 263.036,260.624 261.842 C 268.103 261.045,267.607 263.389,259.910 265.216 C 247.982 268.047,230.619 267.149,220.897 263.198 L 219.743 262.729 219.859 263.347 C 221.778 273.565,237.669 278.771,259.277 276.260 C 269.348 275.090,278.078 272.980,288.965 269.083 C 297.287 266.104,308.123 260.454,313.740 256.165 C 317.325 253.427,311.423 261.341,307.324 264.767 C 298.505 272.140,282.806 278.986,268.848 281.544 C 256.005 283.898,246.574 284.272,237.305 282.793 C 217.579 279.646,207.115 265.912,214.020 252.233 C 217.254 245.826,222.159 243.749,231.543 244.813 C 263.752 248.466,295.599 240.242,311.294 224.219 C 323.211 212.053,317.914 202.866,295.020 195.997 C 288.351 193.997,285.787 192.815,285.058 191.406 C 284.637 190.592,284.680 186.304,285.154 181.836 C 287.591 158.855,283.968 147.781,272.852 144.236 C 271.206 143.712,267.754 143.426,266.113 143.679 M270.515 169.530 C 274.117 170.531,275.997 174.947,276.305 183.128 C 276.412 185.973,276.136 191.349,275.844 192.110 C 275.761 192.328,275.115 192.383,272.639 192.383 L 269.538 192.383 269.018 191.357 C 265.440 184.297,263.542 175.680,264.822 172.307 C 265.687 170.027,268.088 168.856,270.515 169.530 M226.469 188.866 C 235.271 189.645,240.743 194.090,239.779 199.676 C 239.167 203.221,238.077 203.281,234.083 199.994 C 227.536 194.604,225.536 194.357,213.514 197.446 C 208.501 198.734,207.645 198.371,208.989 195.529 C 211.360 190.517,217.723 188.091,226.469 188.866 M276.141 199.091 C 278.275 201.136,278.287 206.665,276.162 208.701 C 275.512 209.324,274.023 209.613,274.023 209.117 C 274.023 208.936,273.645 208.640,273.116 208.406 C 269.995 207.025,269.743 200.296,272.754 198.729 C 273.694 198.240,275.448 198.427,276.141 199.091 M236.958 202.457 C 238.404 202.967,239.609 204.517,239.067 205.170 C 238.869 205.410,238.057 205.450,234.112 205.415 C 229.162 205.372,227.440 205.602,224.227 206.736 C 220.741 207.965,218.273 207.794,219.900 206.436 C 221.457 205.136,227.170 202.992,230.524 202.449 C 231.514 202.289,232.544 202.119,232.813 202.071 C 233.646 201.922,236.088 202.150,236.958 202.457 M260.248 205.407 C 264.657 206.942,266.029 211.620,262.562 213.299 C 258.315 215.354,252.473 210.242,254.893 206.589 C 255.925 205.031,257.909 204.593,260.248 205.407 M112.500 206.255 C 90.555 208.437,80.997 235.810,95.183 255.845 C 104.268 268.675,124.120 274.384,133.534 266.874 C 147.940 255.382,143.610 220.230,126.445 209.319 C 122.299 206.684,117.901 205.718,112.500 206.255 M119.689 217.691 C 124.152 219.185,127.813 222.252,129.257 225.705 C 130.547 228.788,130.171 232.590,128.026 238.184 C 124.665 246.943,124.894 248.502,129.865 250.687 C 132.819 251.986,134.243 251.773,133.379 250.160 C 133.210 249.844,133.221 249.778,133.428 249.845 C 134.423 250.170,134.232 251.915,133.091 252.916 C 130.661 255.050,126.595 255.279,123.773 253.440 C 121.751 252.123,121.448 250.397,122.146 244.185 C 123.553 231.675,121.814 227.470,114.453 225.583 C 108.676 224.101,106.019 226.031,104.120 233.087 C 103.139 236.728,102.718 237.428,101.804 236.939 C 99.336 235.618,100.977 228.473,104.965 223.174 C 108.920 217.918,114.339 215.900,119.689 217.691 " stroke="none" fill="#fbe314" fill-rule="evenodd"></path><path id="path2" d="M189.502 55.222 C 190.012 55.262,190.847 55.262,191.357 55.222 C 191.868 55.181,191.450 55.149,190.430 55.149 C 189.409 55.149,188.992 55.181,189.502 55.222 M267.044 64.203 C 267.341 64.248,267.780 64.246,268.020 64.200 C 268.260 64.154,268.018 64.117,267.480 64.118 C 266.943 64.120,266.747 64.158,267.044 64.203 M270.852 64.201 C 271.095 64.247,271.446 64.246,271.633 64.197 C 271.820 64.148,271.621 64.110,271.191 64.112 C 270.762 64.114,270.609 64.154,270.852 64.201 M206.836 71.545 C 206.836 71.579,207.122 71.865,207.471 72.180 L 208.105 72.754 207.532 72.119 C 206.997 71.527,206.836 71.395,206.836 71.545 M112.390 100.635 L 111.816 101.270 112.451 100.696 C 112.800 100.380,113.086 100.095,113.086 100.061 C 113.086 99.910,112.925 100.043,112.390 100.635 M225.244 116.736 C 225.432 116.785,225.740 116.785,225.928 116.736 C 226.116 116.687,225.962 116.647,225.586 116.647 C 225.210 116.647,225.056 116.687,225.244 116.736 M155.856 122.803 L 153.613 125.098 155.908 122.855 C 158.040 120.771,158.292 120.508,158.151 120.508 C 158.123 120.508,157.090 121.541,155.856 122.803 M276.241 184.668 C 276.241 185.635,276.274 186.055,276.315 185.602 C 276.356 185.148,276.356 184.357,276.316 183.844 C 276.275 183.330,276.242 183.701,276.241 184.668 M73.881 189.063 C 73.881 189.546,73.919 189.744,73.966 189.502 C 74.013 189.260,74.013 188.865,73.966 188.623 C 73.919 188.381,73.881 188.579,73.881 189.063 M222.314 188.807 C 222.502 188.856,222.810 188.856,222.998 188.807 C 223.186 188.757,223.032 188.717,222.656 188.717 C 222.280 188.717,222.126 188.757,222.314 188.807 M73.873 192.969 C 73.873 193.345,73.914 193.499,73.963 193.311 C 74.012 193.123,74.012 192.815,73.963 192.627 C 73.914 192.439,73.873 192.593,73.873 192.969 M142.254 243.848 C 142.255 244.707,142.290 245.034,142.331 244.575 C 142.372 244.116,142.371 243.412,142.329 243.012 C 142.288 242.612,142.254 242.988,142.254 243.848 M226.223 244.476 C 226.520 244.521,226.960 244.520,227.200 244.473 C 227.440 244.427,227.197 244.390,226.660 244.392 C 226.123 244.393,225.927 244.431,226.223 244.476 M244.678 245.846 C 245.134 245.887,245.881 245.887,246.338 245.846 C 246.794 245.805,246.421 245.771,245.508 245.771 C 244.595 245.771,244.221 245.805,244.678 245.846 M247.900 245.845 C 248.303 245.888,248.962 245.888,249.365 245.845 C 249.768 245.803,249.438 245.769,248.633 245.769 C 247.827 245.769,247.498 245.803,247.900 245.845 M249.259 253.074 C 249.979 253.112,251.210 253.112,251.993 253.075 C 252.777 253.038,252.188 253.007,250.684 253.007 C 249.180 253.006,248.539 253.037,249.259 253.074 M211.959 261.328 C 211.959 261.704,212.000 261.858,212.049 261.670 C 212.098 261.482,212.098 261.174,212.049 260.986 C 212.000 260.798,211.959 260.952,211.959 261.328 M247.998 262.443 C 248.240 262.489,248.635 262.489,248.877 262.443 C 249.119 262.396,248.921 262.358,248.438 262.358 C 247.954 262.358,247.756 262.396,247.998 262.443 M252.100 262.443 C 252.341 262.489,252.737 262.489,252.979 262.443 C 253.220 262.396,253.022 262.358,252.539 262.358 C 252.056 262.358,251.858 262.396,252.100 262.443 M247.314 266.736 C 247.502 266.785,247.810 266.785,247.998 266.736 C 248.186 266.687,248.032 266.647,247.656 266.647 C 247.280 266.647,247.126 266.687,247.314 266.736 M224.761 345.456 C 225.220 345.497,225.924 345.496,226.324 345.454 C 226.724 345.413,226.348 345.379,225.488 345.379 C 224.629 345.380,224.302 345.415,224.761 345.456 M228.472 345.456 C 228.931 345.497,229.634 345.496,230.034 345.454 C 230.434 345.413,230.059 345.379,229.199 345.379 C 228.340 345.380,228.013 345.415,228.472 345.456 " stroke="none" fill="#a79414" fill-rule="evenodd"></path><path id="path3" d="M186.963 55.408 C 187.151 55.457,187.458 55.457,187.646 55.408 C 187.834 55.359,187.681 55.319,187.305 55.319 C 186.929 55.319,186.775 55.359,186.963 55.408 M193.313 55.412 C 193.556 55.458,193.907 55.457,194.094 55.408 C 194.281 55.359,194.082 55.321,193.652 55.323 C 193.223 55.325,193.070 55.365,193.313 55.412 M213.477 63.770 C 213.841 64.146,214.183 64.453,214.237 64.453 C 214.290 64.453,214.036 64.146,213.672 63.770 C 213.307 63.394,212.965 63.086,212.912 63.086 C 212.858 63.086,213.112 63.394,213.477 63.770 M268.900 64.204 C 269.251 64.248,269.778 64.247,270.072 64.202 C 270.365 64.157,270.078 64.122,269.434 64.123 C 268.789 64.124,268.549 64.161,268.900 64.204 M215.430 65.686 C 215.430 65.720,215.715 66.005,216.064 66.321 L 216.699 66.895 216.126 66.260 C 215.591 65.668,215.430 65.535,215.430 65.686 M293.156 72.119 C 293.965 72.981,294.141 73.137,294.141 72.990 C 294.141 72.959,293.723 72.541,293.213 72.062 L 292.285 71.191 293.156 72.119 M122.060 91.162 L 121.387 91.895 122.119 91.221 C 122.801 90.595,122.941 90.430,122.792 90.430 C 122.760 90.430,122.430 90.759,122.060 91.162 M299.850 92.773 C 299.850 93.149,299.890 93.303,299.939 93.115 C 299.988 92.927,299.988 92.620,299.939 92.432 C 299.890 92.244,299.850 92.397,299.850 92.773 M116.209 96.826 L 112.988 100.098 116.260 96.877 C 118.059 95.106,119.531 93.634,119.531 93.606 C 119.531 93.466,119.201 93.787,116.209 96.826 M126.266 101.807 L 124.316 103.809 126.318 101.859 C 127.419 100.787,128.320 99.886,128.320 99.857 C 128.320 99.716,128.077 99.947,126.266 101.807 M110.352 102.832 C 109.877 103.315,109.533 103.711,109.587 103.711 C 109.640 103.711,110.072 103.315,110.547 102.832 C 111.021 102.349,111.366 101.953,111.312 101.953 C 111.258 101.953,110.826 102.349,110.352 102.832 M122.262 105.811 L 120.410 107.715 122.314 105.863 C 124.083 104.143,124.308 103.906,124.166 103.906 C 124.137 103.906,123.280 104.763,122.262 105.811 M229.685 107.764 L 226.660 110.840 229.736 107.815 C 231.428 106.151,232.813 104.767,232.813 104.739 C 232.813 104.599,232.495 104.906,229.685 107.764 M117.859 110.400 L 117.285 111.035 117.920 110.462 C 118.269 110.146,118.555 109.860,118.555 109.827 C 118.555 109.676,118.394 109.809,117.859 110.400 M228.467 111.075 C 228.708 111.122,229.104 111.122,229.346 111.075 C 229.587 111.029,229.390 110.991,228.906 110.991 C 228.423 110.991,228.225 111.029,228.467 111.075 M163.367 115.674 L 162.793 116.309 163.428 115.735 C 163.777 115.419,164.063 115.134,164.063 115.100 C 164.063 114.949,163.901 115.082,163.367 115.674 M226.904 116.745 C 227.361 116.786,228.108 116.786,228.564 116.745 C 229.021 116.703,228.647 116.670,227.734 116.670 C 226.821 116.670,226.448 116.703,226.904 116.745 M233.057 116.744 C 233.459 116.786,234.119 116.786,234.521 116.744 C 234.924 116.702,234.595 116.667,233.789 116.667 C 232.983 116.667,232.654 116.702,233.057 116.744 M222.607 116.935 C 222.849 116.981,223.245 116.981,223.486 116.935 C 223.728 116.888,223.530 116.850,223.047 116.850 C 222.563 116.850,222.366 116.888,222.607 116.935 M237.844 116.935 C 238.087 116.982,238.439 116.980,238.625 116.931 C 238.812 116.882,238.613 116.844,238.184 116.846 C 237.754 116.848,237.601 116.888,237.844 116.935 M160.547 118.262 C 160.072 118.745,159.728 119.141,159.782 119.141 C 159.836 119.141,160.268 118.745,160.742 118.262 C 161.217 117.778,161.561 117.383,161.507 117.383 C 161.453 117.383,161.021 117.778,160.547 118.262 M175.575 125.928 L 174.902 126.660 175.635 125.987 C 176.316 125.361,176.457 125.195,176.308 125.195 C 176.275 125.195,175.946 125.525,175.575 125.928 M151.262 127.588 L 150.293 128.613 151.318 127.644 C 151.882 127.111,152.344 126.650,152.344 126.619 C 152.344 126.473,152.163 126.635,151.262 127.588 M148.818 130.225 L 148.145 130.957 148.877 130.284 C 149.559 129.657,149.699 129.492,149.550 129.492 C 149.517 129.492,149.188 129.822,148.818 130.225 M279.194 131.647 C 278.845 132.032,278.845 132.053,279.202 132.379 C 279.550 132.698,279.555 132.697,279.308 132.369 C 279.087 132.076,279.100 131.966,279.398 131.637 C 279.590 131.424,279.704 131.250,279.650 131.250 C 279.597 131.250,279.391 131.429,279.194 131.647 M146.960 132.275 L 146.387 132.910 147.021 132.337 C 147.371 132.021,147.656 131.735,147.656 131.702 C 147.656 131.551,147.495 131.684,146.960 132.275 M168.249 133.252 L 167.676 133.887 168.311 133.313 C 168.660 132.998,168.945 132.712,168.945 132.678 C 168.945 132.527,168.784 132.660,168.249 133.252 M163.867 138.184 C 163.733 138.345,163.701 138.478,163.794 138.480 C 163.888 138.481,163.833 138.576,163.672 138.690 C 163.411 138.874,163.411 138.888,163.672 138.817 C 163.833 138.773,163.966 138.656,163.968 138.558 C 163.969 138.459,164.041 138.269,164.126 138.135 C 164.342 137.795,164.162 137.829,163.867 138.184 M279.883 148.340 C 280.247 148.716,280.589 149.023,280.643 149.023 C 280.697 149.023,280.443 148.716,280.078 148.340 C 279.714 147.964,279.372 147.656,279.318 147.656 C 279.264 147.656,279.518 147.964,279.883 148.340 M215.674 154.822 C 215.862 154.871,216.169 154.871,216.357 154.822 C 216.545 154.773,216.392 154.733,216.016 154.733 C 215.640 154.733,215.486 154.773,215.674 154.822 M221.828 154.826 C 222.071 154.872,222.423 154.871,222.610 154.822 C 222.796 154.773,222.598 154.735,222.168 154.737 C 221.738 154.739,221.585 154.779,221.828 154.826 M231.008 155.998 C 231.251 156.044,231.603 156.042,231.789 155.994 C 231.976 155.945,231.777 155.906,231.348 155.909 C 230.918 155.911,230.765 155.951,231.008 155.998 M236.182 155.994 C 236.370 156.043,236.677 156.043,236.865 155.994 C 237.053 155.945,236.899 155.905,236.523 155.905 C 236.147 155.905,235.994 155.945,236.182 155.994 M198.427 162.256 L 197.754 162.988 198.486 162.315 C 198.889 161.945,199.219 161.615,199.219 161.583 C 199.219 161.434,199.053 161.574,198.427 162.256 M286.019 169.336 C 286.019 171.431,286.048 172.288,286.083 171.240 C 286.118 170.193,286.118 168.479,286.083 167.432 C 286.048 166.384,286.019 167.241,286.019 169.336 M292.823 170.996 C 292.825 171.426,292.865 171.579,292.912 171.336 C 292.958 171.093,292.957 170.741,292.908 170.554 C 292.859 170.368,292.821 170.566,292.823 170.996 M293.029 174.707 C 293.030 175.352,293.067 175.592,293.110 175.241 C 293.154 174.890,293.153 174.362,293.108 174.069 C 293.064 173.775,293.028 174.063,293.029 174.707 M264.502 176.660 C 264.505 177.090,264.545 177.243,264.591 177.000 C 264.638 176.757,264.636 176.405,264.587 176.218 C 264.538 176.032,264.500 176.230,264.502 176.660 M276.022 180.859 C 276.022 181.235,276.062 181.389,276.111 181.201 C 276.160 181.013,276.160 180.706,276.111 180.518 C 276.062 180.330,276.022 180.483,276.022 180.859 M285.202 182.227 C 285.202 182.603,285.242 182.756,285.291 182.568 C 285.340 182.380,285.340 182.073,285.291 181.885 C 285.242 181.697,285.202 181.851,285.202 182.227 M293.027 183.398 C 293.027 183.989,293.064 184.231,293.109 183.936 C 293.153 183.640,293.153 183.157,293.109 182.861 C 293.064 182.566,293.027 182.808,293.027 183.398 M285.006 184.570 C 285.006 184.946,285.046 185.100,285.096 184.912 C 285.145 184.724,285.145 184.417,285.096 184.229 C 285.046 184.041,285.006 184.194,285.006 184.570 M188.340 185.156 C 188.340 185.747,188.376 185.989,188.421 185.693 C 188.466 185.398,188.466 184.915,188.421 184.619 C 188.376 184.324,188.340 184.565,188.340 185.156 M284.815 187.207 C 284.817 187.637,284.857 187.790,284.904 187.547 C 284.950 187.304,284.949 186.952,284.900 186.765 C 284.851 186.579,284.813 186.777,284.815 187.207 M188.340 187.891 C 188.340 188.481,188.376 188.723,188.421 188.428 C 188.466 188.132,188.466 187.649,188.421 187.354 C 188.376 187.058,188.340 187.300,188.340 187.891 M276.026 188.770 C 276.028 189.199,276.068 189.352,276.115 189.109 C 276.161 188.866,276.160 188.515,276.111 188.328 C 276.062 188.141,276.024 188.340,276.026 188.770 M63.549 191.797 C 63.549 192.925,63.581 193.386,63.621 192.822 C 63.660 192.258,63.660 191.335,63.621 190.771 C 63.581 190.208,63.549 190.669,63.549 191.797 M107.961 196.232 C 108.204 196.279,108.556 196.277,108.743 196.228 C 108.929 196.179,108.730 196.141,108.301 196.143 C 107.871 196.145,107.718 196.185,107.961 196.232 M236.377 205.416 C 236.780 205.458,237.439 205.458,237.842 205.416 C 238.245 205.374,237.915 205.339,237.109 205.339 C 236.304 205.339,235.974 205.374,236.377 205.416 M113.818 205.997 C 114.060 206.044,114.456 206.044,114.697 205.997 C 114.939 205.951,114.741 205.913,114.258 205.913 C 113.774 205.913,113.577 205.951,113.818 205.997 M115.967 205.997 C 116.208 206.044,116.604 206.044,116.846 205.997 C 117.087 205.951,116.890 205.913,116.406 205.913 C 115.923 205.913,115.725 205.951,115.967 205.997 M87.106 208.936 L 85.059 211.035 87.158 208.988 C 89.108 207.086,89.347 206.836,89.205 206.836 C 89.177 206.836,88.232 207.781,87.106 208.936 M264.311 210.156 C 264.311 210.640,264.349 210.837,264.396 210.596 C 264.442 210.354,264.442 209.958,264.396 209.717 C 264.349 209.475,264.311 209.673,264.311 210.156 M130.762 212.695 C 131.400 213.340,131.965 213.867,132.019 213.867 C 132.073 213.867,131.595 213.340,130.957 212.695 C 130.319 212.051,129.753 211.523,129.700 211.523 C 129.646 211.523,130.124 212.051,130.762 212.695 M71.484 213.574 C 71.849 213.950,72.191 214.258,72.245 214.258 C 72.298 214.258,72.044 213.950,71.680 213.574 C 71.315 213.198,70.973 212.891,70.919 212.891 C 70.866 212.891,71.120 213.198,71.484 213.574 M325.631 213.867 C 325.631 214.243,325.671 214.397,325.721 214.209 C 325.770 214.021,325.770 213.713,325.721 213.525 C 325.671 213.337,325.631 213.491,325.631 213.867 M310.932 224.756 L 309.668 226.074 310.986 224.810 C 312.211 223.636,312.394 223.438,312.250 223.438 C 312.220 223.438,311.627 224.031,310.932 224.756 M205.458 226.514 L 204.785 227.246 205.518 226.573 C 206.199 225.947,206.340 225.781,206.191 225.781 C 206.158 225.781,205.828 226.111,205.458 226.514 M88.358 234.863 C 88.359 236.367,88.389 236.957,88.426 236.173 C 88.464 235.390,88.463 234.159,88.426 233.439 C 88.388 232.718,88.358 233.359,88.358 234.863 M77.194 237.109 C 77.194 237.485,77.234 237.639,77.283 237.451 C 77.332 237.263,77.332 236.956,77.283 236.768 C 77.234 236.580,77.194 236.733,77.194 237.109 M122.702 240.039 C 122.702 240.415,122.742 240.569,122.791 240.381 C 122.840 240.193,122.840 239.885,122.791 239.697 C 122.742 239.509,122.702 239.663,122.702 240.039 M142.246 241.406 C 142.246 241.997,142.283 242.239,142.327 241.943 C 142.372 241.648,142.372 241.165,142.327 240.869 C 142.283 240.574,142.246 240.815,142.246 241.406 M142.248 246.387 C 142.249 247.031,142.286 247.271,142.329 246.920 C 142.373 246.569,142.372 246.042,142.327 245.748 C 142.282 245.455,142.247 245.742,142.248 246.387 M242.139 245.844 C 242.488 245.888,243.059 245.888,243.408 245.844 C 243.757 245.801,243.472 245.766,242.773 245.766 C 242.075 245.766,241.790 245.801,242.139 245.844 M250.533 245.844 C 250.879 245.887,251.495 245.888,251.900 245.846 C 252.305 245.803,252.021 245.768,251.270 245.767 C 250.518 245.766,250.186 245.801,250.533 245.844 M216.887 248.486 L 215.918 249.512 216.943 248.542 C 217.507 248.009,217.969 247.548,217.969 247.517 C 217.969 247.371,217.788 247.534,216.887 248.486 M227.009 251.707 C 227.631 251.746,228.597 251.746,229.158 251.706 C 229.718 251.667,229.209 251.635,228.027 251.636 C 226.846 251.636,226.387 251.668,227.009 251.707 M231.789 251.896 C 232.032 251.943,232.384 251.941,232.571 251.892 C 232.757 251.843,232.559 251.805,232.129 251.807 C 231.699 251.809,231.546 251.849,231.789 251.896 M241.162 252.677 C 241.404 252.723,241.799 252.723,242.041 252.677 C 242.283 252.630,242.085 252.592,241.602 252.592 C 241.118 252.592,240.920 252.630,241.162 252.677 M258.743 252.677 C 258.985 252.724,259.337 252.722,259.524 252.673 C 259.710 252.624,259.512 252.586,259.082 252.588 C 258.652 252.590,258.500 252.630,258.743 252.677 M244.478 252.875 C 244.825 252.918,245.440 252.919,245.845 252.877 C 246.250 252.835,245.967 252.799,245.215 252.798 C 244.463 252.798,244.131 252.832,244.478 252.875 M255.420 252.876 C 255.769 252.919,256.340 252.919,256.689 252.876 C 257.039 252.832,256.753 252.797,256.055 252.797 C 255.356 252.797,255.071 252.832,255.420 252.876 M220.984 253.564 L 220.410 254.199 221.045 253.626 C 221.637 253.091,221.769 252.930,221.619 252.930 C 221.585 252.930,221.299 253.215,220.984 253.564 M336.963 254.199 C 336.965 254.629,337.005 254.782,337.052 254.539 C 337.099 254.296,337.097 253.944,337.048 253.757 C 336.999 253.571,336.961 253.770,336.963 254.199 M127.588 254.632 C 127.883 254.677,128.367 254.677,128.662 254.632 C 128.958 254.587,128.716 254.551,128.125 254.551 C 127.534 254.551,127.292 254.587,127.588 254.632 M328.374 257.813 C 328.374 258.296,328.412 258.494,328.458 258.252 C 328.505 258.010,328.505 257.615,328.458 257.373 C 328.412 257.131,328.374 257.329,328.374 257.813 M336.967 258.203 C 336.967 258.687,337.005 258.884,337.052 258.643 C 337.098 258.401,337.098 258.005,337.052 257.764 C 337.005 257.522,336.967 257.720,336.967 258.203 M191.069 259.570 C 191.069 260.054,191.107 260.251,191.153 260.010 C 191.200 259.768,191.200 259.373,191.153 259.131 C 191.107 258.889,191.069 259.087,191.069 259.570 M261.865 261.857 C 262.107 261.903,262.502 261.903,262.744 261.857 C 262.986 261.810,262.788 261.772,262.305 261.772 C 261.821 261.772,261.624 261.810,261.865 261.857 M265.375 262.311 C 265.436 262.544,265.327 262.887,265.112 263.141 L 264.746 263.574 265.186 263.202 C 265.633 262.823,265.767 262.220,265.448 262.023 C 265.350 261.963,265.318 262.092,265.375 262.311 M308.984 262.988 C 308.510 263.472,308.166 263.867,308.219 263.867 C 308.273 263.867,308.705 263.472,309.180 262.988 C 309.654 262.505,309.998 262.109,309.945 262.109 C 309.891 262.109,309.459 262.505,308.984 262.988 M246.143 262.445 C 246.438 262.489,246.921 262.489,247.217 262.445 C 247.512 262.400,247.271 262.363,246.680 262.363 C 246.089 262.363,245.847 262.400,246.143 262.445 M253.760 262.445 C 254.055 262.489,254.539 262.489,254.834 262.445 C 255.129 262.400,254.888 262.363,254.297 262.363 C 253.706 262.363,253.464 262.400,253.760 262.445 M135.049 265.674 L 134.277 266.504 135.107 265.732 C 135.879 265.014,136.027 264.844,135.879 264.844 C 135.848 264.844,135.474 265.217,135.049 265.674 M191.065 266.309 C 191.067 266.738,191.107 266.891,191.154 266.648 C 191.200 266.405,191.199 266.054,191.150 265.867 C 191.101 265.680,191.063 265.879,191.065 266.309 M236.868 266.544 C 237.110 266.591,237.462 266.589,237.649 266.540 C 237.835 266.492,237.637 266.453,237.207 266.456 C 236.777 266.458,236.625 266.498,236.868 266.544 M249.365 266.544 C 249.607 266.591,250.002 266.591,250.244 266.544 C 250.486 266.498,250.288 266.459,249.805 266.459 C 249.321 266.459,249.124 266.498,249.365 266.544 M240.386 266.745 C 240.845 266.786,241.549 266.786,241.949 266.744 C 242.349 266.702,241.973 266.668,241.113 266.669 C 240.254 266.669,239.927 266.704,240.386 266.745 M244.678 266.745 C 245.134 266.786,245.881 266.786,246.338 266.745 C 246.794 266.703,246.421 266.670,245.508 266.670 C 244.595 266.670,244.221 266.703,244.678 266.745 M122.223 270.457 C 122.791 270.496,123.670 270.496,124.176 270.456 C 124.683 270.416,124.219 270.383,123.145 270.384 C 122.070 270.384,121.656 270.417,122.223 270.457 M247.119 277.098 C 247.952 277.135,249.314 277.135,250.146 277.098 C 250.979 277.062,250.298 277.032,248.633 277.032 C 246.968 277.032,246.287 277.062,247.119 277.098 M245.557 283.533 C 245.745 283.582,246.052 283.582,246.240 283.533 C 246.428 283.484,246.274 283.444,245.898 283.444 C 245.522 283.444,245.369 283.484,245.557 283.533 M250.930 283.537 C 251.173 283.583,251.525 283.582,251.711 283.533 C 251.898 283.484,251.699 283.446,251.270 283.448 C 250.840 283.450,250.687 283.490,250.930 283.537 M311.999 291.260 L 311.426 291.895 312.061 291.321 C 312.652 290.786,312.785 290.625,312.634 290.625 C 312.601 290.625,312.315 290.911,311.999 291.260 M306.726 296.533 L 306.152 297.168 306.787 296.594 C 307.379 296.060,307.512 295.898,307.361 295.898 C 307.327 295.898,307.042 296.184,306.726 296.533 M144.434 313.086 C 145.719 314.375,146.815 315.430,146.869 315.430 C 146.923 315.430,145.915 314.375,144.629 313.086 C 143.343 311.797,142.247 310.742,142.194 310.742 C 142.140 310.742,143.148 311.797,144.434 313.086 M309.364 313.037 L 308.691 313.770 309.424 313.096 C 309.827 312.726,310.156 312.397,310.156 312.364 C 310.156 312.215,309.991 312.355,309.364 313.037 M147.852 316.272 C 147.852 316.306,148.137 316.591,148.486 316.907 L 149.121 317.480 148.547 316.846 C 148.013 316.254,147.852 316.121,147.852 316.272 M304.688 317.676 C 304.213 318.159,303.869 318.555,303.923 318.555 C 303.976 318.555,304.408 318.159,304.883 317.676 C 305.357 317.192,305.701 316.797,305.648 316.797 C 305.594 316.797,305.162 317.192,304.688 317.676 M255.713 317.127 C 255.901 317.176,256.208 317.176,256.396 317.127 C 256.584 317.078,256.431 317.038,256.055 317.038 C 255.679 317.038,255.525 317.078,255.713 317.127 M220.264 345.255 C 220.505 345.302,220.901 345.302,221.143 345.255 C 221.384 345.208,221.187 345.170,220.703 345.170 C 220.220 345.170,220.022 345.208,220.264 345.255 M233.545 345.255 C 233.787 345.302,234.182 345.302,234.424 345.255 C 234.666 345.208,234.468 345.170,233.984 345.170 C 233.501 345.170,233.303 345.208,233.545 345.255 " stroke="none" fill="#8c7c14" fill-rule="evenodd"></path><path id="path4" d="M214.746 64.844 C 215.384 65.488,215.950 66.016,216.003 66.016 C 216.057 66.016,215.579 65.488,214.941 64.844 C 214.304 64.199,213.738 63.672,213.684 63.672 C 213.630 63.672,214.108 64.199,214.746 64.844 M265.578 64.201 C 265.821 64.247,266.173 64.246,266.360 64.197 C 266.546 64.148,266.348 64.110,265.918 64.112 C 265.488 64.114,265.335 64.154,265.578 64.201 M272.119 64.197 C 272.307 64.246,272.615 64.246,272.803 64.197 C 272.991 64.148,272.837 64.108,272.461 64.108 C 272.085 64.108,271.931 64.148,272.119 64.197 M189.409 65.378 C 189.869 65.419,190.572 65.418,190.972 65.376 C 191.372 65.334,190.996 65.301,190.137 65.301 C 189.277 65.302,188.950 65.336,189.409 65.378 M300.061 88.574 C 300.062 89.219,300.098 89.459,300.142 89.108 C 300.185 88.757,300.184 88.229,300.140 87.936 C 300.095 87.642,300.059 87.930,300.061 88.574 M300.061 91.113 C 300.062 91.758,300.098 91.998,300.142 91.647 C 300.185 91.296,300.184 90.769,300.140 90.475 C 300.095 90.182,300.059 90.469,300.061 91.113 M131.335 97.119 L 130.762 97.754 131.396 97.180 C 131.746 96.865,132.031 96.579,132.031 96.545 C 132.031 96.395,131.870 96.527,131.335 97.119 M111.218 101.807 L 110.645 102.441 111.279 101.868 C 111.628 101.552,111.914 101.267,111.914 101.233 C 111.914 101.082,111.753 101.215,111.218 101.807 M231.203 104.826 C 231.446 104.872,231.798 104.871,231.985 104.822 C 232.171 104.773,231.973 104.735,231.543 104.737 C 231.113 104.739,230.960 104.779,231.203 104.826 M120.401 107.861 L 119.629 108.691 120.459 107.919 C 121.231 107.201,121.379 107.031,121.231 107.031 C 121.199 107.031,120.826 107.405,120.401 107.861 M117.468 110.986 L 116.895 111.621 117.529 111.047 C 117.878 110.732,118.164 110.446,118.164 110.413 C 118.164 110.262,118.003 110.395,117.468 110.986 M229.541 111.267 C 229.729 111.317,230.037 111.317,230.225 111.267 C 230.413 111.218,230.259 111.178,229.883 111.178 C 229.507 111.178,229.353 111.218,229.541 111.267 M162.685 116.162 L 162.012 116.895 162.744 116.221 C 163.426 115.595,163.566 115.430,163.417 115.430 C 163.385 115.430,163.055 115.759,162.685 116.162 M230.029 116.549 C 230.486 116.590,231.233 116.590,231.689 116.549 C 232.146 116.508,231.772 116.474,230.859 116.474 C 229.946 116.474,229.573 116.508,230.029 116.549 M223.779 116.739 C 224.021 116.786,224.417 116.786,224.658 116.739 C 224.900 116.693,224.702 116.655,224.219 116.655 C 223.735 116.655,223.538 116.693,223.779 116.739 M236.475 116.739 C 236.716 116.786,237.112 116.786,237.354 116.739 C 237.595 116.693,237.397 116.655,236.914 116.655 C 236.431 116.655,236.233 116.693,236.475 116.739 M159.460 119.189 L 158.887 119.824 159.521 119.251 C 159.871 118.935,160.156 118.649,160.156 118.616 C 160.156 118.465,159.995 118.598,159.460 119.189 M152.234 126.416 L 151.660 127.051 152.295 126.477 C 152.887 125.942,153.019 125.781,152.869 125.781 C 152.835 125.781,152.549 126.067,152.234 126.416 M171.969 129.541 L 169.824 131.738 172.021 129.593 C 174.062 127.601,174.307 127.344,174.167 127.344 C 174.138 127.344,173.149 128.333,171.969 129.541 M281.921 128.955 L 281.348 129.590 281.982 129.016 C 282.574 128.481,282.707 128.320,282.556 128.320 C 282.522 128.320,282.237 128.606,281.921 128.955 M149.208 129.639 L 148.535 130.371 149.268 129.698 C 149.670 129.328,150.000 128.998,150.000 128.966 C 150.000 128.816,149.835 128.957,149.208 129.639 M217.630 154.828 C 217.927 154.873,218.366 154.871,218.606 154.825 C 218.846 154.779,218.604 154.742,218.066 154.743 C 217.529 154.745,217.333 154.783,217.630 154.828 M219.583 154.828 C 219.880 154.873,220.319 154.871,220.559 154.825 C 220.800 154.779,220.557 154.742,220.020 154.743 C 219.482 154.745,219.286 154.783,219.583 154.828 M232.967 156.199 C 233.642 156.238,234.697 156.237,235.310 156.199 C 235.924 156.160,235.371 156.129,234.082 156.129 C 232.793 156.130,232.291 156.161,232.967 156.199 M285.798 165.527 C 285.800 166.064,285.837 166.261,285.882 165.964 C 285.927 165.667,285.926 165.228,285.880 164.988 C 285.833 164.747,285.797 164.990,285.798 165.527 M268.802 169.476 C 269.098 169.521,269.538 169.520,269.778 169.473 C 270.018 169.427,269.775 169.390,269.238 169.392 C 268.701 169.393,268.505 169.431,268.802 169.476 M293.022 172.070 C 293.022 172.554,293.060 172.751,293.107 172.510 C 293.153 172.268,293.153 171.873,293.107 171.631 C 293.060 171.389,293.022 171.587,293.022 172.070 M285.801 173.047 C 285.801 173.638,285.837 173.879,285.882 173.584 C 285.927 173.289,285.927 172.805,285.882 172.510 C 285.837 172.214,285.801 172.456,285.801 173.047 M264.322 175.293 C 264.323 176.045,264.358 176.329,264.400 175.923 C 264.443 175.518,264.442 174.903,264.399 174.556 C 264.356 174.209,264.321 174.541,264.322 175.293 M293.245 179.199 C 293.245 181.133,293.274 181.897,293.310 180.898 C 293.345 179.899,293.345 178.317,293.309 177.383 C 293.274 176.448,293.245 177.266,293.245 179.199 M276.225 182.227 C 276.225 182.710,276.263 182.908,276.310 182.666 C 276.356 182.424,276.356 182.029,276.310 181.787 C 276.263 181.545,276.225 181.743,276.225 182.227 M188.526 183.887 C 188.528 184.316,188.568 184.469,188.615 184.226 C 188.661 183.983,188.660 183.632,188.611 183.445 C 188.562 183.258,188.524 183.457,188.526 183.887 M284.811 185.352 C 284.811 185.728,284.851 185.881,284.900 185.693 C 284.949 185.505,284.949 185.198,284.900 185.010 C 284.851 184.822,284.811 184.976,284.811 185.352 M276.228 187.207 C 276.229 187.744,276.267 187.941,276.312 187.644 C 276.357 187.347,276.356 186.907,276.309 186.667 C 276.263 186.427,276.226 186.670,276.228 187.207 M74.069 187.109 C 74.069 187.485,74.109 187.639,74.158 187.451 C 74.207 187.263,74.207 186.956,74.158 186.768 C 74.109 186.580,74.069 186.733,74.069 187.109 M188.526 189.160 C 188.528 189.590,188.568 189.743,188.615 189.500 C 188.661 189.257,188.660 188.905,188.611 188.718 C 188.562 188.532,188.524 188.730,188.526 189.160 M73.892 191.113 C 73.893 191.865,73.928 192.149,73.971 191.744 C 74.013 191.338,74.012 190.723,73.969 190.377 C 73.926 190.030,73.891 190.361,73.892 191.113 M210.927 192.725 L 210.254 193.457 210.986 192.784 C 211.668 192.157,211.809 191.992,211.659 191.992 C 211.627 191.992,211.297 192.322,210.927 192.725 M269.507 192.241 C 269.590 192.325,271.058 192.369,272.769 192.339 L 275.879 192.284 272.617 192.187 C 270.822 192.134,269.423 192.158,269.507 192.241 M319.434 197.852 C 320.071 198.496,320.637 199.023,320.691 199.023 C 320.745 199.023,320.267 198.496,319.629 197.852 C 318.991 197.207,318.425 196.680,318.372 196.680 C 318.318 196.680,318.796 197.207,319.434 197.852 M239.889 198.047 C 239.889 198.423,239.929 198.577,239.978 198.389 C 240.028 198.201,240.028 197.893,239.978 197.705 C 239.929 197.517,239.889 197.671,239.889 198.047 M209.424 198.182 C 209.612 198.231,209.919 198.231,210.107 198.182 C 210.295 198.132,210.142 198.092,209.766 198.092 C 209.390 198.092,209.236 198.132,209.424 198.182 M233.645 202.093 C 233.942 202.138,234.382 202.137,234.622 202.091 C 234.862 202.044,234.619 202.008,234.082 202.009 C 233.545 202.010,233.348 202.048,233.645 202.093 M112.939 206.189 C 113.127 206.238,113.435 206.238,113.623 206.189 C 113.811 206.140,113.657 206.100,113.281 206.100 C 112.905 206.100,112.751 206.140,112.939 206.189 M117.041 206.189 C 117.229 206.238,117.537 206.238,117.725 206.189 C 117.913 206.140,117.759 206.100,117.383 206.100 C 117.007 206.100,116.853 206.140,117.041 206.189 M317.439 212.598 C 317.440 213.135,317.478 213.331,317.523 213.034 C 317.568 212.738,317.567 212.298,317.520 212.058 C 317.474 211.818,317.437 212.061,317.439 212.598 M96.474 213.818 L 95.801 214.551 96.533 213.878 C 97.215 213.251,97.355 213.086,97.206 213.086 C 97.174 213.086,96.844 213.416,96.474 213.818 M115.283 217.132 C 115.579 217.177,116.062 217.177,116.357 217.132 C 116.653 217.087,116.411 217.051,115.820 217.051 C 115.229 217.051,114.988 217.087,115.283 217.132 M106.634 221.240 L 105.566 222.363 106.689 221.296 C 107.307 220.709,107.813 220.203,107.813 220.173 C 107.813 220.028,107.626 220.197,106.634 221.240 M129.945 229.688 C 129.945 230.386,129.981 230.671,130.024 230.322 C 130.067 229.973,130.067 229.402,130.024 229.053 C 129.981 228.704,129.945 228.989,129.945 229.688 M77.019 234.180 C 77.019 234.985,77.053 235.315,77.095 234.912 C 77.138 234.509,77.138 233.850,77.095 233.447 C 77.053 233.044,77.019 233.374,77.019 234.180 M122.728 237.012 C 122.728 238.086,122.761 238.500,122.800 237.933 C 122.840 237.365,122.840 236.486,122.800 235.980 C 122.759 235.473,122.727 235.938,122.728 237.012 M88.522 237.695 C 88.522 238.071,88.562 238.225,88.611 238.037 C 88.660 237.849,88.660 237.542,88.611 237.354 C 88.562 237.166,88.522 237.319,88.522 237.695 M142.038 240.234 C 142.038 240.610,142.078 240.764,142.127 240.576 C 142.176 240.388,142.176 240.081,142.127 239.893 C 142.078 239.705,142.038 239.858,142.038 240.234 M332.031 241.858 C 332.031 241.892,332.317 242.177,332.666 242.493 L 333.301 243.066 332.727 242.432 C 332.192 241.840,332.031 241.707,332.031 241.858 M240.286 245.648 C 240.583 245.693,241.022 245.692,241.262 245.645 C 241.503 245.599,241.260 245.562,240.723 245.564 C 240.186 245.565,239.989 245.603,240.286 245.648 M252.981 245.648 C 253.278 245.693,253.718 245.692,253.958 245.645 C 254.198 245.599,253.955 245.562,253.418 245.564 C 252.881 245.565,252.684 245.603,252.981 245.648 M142.038 247.656 C 142.038 248.032,142.078 248.186,142.127 247.998 C 142.176 247.810,142.176 247.502,142.127 247.314 C 142.078 247.126,142.038 247.280,142.038 247.656 M121.740 248.535 C 121.741 249.180,121.778 249.420,121.821 249.069 C 121.865 248.718,121.864 248.190,121.819 247.897 C 121.775 247.603,121.739 247.891,121.740 248.535 M229.639 251.896 C 229.880 251.942,230.276 251.942,230.518 251.896 C 230.759 251.849,230.562 251.811,230.078 251.811 C 229.595 251.811,229.397 251.849,229.639 251.896 M232.666 252.088 C 232.854 252.137,233.162 252.137,233.350 252.088 C 233.538 252.039,233.384 251.998,233.008 251.998 C 232.632 251.998,232.478 252.039,232.666 252.088 M242.236 252.869 C 242.424 252.918,242.732 252.918,242.920 252.869 C 243.108 252.820,242.954 252.780,242.578 252.780 C 242.202 252.780,242.048 252.820,242.236 252.869 M246.041 253.071 C 246.387 253.114,247.003 253.115,247.408 253.072 C 247.813 253.030,247.529 252.995,246.777 252.994 C 246.025 252.993,245.694 253.028,246.041 253.071 M253.857 253.071 C 254.207 253.114,254.778 253.114,255.127 253.071 C 255.476 253.028,255.190 252.992,254.492 252.992 C 253.794 252.992,253.508 253.028,253.857 253.071 M337.182 256.152 C 337.183 257.334,337.215 257.792,337.254 257.171 C 337.293 256.549,337.292 255.582,337.253 255.022 C 337.214 254.462,337.182 254.971,337.182 256.152 M98.633 260.059 C 99.325 260.757,99.935 261.328,99.989 261.328 C 100.042 261.328,99.520 260.757,98.828 260.059 C 98.136 259.360,97.526 258.789,97.472 258.789 C 97.419 258.789,97.941 259.360,98.633 260.059 M191.087 262.988 C 191.087 264.063,191.120 264.477,191.160 263.909 C 191.199 263.342,191.199 262.463,191.159 261.956 C 191.119 261.450,191.086 261.914,191.087 262.988 M263.135 261.663 C 263.430 261.708,263.914 261.708,264.209 261.663 C 264.504 261.619,264.263 261.582,263.672 261.582 C 263.081 261.582,262.839 261.619,263.135 261.663 M244.775 262.244 C 244.963 262.293,245.271 262.293,245.459 262.244 C 245.647 262.195,245.493 262.155,245.117 262.155 C 244.741 262.155,244.587 262.195,244.775 262.244 M255.618 262.248 C 255.860 262.294,256.212 262.292,256.399 262.244 C 256.585 262.195,256.387 262.156,255.957 262.159 C 255.527 262.161,255.375 262.201,255.618 262.248 M249.752 262.446 C 250.098 262.489,250.713 262.490,251.119 262.447 C 251.524 262.405,251.240 262.370,250.488 262.369 C 249.736 262.368,249.405 262.403,249.752 262.446 M237.844 266.740 C 238.087 266.786,238.439 266.785,238.625 266.736 C 238.812 266.687,238.613 266.649,238.184 266.651 C 237.754 266.653,237.601 266.693,237.844 266.740 M248.586 266.740 C 248.829 266.786,249.181 266.785,249.368 266.736 C 249.554 266.687,249.355 266.649,248.926 266.651 C 248.496 266.653,248.343 266.693,248.586 266.740 M243.018 266.932 C 243.206 266.981,243.513 266.981,243.701 266.932 C 243.889 266.882,243.735 266.842,243.359 266.842 C 242.983 266.842,242.830 266.882,243.018 266.932 M217.871 274.023 C 218.291 274.453,218.678 274.805,218.732 274.805 C 218.785 274.805,218.486 274.453,218.066 274.023 C 217.647 273.594,217.260 273.242,217.206 273.242 C 217.152 273.242,217.452 273.594,217.871 274.023 M244.482 276.896 C 244.724 276.942,245.120 276.942,245.361 276.896 C 245.603 276.849,245.405 276.811,244.922 276.811 C 244.438 276.811,244.241 276.849,244.482 276.896 M252.002 276.898 C 252.297 276.942,252.781 276.942,253.076 276.898 C 253.372 276.853,253.130 276.816,252.539 276.816 C 251.948 276.816,251.707 276.853,252.002 276.898 M243.311 283.536 C 243.552 283.583,243.948 283.583,244.189 283.536 C 244.431 283.490,244.233 283.452,243.750 283.452 C 243.267 283.452,243.069 283.490,243.311 283.536 M253.271 283.536 C 253.513 283.583,253.909 283.583,254.150 283.536 C 254.392 283.490,254.194 283.452,253.711 283.452 C 253.228 283.452,253.030 283.490,253.271 283.536 M309.272 293.994 L 307.910 295.410 309.326 294.048 C 310.641 292.783,310.831 292.578,310.688 292.578 C 310.658 292.578,310.021 293.215,309.272 293.994 M205.469 299.316 C 205.833 299.692,206.175 300.000,206.229 300.000 C 206.283 300.000,206.028 299.692,205.664 299.316 C 205.300 298.940,204.958 298.633,204.904 298.633 C 204.850 298.633,205.104 298.940,205.469 299.316 M307.129 315.430 C 305.843 316.719,304.835 317.773,304.889 317.773 C 304.943 317.773,306.039 316.719,307.324 315.430 C 308.610 314.141,309.618 313.086,309.564 313.086 C 309.510 313.086,308.415 314.141,307.129 315.430 M249.453 317.137 C 250.388 317.173,251.970 317.173,252.969 317.138 C 253.968 317.102,253.203 317.073,251.270 317.073 C 249.336 317.073,248.519 317.102,249.453 317.137 M215.774 345.060 C 216.017 345.107,216.368 345.105,216.555 345.056 C 216.742 345.007,216.543 344.969,216.113 344.971 C 215.684 344.973,215.531 345.013,215.774 345.060 M238.330 345.057 C 238.518 345.106,238.826 345.106,239.014 345.057 C 239.202 345.007,239.048 344.967,238.672 344.967 C 238.296 344.967,238.142 345.007,238.330 345.057 M223.000 345.451 C 223.243 345.497,223.595 345.496,223.782 345.447 C 223.968 345.398,223.770 345.360,223.340 345.362 C 222.910 345.364,222.757 345.404,223.000 345.451 M231.008 345.451 C 231.251 345.497,231.603 345.496,231.789 345.447 C 231.976 345.398,231.777 345.360,231.348 345.362 C 230.918 345.364,230.765 345.404,231.008 345.451 " stroke="none" fill="#cfb814" fill-rule="evenodd"></path></g></svg>