<svg id="svg" version="1.1" xmlns="http://www.w3.org/2000/svg" xmlns:xlink="http://www.w3.org/1999/xlink" width="400" height="456.16666666666663" viewBox="0, 0, 400,456.16666666666663"><g id="svgg"><path id="path0" d="M181.538 1.225 C 181.492 1.271,180.706 1.326,179.791 1.346 C 176.898 1.410,170.781 2.511,167.200 3.614 C 166.184 3.927,165.256 4.184,165.138 4.186 C 165.020 4.188,164.201 4.487,163.317 4.851 C 162.433 5.215,161.597 5.513,161.459 5.513 C 161.321 5.513,160.676 5.762,160.025 6.066 C 159.373 6.371,157.856 7.071,156.654 7.622 C 155.452 8.174,154.149 8.823,153.759 9.065 C 153.368 9.308,153.003 9.506,152.947 9.506 C 152.890 9.506,152.495 9.726,152.069 9.995 C 151.642 10.265,150.895 10.706,150.409 10.975 C 148.904 11.809,144.531 14.782,143.631 15.582 C 143.317 15.861,142.878 16.212,142.655 16.362 C 138.739 18.996,129.793 27.974,125.518 33.560 C 123.743 35.880,121.738 38.550,121.579 38.804 C 121.081 39.602,120.198 40.854,119.634 41.560 C 119.292 41.989,119.011 42.408,119.011 42.492 C 119.011 42.576,118.776 42.952,118.489 43.327 C 118.011 43.951,117.494 44.754,116.213 46.863 C 115.959 47.281,115.375 48.222,114.915 48.954 C 114.454 49.686,113.819 50.756,113.502 51.331 C 113.186 51.906,112.659 52.847,112.332 53.422 C 109.295 58.765,105.094 67.454,102.131 74.525 C 100.327 78.829,100.000 79.637,100.003 79.786 C 100.004 79.872,99.717 80.670,99.365 81.559 C 99.012 82.448,98.617 83.474,98.486 83.840 C 98.355 84.206,97.821 85.703,97.298 87.167 C 96.776 88.631,96.192 90.342,96.001 90.970 C 95.811 91.597,95.440 92.752,95.178 93.536 C 94.357 95.992,92.130 103.435,91.907 104.468 C 91.839 104.781,91.542 105.894,91.245 106.939 C 90.949 107.985,90.609 109.409,90.489 110.105 L 90.272 111.369 88.880 111.863 C 88.114 112.135,87.416 112.356,87.327 112.355 C 87.239 112.354,86.183 112.664,84.981 113.045 C 83.779 113.426,81.896 114.016,80.798 114.356 C 79.701 114.697,77.647 115.336,76.236 115.776 C 74.824 116.216,72.728 116.867,71.578 117.222 C 68.852 118.065,65.836 118.999,63.118 119.843 C 61.915 120.216,59.948 120.824,58.745 121.194 C 56.013 122.033,52.996 122.975,50.285 123.836 C 49.135 124.202,47.894 124.585,47.529 124.688 C 39.292 127.012,36.459 129.301,35.376 134.506 C 35.075 135.955,34.254 141.315,34.022 143.346 C 33.909 144.339,33.526 147.334,33.172 150.000 C 32.818 152.666,32.219 157.243,31.842 160.171 C 31.464 163.099,30.862 167.676,30.505 170.342 C 30.148 173.009,29.806 175.661,29.744 176.236 C 29.683 176.811,29.387 179.078,29.087 181.274 C 28.787 183.470,28.493 185.779,28.434 186.407 C 28.375 187.034,28.027 189.772,27.660 192.490 C 26.893 198.182,26.492 201.250,23.657 223.194 C 23.285 226.069,22.686 230.561,22.325 233.175 C 21.964 235.789,21.672 238.184,21.676 238.498 C 21.680 238.812,21.387 241.207,21.024 243.821 C 20.662 246.435,20.055 251.012,19.675 253.992 C 19.295 256.972,18.726 261.293,18.411 263.593 C 18.096 265.894,17.760 268.546,17.665 269.487 C 17.570 270.428,17.196 273.379,16.835 276.046 C 15.396 286.677,15.002 289.687,14.908 290.779 C 14.854 291.407,14.559 293.674,14.253 295.817 C 13.947 297.961,13.646 300.314,13.584 301.046 C 13.521 301.778,13.227 304.045,12.928 306.084 C 12.630 308.123,12.334 310.347,12.271 311.027 C 12.207 311.706,11.857 314.529,11.492 317.300 C 10.643 323.740,9.701 330.994,8.837 337.738 C 8.462 340.665,7.865 345.285,7.511 348.004 C 7.157 350.722,6.559 355.342,6.183 358.270 C 5.807 361.198,5.201 365.775,4.837 368.441 C 4.473 371.107,4.094 374.102,3.994 375.095 C 3.894 376.088,3.604 378.356,3.349 380.133 C 3.094 381.911,2.829 383.964,2.760 384.696 C 2.691 385.428,2.389 387.738,2.089 389.829 C 1.788 391.920,1.490 394.230,1.427 394.962 C 1.363 395.694,1.016 398.324,0.655 400.806 C 0.295 403.288,-0.000 405.648,0.000 406.052 L 0.000 406.785 1.568 407.098 C 2.431 407.271,3.522 407.462,3.992 407.522 C 4.463 407.583,6.046 407.888,7.510 408.200 C 8.973 408.512,10.684 408.834,11.312 408.916 C 11.939 408.998,13.779 409.328,15.399 409.649 C 17.020 409.970,20.014 410.542,22.053 410.922 C 28.592 412.138,32.915 412.954,35.741 413.505 C 37.258 413.801,38.840 414.091,39.259 414.150 C 39.966 414.249,42.075 414.641,50.570 416.255 C 52.400 416.602,55.608 417.204,57.700 417.592 C 59.791 417.979,62.956 418.586,64.734 418.939 C 66.511 419.293,68.479 419.654,69.106 419.743 C 69.734 419.831,71.573 420.165,73.194 420.484 C 75.965 421.030,78.000 421.415,87.072 423.108 C 89.111 423.488,92.319 424.087,94.202 424.438 C 96.084 424.790,99.292 425.387,101.331 425.764 C 103.370 426.142,106.279 426.699,107.795 427.003 C 109.311 427.306,110.936 427.607,111.407 427.671 C 111.877 427.735,113.760 428.075,115.589 428.428 C 119.767 429.233,125.984 430.404,130.798 431.293 C 132.837 431.669,135.746 432.227,137.262 432.533 C 138.779 432.838,140.404 433.136,140.875 433.195 C 141.345 433.253,142.757 433.515,144.011 433.777 C 145.266 434.039,147.106 434.378,148.099 434.532 C 149.092 434.686,150.889 435.025,152.091 435.286 C 153.294 435.548,154.791 435.828,155.418 435.910 C 156.046 435.992,157.885 436.322,159.506 436.644 C 161.126 436.966,164.163 437.546,166.255 437.932 C 168.346 438.319,171.486 438.925,173.232 439.279 C 174.978 439.634,176.579 439.924,176.789 439.924 C 176.999 439.924,178.436 440.186,179.983 440.506 C 181.529 440.826,183.522 441.202,184.411 441.342 C 185.299 441.482,187.053 441.814,188.308 442.080 C 189.563 442.346,191.017 442.616,191.540 442.680 C 192.063 442.744,193.645 443.042,195.057 443.341 C 196.469 443.640,198.051 443.943,198.574 444.014 C 199.097 444.085,200.979 444.424,202.757 444.767 C 204.534 445.110,207.700 445.710,209.791 446.099 C 211.882 446.489,215.090 447.091,216.920 447.437 C 218.750 447.783,221.958 448.382,224.049 448.767 C 226.141 449.152,229.092 449.715,230.608 450.018 C 232.125 450.321,233.995 450.656,234.766 450.762 C 235.536 450.869,237.076 451.160,238.188 451.411 C 239.299 451.661,240.637 451.924,241.160 451.995 C 242.648 452.198,242.678 452.204,246.293 452.915 C 253.120 454.257,255.064 454.628,256.464 454.852 C 257.248 454.978,258.232 455.142,258.650 455.216 C 259.118 455.300,259.317 455.286,259.167 455.180 C 258.969 455.040,258.977 453.976,259.212 449.510 C 259.371 446.486,259.674 440.375,259.886 435.932 C 260.097 431.488,260.483 423.617,260.744 418.441 C 261.004 413.265,261.346 406.250,261.504 402.852 C 261.661 399.453,262.001 392.438,262.259 387.262 C 262.517 382.087,262.775 376.868,262.833 375.665 C 262.891 374.463,263.189 368.389,263.496 362.167 C 263.802 355.946,264.144 348.888,264.255 346.483 C 264.366 344.078,264.625 338.817,264.830 334.791 C 265.035 330.765,265.333 324.691,265.493 321.293 C 265.652 317.894,266.037 309.938,266.349 303.612 C 267.036 289.686,268.249 264.885,269.677 235.551 C 269.736 234.349,270.035 228.232,270.343 221.958 C 270.651 215.684,270.950 209.567,271.008 208.365 C 271.066 207.163,271.365 201.046,271.673 194.772 C 271.981 188.498,272.280 182.381,272.338 181.179 C 272.397 179.976,272.695 173.902,273.002 167.681 C 273.309 161.459,273.651 154.401,273.762 151.996 C 273.872 149.591,274.132 144.330,274.338 140.304 C 274.545 136.279,274.885 129.263,275.095 124.715 C 275.305 120.166,275.562 114.905,275.667 113.023 C 275.772 111.141,276.028 105.965,276.238 101.521 C 276.447 97.077,276.873 88.265,277.185 81.939 C 277.497 75.613,277.927 66.896,278.140 62.568 C 278.353 58.240,278.474 54.647,278.409 54.584 C 277.568 53.755,273.071 54.702,264.436 57.526 C 263.332 57.888,262.226 58.222,261.980 58.269 C 261.733 58.317,260.983 58.538,260.312 58.762 C 259.641 58.985,259.025 59.094,258.943 59.004 C 258.812 58.861,257.505 55.505,256.731 53.327 C 255.864 50.887,252.012 42.917,250.346 40.114 C 247.210 34.840,243.411 29.914,239.705 26.316 C 238.001 24.660,234.395 21.673,234.101 21.673 C 234.023 21.673,233.783 21.508,233.567 21.307 C 232.355 20.174,224.492 16.343,223.384 16.345 C 223.227 16.345,222.457 16.141,221.673 15.892 C 219.361 15.158,216.874 14.820,212.880 14.696 C 210.815 14.632,209.125 14.507,209.125 14.418 C 209.125 13.773,204.174 8.829,201.426 6.730 C 197.826 3.981,192.409 1.679,188.688 1.317 C 186.912 1.145,181.686 1.077,181.538 1.225 M186.242 17.383 C 187.793 17.656,190.875 19.008,190.875 19.415 C 190.875 19.518,190.411 19.815,189.844 20.075 C 188.614 20.638,185.580 22.361,185.156 22.737 C 184.991 22.884,184.796 23.004,184.722 23.004 C 184.544 23.004,181.556 25.100,181.132 25.523 C 180.949 25.706,180.729 25.856,180.644 25.856 C 180.559 25.856,180.324 26.007,180.121 26.191 C 179.919 26.376,179.522 26.705,179.241 26.923 C 177.976 27.902,174.797 30.732,173.588 31.956 C 171.695 33.873,168.571 37.328,168.020 38.114 C 167.945 38.221,167.518 38.747,167.070 39.283 C 166.178 40.351,164.196 43.041,163.593 44.002 C 163.384 44.336,162.813 45.213,162.325 45.952 C 161.356 47.418,159.987 49.656,159.326 50.856 C 159.095 51.274,158.573 52.215,158.166 52.947 C 156.995 55.050,153.992 61.205,153.992 61.503 C 153.992 61.564,153.693 62.254,153.327 63.036 C 152.961 63.817,152.662 64.530,152.662 64.619 C 152.662 64.709,152.438 65.284,152.166 65.898 C 151.086 68.331,147.678 78.582,147.275 80.608 C 147.224 80.870,146.921 82.025,146.602 83.175 C 145.754 86.240,144.677 90.796,144.677 91.321 C 144.677 91.765,144.004 94.673,143.882 94.754 C 143.768 94.831,138.920 96.357,132.985 98.186 C 126.781 100.097,123.420 101.146,120.152 102.190 C 118.950 102.575,117.795 102.922,117.586 102.962 C 117.154 103.045,113.781 104.101,110.887 105.059 C 109.817 105.413,108.864 105.703,108.770 105.703 C 108.503 105.703,111.274 96.915,113.326 91.255 C 114.982 86.689,115.169 86.182,115.682 84.886 C 115.972 84.154,116.497 82.895,116.850 82.089 C 117.202 81.283,117.490 80.536,117.490 80.429 C 117.490 80.322,117.783 79.613,118.140 78.853 C 118.496 78.093,119.060 76.830,119.393 76.046 C 120.095 74.386,120.486 73.545,122.702 68.916 C 123.603 67.034,124.427 65.366,124.533 65.209 C 124.640 65.052,125.030 64.325,125.400 63.593 C 125.771 62.861,126.435 61.621,126.877 60.837 C 127.318 60.052,127.965 58.897,128.314 58.270 C 128.662 57.643,129.033 57.021,129.138 56.889 C 129.242 56.757,129.466 56.396,129.635 56.085 C 130.222 55.009,131.053 53.693,132.820 51.046 C 135.052 47.702,134.944 47.854,136.879 45.269 C 137.769 44.078,138.665 42.880,138.870 42.607 C 141.405 39.217,147.515 32.835,150.809 30.136 C 151.828 29.302,152.662 28.553,152.662 28.473 C 152.662 28.393,152.778 28.327,152.921 28.327 C 153.063 28.327,153.384 28.129,153.634 27.887 C 153.883 27.645,154.472 27.190,154.943 26.875 C 155.413 26.560,156.448 25.860,157.241 25.319 C 158.035 24.777,158.749 24.335,158.828 24.335 C 158.907 24.335,159.220 24.158,159.524 23.941 C 159.990 23.610,160.781 23.174,163.268 21.878 C 169.660 18.547,180.645 16.398,186.242 17.383 M219.522 31.098 C 225.240 32.421,231.636 37.820,235.833 44.867 C 236.238 45.547,236.804 46.488,237.092 46.958 C 238.088 48.590,239.573 51.641,241.163 55.323 C 241.768 56.725,243.163 60.399,243.772 62.197 L 244.266 63.653 242.288 64.336 C 241.200 64.712,240.216 65.019,240.102 65.019 C 239.987 65.019,239.023 65.307,237.960 65.658 C 236.897 66.010,234.957 66.621,233.650 67.016 C 231.016 67.813,227.687 68.856,224.843 69.774 C 223.815 70.105,222.943 70.345,222.904 70.306 C 222.865 70.267,222.815 68.013,222.792 65.298 C 222.745 59.756,222.576 56.470,222.135 52.567 C 221.970 51.103,221.757 49.135,221.662 48.194 C 221.424 45.841,220.231 39.681,219.545 37.262 C 219.233 36.164,218.905 34.915,218.816 34.486 C 218.726 34.057,218.434 33.079,218.167 32.314 C 217.899 31.549,217.681 30.894,217.681 30.860 C 217.681 30.732,218.268 30.808,219.522 31.098 M202.752 37.928 C 202.891 38.451,203.224 39.648,203.492 40.589 C 204.129 42.832,205.513 49.220,205.514 49.924 C 205.515 50.227,205.686 51.630,205.894 53.042 C 206.600 57.822,206.840 61.209,206.967 68.222 L 207.094 75.214 206.541 75.433 C 206.237 75.554,205.732 75.705,205.418 75.769 C 205.105 75.833,203.950 76.175,202.852 76.528 C 201.754 76.882,199.829 77.486,198.574 77.871 C 197.319 78.257,195.394 78.852,194.297 79.195 C 192.316 79.813,189.930 80.553,185.361 81.965 C 184.054 82.369,182.044 82.997,180.894 83.359 C 179.743 83.722,177.818 84.320,176.616 84.688 C 170.881 86.444,166.328 87.856,163.984 88.608 C 161.935 89.265,162.084 89.493,162.855 86.882 C 164.660 80.770,165.370 78.621,166.683 75.285 C 166.951 74.606,167.318 73.617,167.498 73.088 C 167.679 72.560,168.051 71.686,168.324 71.146 C 168.598 70.606,168.821 70.077,168.821 69.970 C 168.821 69.606,172.405 62.479,173.844 59.981 C 174.812 58.302,177.910 53.587,178.795 52.448 C 179.008 52.173,179.354 51.710,179.563 51.418 C 180.302 50.385,181.658 48.761,181.987 48.516 C 182.170 48.379,182.319 48.174,182.319 48.059 C 182.319 47.944,182.640 47.542,183.032 47.166 C 183.424 46.790,184.142 46.054,184.627 45.532 C 185.560 44.526,188.117 42.115,189.263 41.160 C 189.640 40.846,190.049 40.500,190.173 40.392 C 190.707 39.924,193.523 37.833,193.618 37.833 C 193.676 37.833,194.266 37.469,194.930 37.025 C 196.799 35.775,199.811 34.138,200.760 33.857 C 201.265 33.708,202.058 35.331,202.752 37.928 M180.552 156.653 C 189.120 157.086,194.808 157.901,201.329 159.628 C 204.799 160.547,211.407 162.996,211.407 163.364 C 211.407 163.400,209.180 170.053,206.458 178.150 C 203.737 186.246,200.058 197.191,198.284 202.471 C 196.510 207.752,194.857 212.667,194.609 213.394 C 194.084 214.937,194.012 214.983,192.952 214.442 C 188.233 212.034,179.272 209.186,172.973 208.091 C 149.053 203.933,133.518 210.733,131.953 226.046 C 131.348 231.961,133.272 236.183,139.187 241.921 C 142.253 244.895,144.590 246.762,153.517 253.367 C 155.900 255.130,159.658 257.956,161.006 258.998 C 161.570 259.434,162.254 259.959,162.527 260.165 C 171.227 266.719,178.590 274.594,184.396 283.555 C 185.159 284.733,188.456 291.421,188.848 292.586 C 189.006 293.056,189.345 293.997,189.602 294.677 C 190.727 297.661,191.900 302.718,192.623 307.700 C 192.963 310.045,192.962 322.333,192.621 325.190 C 188.039 363.634,163.520 387.009,127.852 386.938 C 102.798 386.888,78.932 377.386,62.844 361.056 L 61.145 359.331 61.867 356.994 C 62.264 355.709,62.828 353.888,63.121 352.947 C 63.413 352.006,64.009 350.038,64.444 348.574 C 65.621 344.613,67.686 337.757,68.623 334.696 C 68.911 333.755,69.458 331.958,69.839 330.703 C 70.519 328.461,71.163 326.339,72.450 322.104 C 73.087 320.007,73.305 319.693,73.751 320.231 C 73.996 320.527,78.563 324.029,80.228 325.198 C 88.748 331.182,96.567 335.282,104.183 337.760 C 119.007 342.584,129.534 339.013,133.392 327.852 L 134.115 325.760 134.117 322.243 C 134.119 318.477,134.009 317.697,133.037 314.639 C 130.985 308.179,126.327 302.638,115.694 294.011 C 107.153 287.082,103.878 284.236,100.706 280.989 C 95.860 276.027,92.324 271.177,89.688 265.875 C 84.586 255.610,82.809 242.077,84.802 228.665 C 85.008 227.276,85.263 225.542,85.369 224.810 C 86.635 216.058,91.249 204.003,96.539 195.627 C 111.720 171.594,137.471 158.085,170.817 156.662 C 175.692 156.454,176.592 156.453,180.552 156.653 " stroke="none" fill="#93bb44" fill-rule="evenodd"></path><path id="path1" d="M170.722 156.782 C 130.555 158.264,100.122 178.981,88.664 212.643 C 82.869 229.666,82.738 248.925,88.324 262.516 C 92.630 272.991,99.086 280.463,114.639 292.971 C 123.374 299.997,128.440 305.176,131.006 309.703 C 137.497 321.158,134.328 334.178,123.980 338.571 C 113.535 343.005,95.486 337.007,76.964 322.946 C 72.809 319.792,73.214 320.063,73.112 320.368 C 73.065 320.511,72.516 322.338,71.892 324.430 C 71.269 326.521,70.314 329.686,69.771 331.464 C 69.228 333.241,68.579 335.380,68.329 336.217 C 68.079 337.053,67.573 338.721,67.205 339.924 C 66.838 341.126,66.331 342.795,66.080 343.631 C 65.711 344.862,62.843 354.341,61.666 358.222 C 61.314 359.383,61.283 359.334,64.098 362.080 C 89.457 386.813,133.909 394.379,160.741 378.529 C 180.940 366.597,192.227 345.212,192.721 317.936 C 193.066 298.877,187.987 285.678,174.818 271.411 C 170.399 266.624,164.089 261.342,153.327 253.420 C 139.232 243.044,134.831 238.769,132.716 233.394 C 129.761 225.886,133.141 216.360,140.474 211.529 C 151.380 204.344,173.588 205.385,192.263 213.958 C 193.080 214.332,193.816 214.639,193.900 214.639 C 193.983 214.639,194.660 212.821,195.403 210.599 C 196.696 206.732,206.130 178.657,209.591 168.376 C 210.501 165.674,211.217 163.439,211.183 163.409 C 210.961 163.212,208.939 162.310,207.414 161.727 C 197.745 158.034,184.646 156.269,170.722 156.782 " stroke="none" fill="#fbfbfb" fill-rule="evenodd"></path><path id="path2" d="M278.444 56.416 C 278.376 57.436,278.108 62.804,277.848 68.346 C 277.588 73.888,277.206 81.759,276.999 85.837 C 276.792 89.914,276.492 96.074,276.331 99.525 C 276.171 102.975,275.873 109.049,275.670 113.023 C 275.466 116.996,275.208 122.258,275.096 124.715 C 274.984 127.172,274.684 133.332,274.429 138.403 C 274.174 143.474,273.874 149.591,273.762 151.996 C 273.651 154.401,273.309 161.459,273.002 167.681 C 272.695 173.902,272.397 179.976,272.338 181.179 C 272.280 182.381,271.981 188.498,271.673 194.772 C 271.365 201.046,271.066 207.163,271.008 208.365 C 270.950 209.567,270.651 215.684,270.343 221.958 C 270.035 228.232,269.736 234.349,269.677 235.551 C 268.249 264.885,267.036 289.686,266.349 303.612 C 266.037 309.938,265.652 317.894,265.493 321.293 C 265.333 324.691,265.035 330.765,264.830 334.791 C 264.625 338.817,264.366 344.078,264.255 346.483 C 264.144 348.888,263.802 355.946,263.496 362.167 C 263.189 368.389,262.891 374.463,262.833 375.665 C 262.774 376.868,262.476 382.942,262.169 389.163 C 261.862 395.385,261.520 402.443,261.409 404.848 C 261.297 407.253,260.997 413.370,260.742 418.441 C 260.487 423.512,260.187 429.672,260.075 432.129 C 259.809 437.952,259.169 450.690,259.016 453.209 L 258.895 455.182 259.948 455.050 C 260.851 454.937,263.225 454.417,265.589 453.814 C 265.955 453.721,266.644 453.594,267.119 453.533 C 267.595 453.472,268.793 453.212,269.781 452.956 C 271.610 452.482,272.230 452.354,273.416 452.202 C 274.249 452.095,277.309 451.377,277.947 451.139 C 278.208 451.041,278.850 450.914,279.373 450.857 C 279.895 450.800,281.521 450.467,282.985 450.116 C 284.449 449.765,286.160 449.392,286.787 449.286 C 287.414 449.180,288.099 449.046,288.308 448.988 C 290.125 448.482,290.984 448.292,292.272 448.114 C 293.093 448.000,293.842 447.860,293.935 447.802 C 294.029 447.744,294.255 447.665,294.438 447.625 C 294.622 447.586,295.627 447.372,296.673 447.151 C 297.719 446.930,299.301 446.584,300.190 446.382 C 303.071 445.728,303.686 445.596,305.038 445.339 C 305.770 445.200,307.251 444.866,308.330 444.597 C 309.408 444.327,310.500 444.106,310.757 444.106 C 311.014 444.106,311.842 443.941,312.599 443.738 C 313.355 443.536,314.187 443.331,314.449 443.284 C 314.710 443.236,315.266 443.105,315.684 442.992 C 316.103 442.880,316.852 442.739,317.349 442.679 C 317.846 442.620,319.258 442.325,320.486 442.023 C 321.714 441.722,323.061 441.425,323.479 441.363 C 323.897 441.302,325.309 440.998,326.616 440.689 C 329.433 440.023,332.963 439.252,335.076 438.841 C 335.913 438.678,337.452 438.334,338.498 438.077 C 340.737 437.526,341.627 437.340,342.741 437.190 C 343.192 437.130,343.898 436.993,344.309 436.886 C 344.721 436.779,345.413 436.599,345.848 436.485 C 346.904 436.209,347.277 436.134,348.289 435.997 C 348.760 435.934,350.128 435.627,351.331 435.316 C 352.533 435.005,353.988 434.682,354.563 434.598 C 355.936 434.398,357.581 434.049,358.175 433.833 C 358.436 433.738,358.907 433.611,359.221 433.551 C 359.534 433.492,359.983 433.402,360.219 433.353 C 360.454 433.303,360.882 433.229,361.169 433.188 C 361.457 433.147,362.120 433.019,362.643 432.904 C 363.165 432.788,363.807 432.650,364.068 432.595 C 364.330 432.541,364.985 432.371,365.524 432.218 C 366.062 432.065,366.704 431.938,366.949 431.937 C 367.195 431.935,368.422 431.675,369.677 431.359 C 370.932 431.042,372.300 430.741,372.719 430.689 C 373.137 430.638,373.821 430.519,374.240 430.427 C 375.984 430.040,377.692 429.615,378.137 429.457 C 378.398 429.364,378.954 429.248,379.373 429.198 C 380.480 429.067,381.842 428.787,383.963 428.254 C 384.993 427.995,386.435 427.685,387.167 427.566 C 387.899 427.446,388.712 427.271,388.973 427.177 C 389.235 427.083,389.663 426.966,389.924 426.917 C 392.127 426.502,393.026 426.313,395.437 425.754 C 396.953 425.402,398.451 425.089,398.764 425.057 C 399.210 425.013,399.323 424.917,399.283 424.620 C 399.239 424.293,399.070 423.194,398.773 421.293 C 398.733 421.031,398.640 420.261,398.567 419.582 C 398.494 418.902,398.412 418.218,398.384 418.061 C 398.357 417.904,398.275 417.391,398.202 416.920 C 398.130 416.450,397.915 415.166,397.724 414.068 C 397.533 412.971,397.280 411.204,397.160 410.143 C 397.041 409.081,396.911 408.044,396.871 407.838 C 396.832 407.631,396.747 407.131,396.684 406.726 C 396.621 406.320,396.446 405.261,396.296 404.373 C 396.147 403.484,395.973 402.158,395.910 401.426 C 395.848 400.694,395.721 399.753,395.628 399.335 C 395.535 398.916,395.404 398.146,395.337 397.624 C 395.270 397.101,395.134 396.300,395.036 395.845 C 394.937 395.389,394.812 394.534,394.759 393.944 C 394.653 392.773,394.575 392.255,393.746 387.167 C 393.440 385.285,393.138 383.189,393.075 382.510 C 393.013 381.830,392.923 381.060,392.877 380.798 C 392.830 380.537,392.703 379.767,392.595 379.087 C 392.486 378.408,392.351 377.638,392.295 377.376 C 392.238 377.115,392.106 376.174,392.000 375.285 C 391.800 373.595,391.746 373.228,390.986 368.441 C 390.728 366.820,390.478 365.109,390.430 364.639 C 390.382 364.168,390.085 362.158,389.769 360.171 C 389.454 358.184,389.141 355.923,389.075 355.146 C 389.008 354.369,388.924 353.685,388.887 353.625 C 388.821 353.518,388.687 352.755,388.492 351.378 C 388.436 350.986,388.313 350.280,388.218 349.810 C 388.036 348.913,387.915 348.001,387.726 346.103 C 387.663 345.475,387.529 344.534,387.429 344.011 C 386.961 341.581,386.523 338.759,386.425 337.548 C 386.367 336.816,386.266 335.960,386.203 335.646 C 386.077 335.025,386.040 334.789,385.844 333.365 C 385.772 332.842,385.635 332.110,385.540 331.737 C 385.444 331.365,385.279 330.253,385.173 329.266 C 384.933 327.041,384.922 326.965,384.342 323.479 C 384.081 321.911,383.817 320.048,383.754 319.339 C 383.655 318.227,383.335 316.148,382.956 314.163 C 382.760 313.135,382.694 312.664,382.510 310.932 C 382.409 309.990,382.283 309.007,382.229 308.745 C 382.174 308.484,382.081 307.885,382.022 307.414 C 381.963 306.944,381.880 306.431,381.838 306.274 C 381.797 306.117,381.721 305.732,381.669 305.418 C 381.618 305.105,381.534 304.591,381.482 304.278 C 381.158 302.304,380.994 301.086,380.906 300.000 C 380.851 299.320,380.718 298.379,380.610 297.909 C 380.267 296.410,379.658 292.375,379.658 291.603 C 379.658 291.194,379.534 290.242,379.382 289.488 C 379.230 288.735,379.058 287.772,378.998 287.350 C 378.939 286.927,378.859 286.414,378.819 286.209 C 378.710 285.642,378.357 283.167,378.143 281.464 C 378.037 280.627,377.828 279.259,377.678 278.422 C 377.528 277.586,377.353 276.516,377.290 276.046 C 377.226 275.575,377.138 274.976,377.094 274.715 C 377.049 274.453,376.962 273.641,376.901 272.909 C 376.839 272.177,376.714 271.279,376.622 270.913 C 376.530 270.547,376.410 269.905,376.354 269.487 C 376.298 269.068,376.161 268.256,376.049 267.681 C 375.937 267.106,375.797 266.036,375.739 265.304 C 375.647 264.160,375.116 260.622,374.810 259.125 C 374.604 258.120,374.353 256.318,374.254 255.133 C 374.196 254.453,374.107 253.687,374.055 253.430 C 374.003 253.172,373.913 252.616,373.855 252.194 C 373.756 251.479,373.439 249.701,373.294 249.049 C 373.232 248.769,373.114 247.799,372.911 245.913 C 372.774 244.637,372.647 243.800,372.433 242.776 C 372.228 241.789,372.139 241.204,371.856 238.973 C 371.587 236.854,371.128 233.797,370.899 232.605 C 370.799 232.082,370.675 231.312,370.624 230.894 C 370.574 230.475,370.489 229.919,370.436 229.658 C 370.383 229.396,370.299 228.696,370.251 228.101 C 370.154 226.931,370.133 226.789,369.584 223.669 C 369.381 222.519,369.125 220.765,369.014 219.772 C 368.727 217.197,368.601 216.272,368.517 216.133 C 368.411 215.956,367.683 211.197,367.489 209.411 C 367.316 207.817,367.243 207.310,367.051 206.369 C 366.987 206.055,366.889 205.478,366.833 205.086 C 366.676 203.994,366.518 203.036,366.422 202.590 C 366.374 202.368,366.255 201.459,366.158 200.570 C 365.935 198.544,365.808 197.565,365.687 196.958 C 365.275 194.890,364.842 192.032,364.737 190.691 C 364.667 189.806,364.570 189.016,364.521 188.937 C 364.472 188.857,364.401 188.555,364.363 188.265 C 364.272 187.562,364.079 186.291,363.993 185.829 C 363.800 184.792,363.500 182.676,363.413 181.749 C 363.360 181.174,363.224 180.190,363.112 179.563 C 362.565 176.504,362.336 175.049,362.158 173.479 C 361.812 170.447,361.787 170.254,361.683 169.802 C 361.627 169.557,361.535 169.001,361.479 168.566 C 361.423 168.131,361.304 167.476,361.214 167.110 C 361.054 166.454,360.950 165.647,360.740 163.403 C 360.681 162.776,360.596 162.134,360.552 161.977 C 360.338 161.223,359.651 156.938,359.500 155.418 C 359.407 154.477,359.193 152.894,359.026 151.901 C 358.598 149.367,358.607 149.427,358.464 148.483 C 358.392 148.015,358.293 147.565,358.242 147.484 C 358.192 147.403,358.150 146.973,358.149 146.529 C 358.148 145.814,357.946 144.190,357.716 143.037 C 357.672 142.815,357.584 142.302,357.521 141.897 C 357.458 141.491,357.278 140.479,357.122 139.646 C 356.965 138.814,356.795 137.530,356.744 136.794 C 356.693 136.058,356.606 135.242,356.551 134.981 C 356.434 134.429,356.372 134.064,355.807 130.608 C 355.747 130.242,355.610 129.259,355.501 128.422 C 355.164 125.819,354.768 123.183,354.387 121.008 C 354.186 119.857,354.000 118.446,353.974 117.871 C 353.948 117.296,353.859 116.611,353.778 116.350 C 353.696 116.088,353.587 115.490,353.536 115.019 C 353.485 114.548,353.357 113.693,353.252 113.118 C 352.922 111.322,352.800 110.456,352.577 108.365 C 352.527 107.894,352.449 107.338,352.405 107.129 C 352.360 106.920,352.269 106.321,352.201 105.798 C 352.134 105.276,351.915 103.864,351.715 102.662 C 351.515 101.459,351.306 99.998,351.252 99.415 C 351.198 98.832,351.017 97.592,350.850 96.659 C 350.419 94.259,350.048 91.745,349.912 90.310 C 349.801 89.140,349.160 87.452,348.826 87.452 C 348.740 87.452,348.669 87.326,348.669 87.171 C 348.669 87.016,348.455 86.836,348.194 86.770 C 347.933 86.704,347.719 86.581,347.719 86.497 C 347.719 86.049,345.600 85.672,341.920 85.465 C 337.398 85.209,336.375 85.143,335.837 85.072 C 335.126 84.979,331.112 84.650,328.707 84.488 C 327.714 84.421,326.858 84.341,326.805 84.311 C 326.752 84.280,325.554 84.203,324.143 84.138 C 320.554 83.974,317.810 83.783,315.684 83.551 C 315.371 83.517,313.789 83.381,312.169 83.249 L 309.224 83.009 307.958 81.856 C 307.262 81.222,306.683 80.637,306.673 80.557 C 306.663 80.476,306.174 79.963,305.588 79.416 C 305.002 78.869,304.425 78.309,304.305 78.171 C 304.185 78.033,303.881 77.734,303.629 77.506 C 303.377 77.278,303.034 76.935,302.868 76.745 C 301.971 75.716,299.447 73.242,298.993 72.948 C 298.704 72.760,298.512 72.535,298.566 72.446 C 298.621 72.358,298.362 72.055,297.992 71.772 C 297.062 71.063,295.817 69.824,295.817 69.608 C 295.817 69.510,295.518 69.253,295.152 69.037 C 294.786 68.821,294.487 68.557,294.487 68.452 C 294.487 68.346,293.745 67.552,292.838 66.687 C 291.932 65.822,289.057 62.991,286.451 60.396 C 281.670 55.636,280.253 54.563,278.748 54.563 C 278.648 54.563,278.511 55.397,278.444 56.416 " stroke="none" fill="#5c8c3c" fill-rule="evenodd"></path><path id="path3" d="M170.488 156.792 C 170.830 156.834,171.343 156.833,171.629 156.790 C 171.915 156.746,171.635 156.712,171.008 156.713 C 170.380 156.714,170.146 156.749,170.488 156.792 M180.278 156.790 C 180.567 156.834,180.995 156.833,181.229 156.788 C 181.463 156.743,181.226 156.707,180.703 156.708 C 180.181 156.710,179.989 156.747,180.278 156.790 M109.021 180.466 L 108.270 181.274 109.078 180.522 C 109.829 179.823,109.973 179.658,109.829 179.658 C 109.798 179.658,109.435 180.021,109.021 180.466 M105.883 183.603 L 105.228 184.316 105.941 183.660 C 106.605 183.051,106.741 182.890,106.596 182.890 C 106.564 182.890,106.244 183.211,105.883 183.603 M159.173 206.794 C 159.774 206.832,160.758 206.832,161.359 206.794 C 161.961 206.757,161.469 206.726,160.266 206.726 C 159.064 206.726,158.572 206.757,159.173 206.794 M131.618 228.042 C 131.619 228.669,131.654 228.903,131.697 228.561 C 131.739 228.220,131.738 227.706,131.695 227.421 C 131.651 227.135,131.617 227.414,131.618 228.042 M84.459 232.224 C 84.461 232.643,84.500 232.791,84.545 232.555 C 84.591 232.318,84.589 231.976,84.541 231.794 C 84.494 231.613,84.456 231.806,84.459 232.224 M84.272 234.981 C 84.272 235.452,84.309 235.644,84.355 235.409 C 84.400 235.173,84.400 234.788,84.355 234.553 C 84.309 234.318,84.272 234.510,84.272 234.981 M140.114 243.025 C 140.114 243.058,140.392 243.336,140.732 243.643 L 141.350 244.202 140.791 243.584 C 140.271 243.008,140.114 242.878,140.114 243.025 M84.268 244.582 C 84.271 245.000,84.310 245.149,84.355 244.912 C 84.400 244.676,84.399 244.334,84.351 244.152 C 84.304 243.970,84.266 244.163,84.268 244.582 M168.061 264.888 C 168.061 264.921,168.339 265.199,168.679 265.506 L 169.297 266.065 168.738 265.447 C 168.218 264.871,168.061 264.742,168.061 264.888 M175.190 271.863 C 175.599 272.281,175.975 272.624,176.028 272.624 C 176.080 272.624,175.789 272.281,175.380 271.863 C 174.972 271.445,174.595 271.103,174.543 271.103 C 174.490 271.103,174.782 271.445,175.190 271.863 M99.049 279.183 C 99.404 279.548,99.737 279.848,99.789 279.848 C 99.842 279.848,99.594 279.548,99.240 279.183 C 98.885 278.817,98.552 278.517,98.500 278.517 C 98.447 278.517,98.695 278.817,99.049 279.183 M103.802 283.935 C 104.157 284.301,104.490 284.601,104.542 284.601 C 104.595 284.601,104.347 284.301,103.992 283.935 C 103.638 283.569,103.305 283.270,103.252 283.270 C 103.200 283.270,103.448 283.569,103.802 283.935 M192.630 310.076 C 192.630 310.442,192.669 310.592,192.717 310.409 C 192.764 310.226,192.764 309.926,192.717 309.743 C 192.669 309.560,192.630 309.710,192.630 310.076 M192.855 316.065 C 192.855 318.051,192.883 318.838,192.918 317.813 C 192.952 316.788,192.952 315.163,192.917 314.201 C 192.883 313.239,192.855 314.078,192.855 316.065 M134.265 320.342 C 134.265 320.708,134.304 320.858,134.352 320.675 C 134.399 320.492,134.399 320.192,134.352 320.010 C 134.304 319.827,134.265 319.976,134.265 320.342 M192.633 322.338 C 192.636 322.757,192.675 322.905,192.720 322.669 C 192.765 322.432,192.764 322.090,192.716 321.908 C 192.669 321.727,192.631 321.920,192.633 322.338 M192.440 324.905 C 192.440 325.271,192.479 325.421,192.526 325.238 C 192.574 325.055,192.574 324.755,192.526 324.572 C 192.479 324.389,192.440 324.539,192.440 324.905 M115.538 340.061 C 115.875 340.103,116.474 340.104,116.868 340.063 C 117.263 340.022,116.987 339.987,116.255 339.986 C 115.523 339.985,115.200 340.019,115.538 340.061 M63.498 361.692 C 64.172 362.372,64.766 362.928,64.818 362.928 C 64.870 362.928,64.362 362.372,63.688 361.692 C 63.015 361.012,62.421 360.456,62.368 360.456 C 62.316 360.456,62.824 361.012,63.498 361.692 M175.368 366.587 L 174.810 367.205 175.428 366.647 C 175.768 366.340,176.046 366.062,176.046 366.029 C 176.046 365.882,175.889 366.012,175.368 366.587 M118.108 386.443 C 118.291 386.491,118.591 386.491,118.774 386.443 C 118.957 386.395,118.807 386.356,118.441 386.356 C 118.075 386.356,117.925 386.395,118.108 386.443 M120.487 386.636 C 120.723 386.682,121.066 386.680,121.247 386.633 C 121.429 386.585,121.236 386.548,120.817 386.550 C 120.399 386.552,120.251 386.591,120.487 386.636 M134.555 386.636 C 134.792 386.682,135.134 386.680,135.316 386.633 C 135.498 386.585,135.304 386.548,134.886 386.550 C 134.468 386.552,134.319 386.591,134.555 386.636 M123.717 386.830 C 124.057 386.872,124.613 386.872,124.952 386.830 C 125.292 386.787,125.014 386.753,124.335 386.753 C 123.655 386.753,123.377 386.787,123.717 386.830 M131.419 386.828 C 131.708 386.872,132.136 386.871,132.370 386.826 C 132.603 386.781,132.367 386.745,131.844 386.746 C 131.321 386.748,131.130 386.785,131.419 386.828 " stroke="none" fill="#ccdfa6" fill-rule="evenodd"></path><path id="path4" d="M175.055 156.605 C 175.713 156.642,176.739 156.642,177.336 156.604 C 177.933 156.567,177.395 156.536,176.141 156.536 C 174.886 156.537,174.397 156.568,175.055 156.605 M169.059 156.785 C 169.242 156.833,169.541 156.833,169.724 156.785 C 169.907 156.737,169.758 156.698,169.392 156.698 C 169.026 156.698,168.876 156.737,169.059 156.785 M181.797 156.785 C 181.980 156.833,182.279 156.833,182.462 156.785 C 182.645 156.737,182.495 156.698,182.129 156.698 C 181.763 156.698,181.614 156.737,181.797 156.785 M160.124 157.545 C 160.307 157.593,160.606 157.593,160.789 157.545 C 160.972 157.498,160.822 157.459,160.456 157.459 C 160.090 157.459,159.941 157.498,160.124 157.545 M156.321 206.975 C 156.504 207.023,156.804 207.023,156.987 206.975 C 157.170 206.927,157.020 206.888,156.654 206.888 C 156.288 206.888,156.138 206.927,156.321 206.975 M163.736 206.975 C 163.919 207.023,164.218 207.023,164.401 206.975 C 164.584 206.927,164.434 206.888,164.068 206.888 C 163.702 206.888,163.553 206.927,163.736 206.975 M137.158 214.306 L 136.407 215.114 137.215 214.363 C 137.966 213.664,138.110 213.498,137.966 213.498 C 137.935 213.498,137.572 213.862,137.158 214.306 M131.797 226.521 C 131.799 226.939,131.838 227.088,131.884 226.851 C 131.929 226.615,131.927 226.273,131.880 226.091 C 131.832 225.909,131.795 226.103,131.797 226.521 M131.793 229.278 C 131.793 229.644,131.832 229.793,131.880 229.610 C 131.928 229.427,131.928 229.128,131.880 228.945 C 131.832 228.762,131.793 228.912,131.793 229.278 M84.272 233.460 C 84.272 233.931,84.309 234.123,84.355 233.888 C 84.400 233.653,84.400 233.268,84.355 233.032 C 84.309 232.797,84.272 232.990,84.272 233.460 M84.111 239.829 C 84.112 242.129,84.139 243.044,84.172 241.862 C 84.206 240.680,84.206 238.798,84.172 237.680 C 84.139 236.561,84.111 237.529,84.111 239.829 M138.498 241.445 C 139.330 242.281,140.053 242.966,140.105 242.966 C 140.157 242.966,139.520 242.281,138.688 241.445 C 137.857 240.608,137.133 239.924,137.081 239.924 C 137.029 239.924,137.667 240.608,138.498 241.445 M84.272 246.008 C 84.272 246.478,84.309 246.671,84.355 246.435 C 84.400 246.200,84.400 245.815,84.355 245.580 C 84.309 245.345,84.272 245.537,84.272 246.008 M169.582 266.255 C 169.936 266.621,170.269 266.920,170.322 266.920 C 170.374 266.920,170.127 266.621,169.772 266.255 C 169.417 265.889,169.084 265.589,169.032 265.589 C 168.980 265.589,169.227 265.889,169.582 266.255 M172.909 269.392 C 173.530 270.019,174.080 270.532,174.133 270.532 C 174.185 270.532,173.720 270.019,173.099 269.392 C 172.478 268.764,171.927 268.251,171.875 268.251 C 171.823 268.251,172.288 268.764,172.909 269.392 M100.760 281.084 C 101.750 282.077,102.602 282.890,102.654 282.890 C 102.706 282.890,101.940 282.077,100.951 281.084 C 99.961 280.090,99.109 279.278,99.057 279.278 C 99.005 279.278,99.771 280.090,100.760 281.084 M124.430 301.711 C 125.366 302.652,126.176 303.422,126.228 303.422 C 126.280 303.422,125.556 302.652,124.620 301.711 C 123.683 300.770,122.874 300.000,122.822 300.000 C 122.769 300.000,123.493 300.770,124.430 301.711 M192.630 308.935 C 192.630 309.301,192.669 309.451,192.717 309.268 C 192.764 309.085,192.764 308.786,192.717 308.603 C 192.669 308.420,192.630 308.569,192.630 308.935 M192.835 311.502 C 192.836 312.129,192.871 312.363,192.913 312.021 C 192.956 311.680,192.955 311.166,192.912 310.881 C 192.868 310.595,192.834 310.875,192.835 311.502 M192.837 320.722 C 192.837 321.402,192.871 321.680,192.913 321.340 C 192.955 321.000,192.955 320.444,192.913 320.105 C 192.871 319.765,192.837 320.043,192.837 320.722 M134.284 322.243 C 134.284 323.028,134.318 323.348,134.359 322.956 C 134.400 322.564,134.400 321.923,134.359 321.530 C 134.318 321.138,134.284 321.459,134.284 322.243 M192.633 323.669 C 192.636 324.087,192.675 324.236,192.720 324.000 C 192.765 323.763,192.764 323.421,192.716 323.239 C 192.669 323.057,192.631 323.251,192.633 323.669 M61.239 359.042 C 61.226 359.263,61.486 359.678,61.835 359.993 L 62.452 360.551 61.948 359.981 C 61.671 359.667,61.403 359.240,61.352 359.030 C 61.263 358.660,61.260 358.660,61.239 359.042 M64.829 362.987 C 64.829 363.020,65.107 363.298,65.447 363.605 L 66.065 364.163 65.506 363.546 C 64.986 362.970,64.829 362.840,64.829 362.987 M174.421 367.728 L 173.669 368.536 174.477 367.785 C 175.229 367.086,175.373 366.920,175.229 366.920 C 175.198 366.920,174.834 367.284,174.421 367.728 M171.283 370.865 L 170.627 371.578 171.340 370.923 C 172.004 370.313,172.141 370.152,171.995 370.152 C 171.964 370.152,171.643 370.473,171.283 370.865 M119.249 386.633 C 119.432 386.681,119.731 386.681,119.914 386.633 C 120.097 386.585,119.948 386.546,119.582 386.546 C 119.216 386.546,119.066 386.585,119.249 386.633 M121.721 386.828 C 122.008 386.872,122.479 386.872,122.766 386.828 C 123.054 386.785,122.818 386.749,122.243 386.749 C 121.668 386.749,121.433 386.785,121.721 386.828 M133.130 386.828 C 133.419 386.872,133.847 386.871,134.081 386.826 C 134.314 386.781,134.078 386.745,133.555 386.746 C 133.032 386.748,132.841 386.785,133.130 386.828 M127.146 387.023 C 127.804 387.060,128.830 387.060,129.428 387.022 C 130.025 386.985,129.487 386.954,128.232 386.955 C 126.977 386.955,126.489 386.986,127.146 387.023 " stroke="none" fill="#b5d27d" fill-rule="evenodd"></path></g></svg>